<?xml version="1.0" ?><!DOCTYPE svg  PUBLIC '-//W3C//DTD SVG 1.1//EN'  'http://www.w3.org/Graphics/SVG/1.1/DTD/svg11.dtd'><svg height="25px" style="enable-background:new 0 0 512 512;" version="1.1" viewBox="0 0 512 512" width="25px" xml:space="preserve" xmlns="http://www.w3.org/2000/svg" xmlns:xlink="http://www.w3.org/1999/xlink"><g id="_x34_14_x2C_van.transport_x2C_delivery_x2C_shipping"><g><path d="M380.803,345.154c-13.952,0-25.303,11.344-25.303,25.289c0,13.959,11.351,25.316,25.303,25.316    c13.96,0,25.316-11.357,25.316-25.316C406.119,356.498,394.763,345.154,380.803,345.154z"/><path d="M25.159,126.949v208.094c0,16.504,13.433,29.932,29.944,29.932h24.373c2.75-27.176,25.767-48.457,53.663-48.457    s50.913,21.281,53.663,48.457h83.988h0.365V94.947H57.148C39.509,94.947,25.159,109.303,25.159,126.949z M69.641,161.744    c0-18.313,14.893-33.211,33.198-33.211h123.833v150.49H69.641V161.744z"/><path d="M133.139,345.154c-13.952,0-25.303,11.344-25.303,25.289c0,13.959,11.351,25.316,25.303,25.316    c13.952,0,25.302-11.357,25.302-25.316C158.441,356.498,147.09,345.154,133.139,345.154z"/><path d="M77.641,161.744v109.279h141.031v-134.49H102.839C88.945,136.533,77.641,147.844,77.641,161.744z"/><path d="M133.139,324.518c-25.331,0-45.939,20.602-45.939,45.926c0,25.338,20.608,45.953,45.939,45.953    s45.939-20.615,45.939-45.953C179.078,345.119,158.47,324.518,133.139,324.518z M133.139,403.76    c-18.363,0-33.303-14.945-33.303-33.316c0-18.355,14.94-33.289,33.303-33.289c18.363,0,33.302,14.934,33.302,33.289    C166.441,388.814,151.501,403.76,133.139,403.76z"/><path d="M380.816,324.518c-25.332,0-45.941,20.602-45.941,45.926c0,25.338,20.609,45.953,45.941,45.953    c25.322,0,45.924-20.615,45.924-45.953C426.74,345.119,406.139,324.518,380.816,324.518z M380.803,403.76    c-18.363,0-33.303-14.945-33.303-33.316c0-18.355,14.939-33.289,33.303-33.289c18.371,0,33.316,14.934,33.316,33.289    C414.119,388.814,399.174,403.76,380.803,403.76z"/><path d="M279.154,140.887v224.088h47.997c2.75-27.176,25.769-48.457,53.665-48.457c27.888,0,50.898,21.281,53.647,48.457h52.378    v-116.16l-82.283-107.928H279.154z M444.326,284.557H310.973V173.451l88.248-1.15l45.105,54.395V284.557z"/><polygon points="318.973,181.348 318.973,276.557 436.326,276.557 436.326,229.58 395.502,180.35   "/></g></g><g id="Layer_1"/></svg>
