<?xml version="1.0" standalone="no"?>
<!DOCTYPE svg PUBLIC "-//W3C//DTD SVG 1.1//EN" "http://www.w3.org/Graphics/SVG/1.1/DTD/svg11.dtd" >
<svg xmlns="http://www.w3.org/2000/svg" xmlns:xlink="http://www.w3.org/1999/xlink" version="1.1">
<metadata>
Created by FontForge 20190801 at Sat Jan 12 09:20:23 2019
 By www-data
Copyright 2015 Google Inc. All Rights Reserved.
</metadata>
<defs>
<font id="NotoIKEALatinRegular" horiz-adv-x="0" >
  <font-face 
    font-family="NotoIKEALatinRegular"
    font-weight="400"
    font-stretch="normal"
    units-per-em="1000"
    panose-1="2 11 5 2 4 5 4 2 2 4"
    ascent="800"
    descent="-200"
    x-height="536"
    cap-height="714"
    bbox="-556 -273 1253 1067"
    underline-thickness="50"
    underline-position="-125"
    unicode-range="U+0020-FDFC"
  />
<missing-glyph horiz-adv-x="600" 
d="M94 0v714h411v-714h-411zM145 51h309v612h-309v-612z" />
    <glyph glyph-name="f_f#0" unicode="ff" horiz-adv-x="688" 
d="M332 468h-135v-468h-88v468h-94v41l94 30v31q0 104 46 149.5t128 45.5q32 0 58.5 -5.5t45.5 -12.5l-23 -69q-16 5 -37 10t-43 5q-44 0 -65.5 -29.5t-21.5 -92.5v-35h135v-68zM676 468h-135v-468h-88v468h-94v41l94 30v31q0 104 46 149.5t128 45.5q32 0 58.5 -5.5
t45.5 -12.5l-23 -69q-16 5 -37 10t-43 5q-44 0 -65.5 -29.5t-21.5 -92.5v-35h135v-68z" />
    <glyph glyph-name="fi#0" unicode="fi" horiz-adv-x="602" 
d="M332 468h-135v-468h-88v468h-94v41l94 30v31q0 104 46 149.5t128 45.5q32 0 58.5 -5.5t45.5 -12.5l-23 -69q-16 5 -37 10t-43 5q-44 0 -65.5 -29.5t-21.5 -92.5v-35h135v-68zM474 737q20 0 35.5 -13.5t15.5 -42.5q0 -28 -15.5 -42t-35.5 -14q-22 0 -37 14t-15 42
q0 29 15 42.5t37 13.5zM517 536v-536h-88v536h88z" />
    <glyph glyph-name="fl#0" unicode="fl" horiz-adv-x="602" 
d="M332 468h-135v-468h-88v468h-94v41l94 30v31q0 104 46 149.5t128 45.5q32 0 58.5 -5.5t45.5 -12.5l-23 -69q-16 5 -37 10t-43 5q-44 0 -65.5 -29.5t-21.5 -92.5v-35h135v-68zM517 0h-88v760h88v-760z" />
    <glyph glyph-name="f_f_i#0" unicode="ffi" horiz-adv-x="946" 
d="M332 468h-135v-468h-88v468h-94v41l94 30v31q0 104 46 149.5t128 45.5q32 0 58.5 -5.5t45.5 -12.5l-23 -69q-16 5 -37 10t-43 5q-44 0 -65.5 -29.5t-21.5 -92.5v-35h135v-68zM676 468h-135v-468h-88v468h-94v41l94 30v31q0 104 46 149.5t128 45.5q32 0 58.5 -5.5
t45.5 -12.5l-23 -69q-16 5 -37 10t-43 5q-44 0 -65.5 -29.5t-21.5 -92.5v-35h135v-68zM818 737q20 0 35.5 -13.5t15.5 -42.5q0 -28 -15.5 -42t-35.5 -14q-22 0 -37 14t-15 42q0 29 15 42.5t37 13.5zM861 536v-536h-88v536h88z" />
    <glyph glyph-name="f_f_l#0" unicode="ffl" horiz-adv-x="946" 
d="M332 468h-135v-468h-88v468h-94v41l94 30v31q0 104 46 149.5t128 45.5q32 0 58.5 -5.5t45.5 -12.5l-23 -69q-16 5 -37 10t-43 5q-44 0 -65.5 -29.5t-21.5 -92.5v-35h135v-68zM676 468h-135v-468h-88v468h-94v41l94 30v31q0 104 46 149.5t128 45.5q32 0 58.5 -5.5
t45.5 -12.5l-23 -69q-16 5 -37 10t-43 5q-44 0 -65.5 -29.5t-21.5 -92.5v-35h135v-68zM861 0h-88v760h88v-760z" />
    <glyph glyph-name="rial#1" unicode="&#xfdfc;" horiz-adv-x="1200" arabic-form="isolated" 
d="M313 -188q-75 0 -139.5 24t-104 72t-39.5 121q0 23 9 73.5t48 121.5l69 -34q-23 -47 -33.5 -81t-10.5 -65q0 -51 27.5 -84.5t74 -49.5t102.5 -16q91 0 143 35.5t73 103t17 162.5l-1 28q-49 -42 -83 -64.5t-61.5 -31t-56.5 -8.5q-51 0 -81.5 19.5t-44.5 51.5t-14 68
q0 46 25 105t83 117l59 -45q-34 -36 -59.5 -80.5t-25.5 -84.5q0 -30 17 -47t49 -17q25 0 51 12t59 38t79 68l-14 390h83l10 -317q6 6 11.5 11t11.5 11q20 19 38.5 36t34.5 31l-8 228h82l6 -160q39 29 69 42t62 13q51 0 91.5 -31.5t54.5 -101.5l-68 -27q-12 35 -30 55t-49 20
q-27 0 -56 -16.5t-70 -52.5l10 -256q2 -49 9.5 -75.5t34 -36.5t83.5 -10q56 0 84.5 6.5t39 25t10.5 54.5q0 38 -17.5 95.5t-39.5 114.5l81 30q13 -32 24.5 -73t19.5 -81t8 -70q0 -100 -53.5 -142t-165.5 -42q-76 0 -119 16t-61 54t-20 102l-8 216q-9 -9 -18.5 -18t-19.5 -18
q-16 -15 -30.5 -28.5t-28.5 -25.5l3 -86q2 -78 -12 -149t-50 -126.5t-98.5 -87.5t-155.5 -32zM924 -187q-22 0 -37 15t-15 36q0 22 15 37.5t37 15.5q21 0 36 -15.5t15 -37.5q0 -21 -15 -36t-36 -15zM1053 -187q-22 0 -37 15t-15 36q0 22 15 37.5t37 15.5q21 0 36 -15.5
t15 -37.5q0 -21 -15 -36t-36 -15z" />
    <glyph glyph-name=".notdef" horiz-adv-x="600" 
d="M94 0v714h411v-714h-411zM145 51h309v612h-309v-612z" />
    <glyph glyph-name=".null" 
 />
    <glyph glyph-name="nonmarkingreturn" horiz-adv-x="333" 
 />
    <glyph glyph-name="space#0" unicode=" " horiz-adv-x="260" 
 />
    <glyph glyph-name="exclam#0" unicode="!" horiz-adv-x="269" 
d="M163 201h-57l-25 513h107zM72 54q0 37 18 52t44 15q25 0 43.5 -15t18.5 -52q0 -36 -18.5 -52t-43.5 -16q-26 0 -44 16t-18 52z" />
    <glyph glyph-name="quotedbl#0" unicode="&#x22;" horiz-adv-x="408" 
d="M160 714l-20 -258h-55l-20 258h95zM343 714l-20 -258h-55l-20 258h95z" />
    <glyph glyph-name="numbersign#0" unicode="#" horiz-adv-x="646" 
d="M480 436l-31 -160h137v-67h-150l-41 -209h-71l41 209h-143l-39 -209h-70l38 209h-126v67h139l32 160h-134v66h146l40 212h72l-40 -212h144l40 212h69l-40 -212h127v-66h-140zM235 276h143l31 160h-143z" />
    <glyph glyph-name="dollar#0" unicode="$" horiz-adv-x="572" 
d="M253 -58v107q-55 1 -107 9.5t-84 23.5v85q34 -16 87 -28t104 -13v202q-99 27 -145 68t-46 112q0 74 51.5 116t139.5 47v88h64v-87q53 -1 96.5 -11.5t79.5 -25.5l-27 -74q-32 13 -70.5 22.5t-78.5 12.5v-201q66 -19 110 -40.5t66.5 -53t22.5 -81.5q0 -70 -52 -113.5
t-147 -53.5v-111h-64zM253 417v177q-54 -4 -79.5 -25t-25.5 -54q0 -40 22.5 -61.5t82.5 -36.5zM317 131q59 6 86 27.5t27 55.5q0 38 -24 57.5t-89 35.5v-176z" />
    <glyph glyph-name="percent#0" unicode="%" horiz-adv-x="831" 
d="M195 724q74 0 112 -58.5t38 -164.5t-36.5 -165.5t-113.5 -59.5q-71 0 -108.5 59.5t-37.5 165.5t35 164.5t111 58.5zM652 714l-396 -714h-77l396 714h77zM195 662q-38 0 -55.5 -40.5t-17.5 -120.5t17.5 -121t55.5 -41q77 0 77 162q0 161 -77 161zM632 438
q73 0 111.5 -58.5t38.5 -164.5t-36.5 -165.5t-113.5 -59.5q-71 0 -108.5 59.5t-37.5 165.5t35 164.5t111 58.5zM632 375q-38 0 -55.5 -40t-17.5 -120q0 -81 17.5 -121.5t55.5 -40.5q77 0 77 162q0 160 -77 160z" />
    <glyph glyph-name="ampersand#0" unicode="&#x26;" horiz-adv-x="732" 
d="M304 725q80 0 126.5 -40.5t46.5 -113.5q0 -63 -40.5 -107t-102.5 -80l193 -186q26 31 42.5 71.5t27.5 87.5h89q-16 -64 -40 -119t-62 -96l146 -142h-119l-87 84q-47 -42 -105 -68t-141 -26q-103 0 -164 51t-61 145q0 77 41.5 123.5t112.5 86.5q-32 36 -59.5 77t-27.5 96
q0 74 49.5 115t134.5 41zM301 653q-42 0 -68.5 -22t-26.5 -61q0 -36 19 -66.5t55 -67.5q59 34 84.5 64.5t25.5 70.5q0 36 -24 59t-65 23zM260 341q-54 -32 -84.5 -65t-30.5 -87q0 -55 37 -88t99 -33q64 0 110 21t77 50z" />
    <glyph glyph-name="quotesingle#0" unicode="'" horiz-adv-x="225" 
d="M160 714l-20 -258h-55l-20 258h95z" />
    <glyph glyph-name="parenleft#0" unicode="(" horiz-adv-x="300" 
d="M40 274q0 122 35.5 235.5t111.5 204.5h83q-70 -94 -105.5 -207t-35.5 -232q0 -116 35.5 -227.5t104.5 -205.5h-82q-76 88 -111.5 199.5t-35.5 232.5z" />
    <glyph glyph-name="parenright#0" unicode=")" horiz-adv-x="300" 
d="M260 274q0 -121 -35.5 -232.5t-111.5 -199.5h-82q69 94 104.5 205.5t35.5 227.5q0 119 -35.5 232t-105.5 207h83q76 -91 111.5 -204.5t35.5 -235.5z" />
    <glyph glyph-name="asterisk#0" unicode="*" horiz-adv-x="551" 
d="M322 760l-20 -192l192 54l14 -92l-184 -15l119 -158l-86 -47l-85 175l-77 -175l-89 47l117 158l-182 15l14 92l190 -54l-21 192h98z" />
    <glyph glyph-name="plus#0" unicode="+" horiz-adv-x="572" 
d="M321 388h199v-71h-199v-206h-72v206h-199v71h199v207h72v-207z" />
    <glyph glyph-name="comma#0" unicode="," horiz-adv-x="268" 
d="M185 116l7 -11q-13 -53 -37.5 -116.5t-48.5 -117.5h-65q14 57 28.5 125t21.5 120h94z" />
    <glyph glyph-name="hyphen#0" unicode="-" horiz-adv-x="322" 
d="M40 229v78h242v-78h-242z" />
    <glyph glyph-name="period#0" unicode="." horiz-adv-x="268" 
d="M72 54q0 37 18 52t43 15q26 0 44.5 -15t18.5 -52q0 -36 -18.5 -52t-44.5 -16q-25 0 -43 16t-18 52z" />
    <glyph glyph-name="slash#0" unicode="/" horiz-adv-x="372" 
d="M362 714l-266 -714h-86l266 714h86z" />
    <glyph glyph-name="zero#0" unicode="0" horiz-adv-x="584" 
d="M529 358q0 -115 -24 -197.5t-76 -126.5t-138 -44q-121 0 -178.5 97.5t-57.5 270.5q0 116 23.5 198t75.5 125.5t137 43.5q120 0 179 -96.5t59 -270.5zM143 358q0 -147 33.5 -220t114.5 -73q80 0 114.5 72.5t34.5 220.5q0 146 -34.5 219t-114.5 73q-81 0 -114.5 -73
t-33.5 -219z" />
    <glyph glyph-name="one#0" unicode="1" horiz-adv-x="441" 
d="M205 0v499q0 43 1 69t3 54q-16 -16 -29 -27t-33 -28l-76 -62l-46 59l193 150h73v-714h-86z" />
    <glyph glyph-name="two#0" unicode="2" horiz-adv-x="555" 
d="M38 0v73l187 189q54 54 91 96t56 82.5t19 88.5q0 59 -35 89.5t-91 30.5q-52 0 -91.5 -18t-80.5 -50l-47 59q42 35 96.5 59.5t122.5 24.5q100 0 158 -50.5t58 -139.5q0 -56 -23 -105t-64 -96.5t-96 -101.5l-149 -147v-4h361v-80h-472z" />
    <glyph glyph-name="three#0" unicode="3" horiz-adv-x="572" 
d="M493 547q0 -72 -40 -114.5t-108 -56.5v-4q86 -10 128 -54t42 -115q0 -62 -29 -110.5t-89.5 -75.5t-155.5 -27q-56 0 -104 8.5t-92 30.5v82q45 -22 97 -34.5t100 -12.5q96 0 138.5 37.5t42.5 103.5q0 67 -52.5 96.5t-147.5 29.5h-69v75h70q88 0 133.5 37t45.5 98
q0 52 -35 80.5t-95 28.5q-58 0 -99 -17t-81 -43l-44 60q38 30 94.5 52t128.5 22q112 0 166.5 -50t54.5 -127z" />
    <glyph glyph-name="four#0" unicode="4" horiz-adv-x="572" 
d="M363 0v162h-342v75l336 481h91v-477h104v-79h-104v-162h-85zM363 241v225q0 52 1 90.5t3 63.5h-4q-10 -19 -26 -44t-27 -40l-203 -295h256z" />
    <glyph glyph-name="five#0" unicode="5" horiz-adv-x="572" 
d="M275 438q110 0 175 -55t65 -155q0 -111 -70.5 -174.5t-196.5 -63.5q-55 0 -103.5 10t-81.5 29v83q36 -22 87.5 -34.5t98.5 -12.5q79 0 127.5 37.5t48.5 116.5q0 70 -43 107.5t-136 37.5q-28 0 -64 -5t-58 -10l-44 28l27 337h358v-80h-283l-17 -207q17 3 46 7t64 4z" />
    <glyph glyph-name="six#0" unicode="6" horiz-adv-x="572" 
d="M55 305q0 77 13.5 151.5t49 135t99.5 96.5t165 36q21 0 46.5 -2t41.5 -7v-75q-18 6 -40.5 9t-45.5 3q-69 0 -115 -23t-72.5 -63t-38.5 -92t-15 -111h6q23 35 64 59.5t105 24.5q93 0 150 -56.5t57 -160.5q0 -112 -61.5 -176t-165.5 -64q-68 0 -123 34t-87.5 104t-32.5 177
zM297 64q63 0 102 40.5t39 125.5q0 68 -34.5 108t-103.5 40q-47 0 -82 -19.5t-54.5 -49.5t-19.5 -62q0 -43 17 -85.5t51 -70t85 -27.5z" />
    <glyph glyph-name="seven#0" unicode="7" horiz-adv-x="511" 
d="M100 0l293 634h-385v80h479v-68l-290 -646h-97z" />
    <glyph glyph-name="eight#0" unicode="8" horiz-adv-x="589" 
d="M297 -10q-115 0 -177 50.5t-62 141.5q0 49 20.5 85t54.5 62t73 44q-52 30 -88.5 72.5t-36.5 108.5q0 55 28 92.5t76 57.5t109 20q94 0 154 -44t60 -127q0 -43 -18.5 -75t-49.5 -56.5t-68 -43.5q44 -21 80 -47.5t57.5 -61.5t21.5 -84q0 -90 -63.5 -142.5t-170.5 -52.5z
M298 412q52 22 87.5 53t35.5 85q0 50 -35 76.5t-93 26.5q-55 0 -90.5 -26.5t-35.5 -76.5q0 -37 17.5 -62t47.5 -42.5t66 -33.5zM295 60q73 0 111.5 34.5t38.5 89.5q0 52 -41 86.5t-109 60.5l-16 6q-66 -28 -100.5 -64.5t-34.5 -91.5q0 -52 37 -86.5t114 -34.5z" />
    <glyph glyph-name="nine#0" unicode="9" horiz-adv-x="572" 
d="M520 409q0 -77 -13.5 -151.5t-49 -135t-100 -96.5t-165.5 -36q-20 0 -46.5 2.5t-43.5 7.5v75q39 -13 88 -13q70 0 115.5 23t72.5 62.5t39 92t14 110.5h-6q-22 -34 -63.5 -58.5t-106.5 -24.5q-92 0 -148.5 56.5t-56.5 159.5q0 75 28.5 129t79.5 83t120 29q68 0 123 -34.5
t87 -104t32 -176.5zM278 650q-62 0 -101.5 -41t-39.5 -125q0 -68 33.5 -107.5t103.5 -39.5q48 0 83 19t54.5 49t19.5 62q0 43 -17 85t-51 70t-85 28z" />
    <glyph glyph-name="colon#0" unicode=":" horiz-adv-x="268" 
d="M72 482q0 38 18 53t43 15q26 0 44.5 -15t18.5 -53q0 -36 -18.5 -52t-44.5 -16q-25 0 -43 16t-18 52zM72 54q0 37 18 52t43 15q26 0 44.5 -15t18.5 -52q0 -36 -18.5 -52t-44.5 -16q-25 0 -43 16t-18 52z" />
    <glyph glyph-name="semicolon#0" unicode=";" horiz-adv-x="268" 
d="M70 482q0 38 18 53t43 15q26 0 44.5 -15t18.5 -53q0 -36 -18.5 -52t-44.5 -16q-25 0 -43 16t-18 52zM176 116l7 -11q-13 -52 -37.5 -116.5t-48.5 -117.5h-66q10 38 19.5 81.5t18 86t13.5 77.5h94z" />
    <glyph glyph-name="less#0" unicode="&#x3c;" horiz-adv-x="572" 
d="M521 116l-471 207v50l471 235v-78l-377 -178l377 -158v-78z" />
    <glyph glyph-name="equal#0" unicode="=" horiz-adv-x="572" 
d="M56 416v71h458v-71h-458zM56 217v71h458v-71h-458z" />
    <glyph glyph-name="greater#0" unicode="&#x3e;" horiz-adv-x="572" 
d="M50 194l377 157l-377 179v78l471 -235v-50l-471 -207v78z" />
    <glyph glyph-name="question#0" unicode="?" horiz-adv-x="434" 
d="M140 201v27q0 38 7.5 65.5t26 52.5t50.5 52q39 33 60.5 55t30.5 43t9 51q0 48 -31 74t-90 26q-49 0 -87 -12.5t-73 -29.5l-31 70q40 21 88.5 35t108.5 14q95 0 147 -47t52 -128q0 -45 -14.5 -76.5t-41 -58t-62.5 -56.5q-33 -28 -50.5 -49t-23.5 -41.5t-6 -49.5v-17h-70z
M117 54q0 37 17.5 52t44.5 15q25 0 43 -15t18 -52q0 -36 -18 -52t-43 -16q-27 0 -44.5 16t-17.5 52z" />
    <glyph glyph-name="at#0" unicode="@" horiz-adv-x="899" 
d="M841 357q0 -46 -10.5 -90t-32.5 -79.5t-54 -57t-76 -21.5q-46 0 -72.5 26.5t-32.5 60.5h-5q-18 -37 -53 -62t-88 -25q-76 0 -117.5 51t-41.5 135q0 66 26 116.5t73.5 79.5t112.5 29q44 0 86.5 -7.5t66.5 -16.5l-10 -203q-1 -18 -1 -25.5v-10.5q0 -52 18.5 -69t43.5 -17
q31 0 52.5 25.5t33 68t11.5 93.5q0 93 -37.5 157.5t-103 98.5t-148.5 34q-114 0 -192.5 -47t-119 -129.5t-40.5 -188.5q0 -148 78 -227t225 -79q61 0 116.5 13.5t98.5 29.5v-68q-43 -18 -96.5 -29.5t-118.5 -11.5q-118 0 -202 44t-128.5 126.5t-44.5 198.5q0 93 29 172.5
t84 138t133.5 91t177.5 32.5q104 0 185 -43t127.5 -123t46.5 -191zM336 293q0 -64 25.5 -93t68.5 -29q56 0 80.5 42t28.5 109l6 125q-13 4 -33 7t-41 3q-49 0 -79 -24t-43 -61.5t-13 -78.5z" />
    <glyph glyph-name="A#0" unicode="A" horiz-adv-x="639" 
d="M545 0l-86 221h-283l-85 -221h-91l279 717h81l278 -717h-93zM432 301l-80 216q-3 8 -10 29t-13.5 43.5t-10.5 34.5q-7 -31 -16 -60.5t-15 -46.5l-81 -216h226z" />
    <glyph glyph-name="B#0" unicode="B" horiz-adv-x="650" 
d="M97 714h204q134 0 202.5 -39.5t68.5 -137.5q0 -63 -35 -104.5t-101 -53.5v-5q45 -7 81.5 -26t57.5 -54t21 -91q0 -97 -66.5 -150t-181.5 -53h-251v714zM187 410h132q92 0 126 29.5t34 87.5q0 59 -41.5 84.5t-132.5 25.5h-118v-227zM187 335v-259h144q95 0 132 37t37 97
q0 56 -38.5 90.5t-137.5 34.5h-137z" />
    <glyph glyph-name="C#0" unicode="C" horiz-adv-x="632" 
d="M403 645q-115 0 -181 -77t-66 -211q0 -133 61.5 -210.5t184.5 -77.5q47 0 89 8t82 20v-78q-40 -15 -82.5 -22t-101.5 -7q-109 0 -182 45t-109.5 128t-36.5 195q0 108 39.5 190.5t116.5 129t187 46.5q113 0 197 -42l-36 -76q-33 15 -73.5 27t-88.5 12z" />
    <glyph glyph-name="D#0" unicode="D" horiz-adv-x="730" 
d="M669 364q0 -181 -98.5 -272.5t-274.5 -91.5h-199v714h220q108 0 187 -40t122 -117.5t43 -192.5zM574 361q0 143 -70.5 209.5t-199.5 66.5h-117v-560h97q290 0 290 284z" />
    <glyph glyph-name="E#0" unicode="E" horiz-adv-x="556" 
d="M496 0h-399v714h399v-79h-309v-223h291v-78h-291v-255h309v-79z" />
    <glyph glyph-name="F#0" unicode="F" horiz-adv-x="519" 
d="M187 0h-90v714h399v-79h-309v-253h290v-79h-290v-303z" />
    <glyph glyph-name="G#0" unicode="G" horiz-adv-x="728" 
d="M407 377h247v-350q-58 -19 -117 -28t-134 -9q-111 0 -187 44.5t-115.5 127t-39.5 195.5q0 112 44 194t126.5 127.5t199.5 45.5q60 0 113.5 -11t99.5 -31l-34 -78q-38 17 -85.5 29t-98.5 12q-128 0 -199.5 -77t-71.5 -211q0 -85 27.5 -150.5t86.5 -102t155 -36.5
q47 0 80 5t60 12v212h-157v80z" />
    <glyph glyph-name="H#0" unicode="H" horiz-adv-x="741" 
d="M643 0h-90v333h-366v-333h-90v714h90v-302h366v302h90v-714z" />
    <glyph glyph-name="I#0" unicode="I" horiz-adv-x="285" 
d="M97 0v714h90v-714h-90z" />
    <glyph glyph-name="J#0" unicode="J" horiz-adv-x="413" 
d="M136 -11q-35 0 -61.5 7t-46.5 18v76q23 -10 49.5 -16t56.5 -6q25 0 47.5 10t36.5 35t14 70v531h90v-524q0 -103 -51 -152t-135 -49z" />
    <glyph glyph-name="K#0" unicode="K" horiz-adv-x="619" 
d="M619 0h-106l-253 341l-73 -64v-277h-90v714h90v-352q30 34 61 68l62 68l193 216h105l-283 -311z" />
    <glyph glyph-name="L#0" unicode="L" horiz-adv-x="524" 
d="M97 0v714h90v-634h312v-80h-402z" />
    <glyph glyph-name="M#0" unicode="M" horiz-adv-x="907" 
d="M412 0l-235 626h-4q3 -31 5 -83.5t2 -109.5v-433h-83v714h133l220 -585h4l224 585h132v-714h-89v439q0 52 2.5 103t4.5 83h-4l-238 -625h-74z" />
    <glyph glyph-name="N#0" unicode="N" horiz-adv-x="760" 
d="M663 0h-105l-382 593h-4q2 -35 5 -87t3 -107v-399h-83v714h104l381 -591h4q-1 16 -2.5 48t-3 70t-1.5 70v403h84v-714z" />
    <glyph glyph-name="O#0" unicode="O" horiz-adv-x="781" 
d="M720 358q0 -111 -37.5 -193.5t-110.5 -128.5t-181 -46q-111 0 -184.5 46t-109.5 129t-36 194q0 110 36 192t109.5 128t185.5 46q107 0 180 -45.5t110.5 -128t37.5 -193.5zM156 358q0 -135 57 -212.5t178 -77.5q122 0 178 77.5t56 212.5t-56 211.5t-177 76.5t-178.5 -76.5
t-57.5 -211.5z" />
    <glyph glyph-name="P#0" unicode="P" horiz-adv-x="605" 
d="M286 714q140 0 204 -55t64 -155q0 -59 -26.5 -110.5t-89 -83.5t-169.5 -32h-82v-278h-90v714h189zM278 637h-91v-282h72q102 0 152 33t50 112q0 69 -44 103t-139 34z" />
    <glyph glyph-name="Q#0" unicode="Q" horiz-adv-x="781" 
d="M720 358q0 -131 -52.5 -223t-155.5 -127l171 -178h-129l-138 161q-6 0 -12.5 -0.5t-12.5 -0.5q-111 0 -184.5 46t-109.5 129t-36 194q0 110 36 192t109.5 128t185.5 46q107 0 180 -45.5t110.5 -128t37.5 -193.5zM156 358q0 -135 57 -212.5t178 -77.5q122 0 178 77.5
t56 212.5t-56 211.5t-177 76.5t-178.5 -76.5t-57.5 -211.5z" />
    <glyph glyph-name="R#0" unicode="R" horiz-adv-x="622" 
d="M294 714q133 0 196.5 -50.5t63.5 -152.5q0 -57 -21 -95t-53.5 -60.5t-68.5 -35.5l196 -320h-105l-173 295h-142v-295h-90v714h197zM289 636h-102v-265h107q87 0 127 34.5t40 101.5q0 70 -42 99.5t-130 29.5z" />
    <glyph glyph-name="S#0" unicode="S" horiz-adv-x="549" 
d="M502 191q0 -95 -69 -148t-186 -53q-60 0 -111 9t-85 25v86q36 -16 89.5 -29t110.5 -13q80 0 120.5 31t40.5 84q0 35 -15 59t-51.5 44.5t-101.5 43.5q-91 33 -137.5 81t-46.5 131q0 57 29 97.5t80.5 62.5t118.5 22q59 0 108 -11t89 -29l-28 -77q-37 16 -80.5 27t-90.5 11
q-67 0 -101 -28.5t-34 -75.5q0 -36 15 -60t49 -43t92 -41q63 -23 106.5 -49.5t66 -63.5t22.5 -93z" />
    <glyph glyph-name="T#0" unicode="T" horiz-adv-x="556" 
d="M323 0h-90v635h-223v79h535v-79h-222v-635z" />
    <glyph glyph-name="U#0" unicode="U" horiz-adv-x="731" 
d="M640 714v-462q0 -74 -30 -133.5t-91.5 -94t-156.5 -34.5q-133 0 -202.5 72.5t-69.5 191.5v460h90v-463q0 -87 46.5 -135t140.5 -48q97 0 140.5 51.5t43.5 132.5v462h89z" />
    <glyph glyph-name="V#0" unicode="V" horiz-adv-x="600" 
d="M600 714l-255 -714h-90l-255 714h94l161 -458q16 -44 27 -82.5t18 -73.5q7 35 18 74t27 84l160 456h95z" />
    <glyph glyph-name="W#0" unicode="W" horiz-adv-x="930" 
d="M917 714l-190 -714h-91l-139 468l-16 58t-13 51.5l-7 31.5q-1 -13 -10.5 -55.5t-23.5 -88.5l-135 -465h-91l-189 714h94l111 -436q12 -46 20.5 -89t13.5 -81q5 39 15 85t23 90l126 431h93l131 -434q14 -46 24 -91.5t15 -80.5q5 37 14 80.5t21 90.5l110 435h94z" />
    <glyph glyph-name="X#0" unicode="X" horiz-adv-x="586" 
d="M582 0h-102l-189 310l-192 -310h-95l237 372l-222 342h100l175 -280l176 280h95l-221 -340z" />
    <glyph glyph-name="Y#0" unicode="Y" horiz-adv-x="566" 
d="M283 363l186 351h97l-238 -437v-277h-90v273l-238 441h98z" />
    <glyph glyph-name="Z#0" unicode="Z" horiz-adv-x="572" 
d="M533 0h-495v68l376 566h-364v80h473v-68l-376 -566h386v-80z" />
    <glyph glyph-name="bracketleft#0" unicode="[" horiz-adv-x="329" 
d="M304 -158h-224v872h224v-72h-138v-728h138v-72z" />
    <glyph glyph-name="backslash#0" unicode="\" horiz-adv-x="372" 
d="M96 714l267 -714h-87l-266 714h86z" />
    <glyph glyph-name="bracketright#0" unicode="]" horiz-adv-x="329" 
d="M25 -86h138v728h-138v72h224v-872h-224v72z" />
    <glyph glyph-name="asciicircum#0" unicode="^" horiz-adv-x="572" 
d="M38 267l212 452h50l234 -452h-78l-180 359l-160 -359h-78z" />
    <glyph glyph-name="underscore#0" unicode="_" horiz-adv-x="444" 
d="M446 -154h-448v64h448v-64z" />
    <glyph glyph-name="grave#0" unicode="`" horiz-adv-x="281" 
d="M145 766q11 -22 27.5 -49.5t35 -53.5t33.5 -45v-12h-59q-23 18 -52 46.5t-53.5 57t-36.5 46.5v10h105z" />
    <glyph glyph-name="a#0" unicode="a" horiz-adv-x="561" 
d="M288 545q98 0 145 -43t47 -137v-365h-64l-17 76h-4q-35 -44 -73.5 -65t-106.5 -21q-73 0 -121 38.5t-48 120.5q0 80 63 123.5t194 47.5l91 3v32q0 67 -29 93t-82 26q-42 0 -80 -12.5t-71 -28.5l-27 66q35 19 83 32.5t100 13.5zM393 262l-79 -3q-100 -4 -138.5 -32
t-38.5 -79q0 -45 27.5 -66t70.5 -21q68 0 113 37.5t45 115.5v48z" />
    <glyph glyph-name="b#0" unicode="b" horiz-adv-x="615" 
d="M173 760v-185q0 -34 -1.5 -63.5t-3.5 -46.5h5q23 34 63 57t103 23q100 0 160.5 -69.5t60.5 -207.5t-61 -208t-160 -70q-63 0 -103 23t-63 55h-7l-18 -68h-63v760h88zM324 472q-85 0 -118 -49t-33 -152v-4q0 -99 32.5 -151.5t120.5 -52.5q72 0 107.5 53t35.5 153
q0 203 -145 203z" />
    <glyph glyph-name="c#0" unicode="c" horiz-adv-x="480" 
d="M300 -10q-71 0 -126.5 29t-87 90t-31.5 156q0 99 33 161t89.5 91t128.5 29q41 0 79 -8.5t62 -20.5l-27 -73q-24 9 -56 17t-60 8q-158 0 -158 -203q0 -97 38.5 -148.5t114.5 -51.5q44 0 77.5 9t61.5 22v-78q-27 -14 -59.5 -21.5t-78.5 -7.5z" />
    <glyph glyph-name="d#0" unicode="d" horiz-adv-x="615" 
d="M275 -10q-100 0 -160 69.5t-60 207.5t60.5 208.5t160.5 70.5q62 0 101.5 -23t64.5 -56h6q-1 13 -3.5 38.5t-2.5 40.5v214h88v-760h-71l-13 72h-4q-24 -34 -64 -58t-103 -24zM289 63q85 0 119.5 46.5t34.5 140.5v16q0 100 -33 153.5t-122 53.5q-71 0 -106.5 -56.5
t-35.5 -151.5q0 -96 35.5 -149t107.5 -53z" />
    <glyph glyph-name="e#0" unicode="e" horiz-adv-x="564" 
d="M292 546q69 0 118.5 -30t76 -84.5t26.5 -127.5v-53h-367q2 -91 46.5 -138.5t124.5 -47.5q51 0 90.5 9.5t81.5 27.5v-77q-41 -18 -81 -26.5t-95 -8.5q-76 0 -134.5 31t-91 92.5t-32.5 150.5q0 88 29.5 151t83 97t124.5 34zM291 474q-63 0 -99.5 -40.5t-43.5 -112.5h273
q-1 68 -32 110.5t-98 42.5z" />
    <glyph glyph-name="f#0" unicode="f" horiz-adv-x="344" 
d="M332 468h-135v-468h-88v468h-94v41l94 30v31q0 104 46 149.5t128 45.5q32 0 58.5 -5.5t45.5 -12.5l-23 -69q-16 5 -37 10t-43 5q-44 0 -65.5 -29.5t-21.5 -92.5v-35h135v-68z" />
    <glyph glyph-name="g#0" unicode="g" horiz-adv-x="615" 
d="M275 546q53 0 95.5 -20t72.5 -61h5l12 71h70v-545q0 -115 -58.5 -173t-181.5 -58q-118 0 -193 34v81q79 -42 198 -42q69 0 108.5 40.5t39.5 110.5v21q0 12 1 34.5t2 31.5h-4q-54 -81 -166 -81q-104 0 -162.5 73t-58.5 204q0 128 58.5 203.5t161.5 75.5zM287 472
q-67 0 -104 -53.5t-37 -152.5t36.5 -151.5t106.5 -52.5q81 0 118 43.5t37 140.5v21q0 110 -38 157.5t-119 47.5z" />
    <glyph glyph-name="h#0" unicode="h" horiz-adv-x="618" 
d="M173 760v-223q0 -40 -5 -75h6q26 41 70.5 62t96.5 21q98 0 147 -46.5t49 -149.5v-349h-87v343q0 129 -120 129q-90 0 -123.5 -50.5t-33.5 -144.5v-277h-88v760h88z" />
    <glyph glyph-name="i#0" unicode="i" horiz-adv-x="258" 
d="M130 737q20 0 35.5 -13.5t15.5 -42.5q0 -28 -15.5 -42t-35.5 -14q-22 0 -37 14t-15 42q0 29 15 42.5t37 13.5zM173 536v-536h-88v536h88z" />
    <glyph glyph-name="j#0" unicode="j" horiz-adv-x="258" 
d="M78 681q0 29 15 42.5t37 13.5q20 0 35.5 -13.5t15.5 -42.5q0 -28 -15.5 -42t-35.5 -14q-22 0 -37 14t-15 42zM22 -240q-25 0 -44 3.5t-33 8.5v71q15 -4 31 -7t35 -3q32 0 53 17.5t21 66.5v619h88v-616q0 -75 -36 -117.5t-115 -42.5z" />
    <glyph glyph-name="k#0" unicode="k" horiz-adv-x="534" 
d="M172 760v-397q0 -16 -1.5 -42t-2.5 -45h4q6 8 18 23t24.5 30.5t21.5 25.5l171 181h103l-217 -229l232 -307h-106l-186 250l-61 -53v-197h-87v760h87z" />
    <glyph glyph-name="l#0" unicode="l" horiz-adv-x="258" 
d="M173 0h-88v760h88v-760z" />
    <glyph glyph-name="m#0" unicode="m" horiz-adv-x="935" 
d="M673 546q91 0 136 -46.5t45 -150.5v-349h-87v345q0 127 -109 127q-78 0 -111.5 -45t-33.5 -131v-296h-87v345q0 127 -110 127q-81 0 -112 -50t-31 -144v-278h-88v536h71l13 -73h5q25 42 67.5 62.5t90.5 20.5q126 0 164 -90h5q27 46 73.5 68t98.5 22z" />
    <glyph glyph-name="n#0" unicode="n" horiz-adv-x="618" 
d="M343 546q96 0 145 -46.5t49 -150.5v-349h-87v343q0 129 -120 129q-89 0 -123 -50t-34 -144v-278h-88v536h71l13 -73h5q26 42 72 62.5t97 20.5z" />
    <glyph glyph-name="o#0" unicode="o" horiz-adv-x="605" 
d="M551 269q0 -133 -67.5 -206t-182.5 -73q-71 0 -126.5 32.5t-87.5 95t-32 151.5q0 133 67 205t182 72q73 0 128.5 -32.5t87 -94t31.5 -150.5zM146 269q0 -95 37.5 -150.5t119.5 -55.5q81 0 119 55.5t38 150.5t-38 149t-120 54t-119 -54t-37 -149z" />
    <glyph glyph-name="p#0" unicode="p" horiz-adv-x="615" 
d="M340 546q99 0 159.5 -69t60.5 -208q0 -137 -60.5 -208t-160.5 -71q-62 0 -102.5 23.5t-63.5 54.5h-6q2 -17 4 -43t2 -45v-220h-88v776h72l12 -73h4q24 35 63 59t104 24zM324 472q-82 0 -115.5 -46t-35.5 -140v-17q0 -99 32.5 -152.5t120.5 -53.5q49 0 80.5 27t47 73.5
t15.5 106.5q0 92 -35.5 147t-109.5 55z" />
    <glyph glyph-name="q#0" unicode="q" horiz-adv-x="615" 
d="M442 -240v229q0 18 1 42t4 41h-6q-23 -34 -63.5 -58t-104.5 -24q-97 0 -157.5 69.5t-60.5 207.5t61.5 208.5t159.5 70.5q63 0 103 -24t64 -59h4l13 73h70v-776h-88zM290 63q83 0 117.5 45.5t35.5 139.5v18q0 102 -34 154.5t-121 52.5q-72 0 -107 -56.5t-35 -151.5
t35.5 -148.5t108.5 -53.5z" />
    <glyph glyph-name="r#0" unicode="r" horiz-adv-x="413" 
d="M335 546q15 0 32.5 -1.5t30.5 -4.5l-11 -81q-13 3 -28.5 5t-29.5 2q-41 0 -77 -22.5t-57.5 -63t-21.5 -94.5v-286h-88v536h72l10 -98h4q26 44 67 76t97 32z" />
    <glyph glyph-name="s#0" unicode="s" horiz-adv-x="479" 
d="M434 148q0 -78 -58 -118t-156 -40q-56 0 -96.5 9t-71.5 25v80q32 -16 77.5 -29.5t92.5 -13.5q67 0 97 21.5t30 57.5q0 20 -11 36t-39.5 32t-81.5 36q-52 20 -89 40t-57 48t-20 72q0 68 55.5 105t145.5 37q49 0 91.5 -9.5t79.5 -26.5l-30 -70q-34 14 -71 24t-76 10
q-54 0 -82.5 -17.5t-28.5 -47.5q0 -22 13 -37.5t43.5 -30t81.5 -34.5q51 -19 87 -39t55 -48.5t19 -71.5z" />
    <glyph glyph-name="t#0" unicode="t" horiz-adv-x="361" 
d="M264 62q20 0 41 3.5t34 7.5v-67q-14 -7 -40 -11.5t-50 -4.5q-42 0 -77.5 14.5t-57.5 50.5t-22 101v312h-76v42l77 35l35 114h52v-123h155v-68h-155v-310q0 -49 23.5 -72.5t60.5 -23.5z" />
    <glyph glyph-name="u#0" unicode="u" horiz-adv-x="618" 
d="M533 536v-536h-72l-13 71h-4q-26 -42 -72 -61.5t-98 -19.5q-97 0 -146 46.5t-49 148.5v351h89v-345q0 -128 119 -128q89 0 123.5 50t34.5 144v279h88z" />
    <glyph glyph-name="v#0" unicode="v" horiz-adv-x="508" 
d="M203 0l-203 536h94l114 -316q8 -22 17 -49t16 -51.5t10 -41.5h4q4 17 11.5 42t17 52t16.5 48l114 316h94l-204 -536h-101z" />
    <glyph glyph-name="w#0" unicode="w" horiz-adv-x="786" 
d="M523 1l-92 302q-13 41 -22.5 80.5t-14.5 61.5h-4q-4 -22 -13 -61.5t-23 -81.5l-96 -301h-100l-147 536h91l74 -286q11 -43 21 -87t14 -73h4q4 17 9.5 42t12.5 52.5t14 49.5l95 302h96l92 -302q11 -34 21.5 -74t14.5 -69h4q3 25 13.5 69t22.5 90l75 286h90l-149 -536h-103
z" />
    <glyph glyph-name="x#0" unicode="x" horiz-adv-x="529" 
d="M212 274l-185 262h100l138 -202l137 202h99l-185 -262l195 -274h-100l-146 214l-148 -214h-99z" />
    <glyph glyph-name="y#0" unicode="y" horiz-adv-x="510" 
d="M1 536h94l116 -305q15 -40 27 -76.5t18 -69.5h4q6 25 19 65.5t27 81.5l109 304h95l-231 -610q-28 -76 -72.5 -121t-122.5 -45q-24 0 -42 2.5t-31 5.5v70q11 -2 26.5 -4t32.5 -2q46 0 74.5 26t44.5 69l28 71z" />
    <glyph glyph-name="z#0" unicode="z" horiz-adv-x="470" 
d="M431 0h-392v58l288 410h-271v68h368v-66l-284 -402h291v-68z" />
    <glyph glyph-name="braceleft#0" unicode="{" horiz-adv-x="380" 
d="M348 -158q-92 1 -145 40t-53 119v147q0 51 -31.5 72.5t-90.5 21.5v73q59 1 90.5 22t31.5 71v148q0 80 55 119t143 39v-72q-52 -1 -81.5 -23t-29.5 -71v-144q0 -103 -109 -122v-6q109 -19 109 -122v-147q0 -49 29 -70.5t82 -22.5v-72z" />
    <glyph glyph-name="bar#0" unicode="|" horiz-adv-x="551" 
d="M239 760h73v-1001h-73v1001z" />
    <glyph glyph-name="braceright#0" unicode="}" horiz-adv-x="380" 
d="M32 -158v72q52 2 81.5 23.5t29.5 70.5v145q0 103 109 122v6q-109 19 -109 122v146q0 49 -29 70.5t-82 22.5v72q92 -1 145 -40t53 -119v-146q0 -51 31.5 -72.5t90.5 -21.5v-73q-59 -1 -90.5 -22t-31.5 -71v-149q0 -79 -55 -118.5t-143 -39.5z" />
    <glyph glyph-name="asciitilde#0" unicode="~" horiz-adv-x="572" 
d="M269 319q-36 16 -59.5 21.5t-45.5 5.5q-28 0 -59 -17t-55 -42v78q48 53 120 53q29 0 57.5 -6t74.5 -26q36 -16 59.5 -21.5t44.5 -5.5q29 0 60 17t55 42v-77q-49 -54 -120 -54q-28 0 -57.5 6.5t-74.5 25.5z" />
    <glyph glyph-name="uni00A0#0" unicode="&#xa0;" horiz-adv-x="260" 
 />
    <glyph glyph-name="exclamdown#0" unicode="&#xa1;" horiz-adv-x="269" 
d="M196 478q0 -37 -18 -52t-44 -15q-25 0 -43.5 15t-18.5 52q0 36 18.5 52t43.5 16q26 0 44 -16t18 -52zM104 330h58l25 -512h-108z" />
    <glyph glyph-name="cent#0" unicode="&#xa2;" horiz-adv-x="572" 
d="M353 724v-80q38 -1 72.5 -9.5t59.5 -19.5l-26 -73q-26 10 -59 18t-60 8q-82 0 -120.5 -50.5t-38.5 -154.5t39.5 -151.5t115.5 -47.5q44 0 76.5 8.5t63.5 21.5v-77q-27 -13 -56 -20.5t-68 -9.5v-97h-67v100q-59 9 -102.5 39t-67.5 87t-24 146q0 91 24 149t68 89t102 40v84
h68z" />
    <glyph glyph-name="sterling#0" unicode="&#xa3;" horiz-adv-x="572" 
d="M334 723q55 0 99 -12t78 -29l-31 -70q-30 14 -66.5 26t-77.5 12q-57 0 -87 -29.5t-30 -95.5v-139h204v-66h-204v-104q0 -61 -21 -90.5t-47 -45.5h384v-80h-503v74q43 11 71 43t28 98v105h-96v66h96v148q0 89 55.5 139t147.5 50z" />
    <glyph glyph-name="currency#0" unicode="&#xa4;" horiz-adv-x="572" 
d="M90 353q0 30 9.5 58.5t25.5 51.5l-66 68l49 47l66 -64q23 17 52 26t60 9t58.5 -9t51.5 -26l67 64l48 -47l-64 -67q15 -23 25 -51.5t10 -59.5q0 -63 -35 -112l63 -66l-47 -47l-67 64q-23 -16 -51 -25t-59 -9q-64 0 -112 35l-66 -64l-48 47l65 66q-16 23 -25.5 51.5
t-9.5 59.5zM157 353q0 -36 17 -65t46.5 -46.5t65.5 -17.5q37 0 66 17.5t46.5 46.5t17.5 65q0 37 -17.5 66.5t-46.5 47t-66 17.5q-36 0 -65.5 -17.5t-46.5 -47t-17 -66.5z" />
    <glyph glyph-name="yen#0" unicode="&#xa5;" horiz-adv-x="572" 
d="M285 365l179 349h92l-201 -375h124v-64h-151v-82h151v-64h-151v-129h-86v129h-151v64h151v82h-151v64h122l-199 375h93z" />
    <glyph glyph-name="brokenbar#0" unicode="&#xa6;" horiz-adv-x="551" 
d="M239 760h73v-381h-73v381zM239 140h73v-381h-73v381z" />
    <glyph glyph-name="section#0" unicode="&#xa7;" horiz-adv-x="513" 
d="M67 395q0 50 24 80.5t55 45.5q-36 20 -56 47.5t-20 67.5q0 60 51 94.5t146 34.5q56 0 95 -9.5t76 -24.5l-27 -67q-34 14 -68 23.5t-82 9.5q-60 0 -84.5 -15.5t-24.5 -43.5t28 -47.5t104 -47.5q77 -28 120 -64t43 -96q0 -51 -23 -83.5t-52 -49.5q35 -19 54.5 -45.5
t19.5 -64.5q0 -69 -57.5 -107t-160.5 -38q-55 0 -96 8.5t-73 24.5v75q32 -15 79 -28t94 -13q74 0 102 21.5t28 49.5q0 19 -9.5 33t-37 29.5t-82.5 35.5q-52 20 -89.5 41t-57 50t-19.5 73zM142 405q0 -37 31.5 -62.5t111.5 -55.5l22 -8q23 14 43.5 35.5t20.5 55.5
q0 25 -13.5 45t-47.5 38.5t-96 37.5q-28 -7 -50 -30t-22 -56z" />
    <glyph glyph-name="dieresis#0" unicode="&#xa8;" horiz-adv-x="580" 
d="M149 681q0 26 14 37.5t33 11.5t33 -11.5t14 -37.5q0 -25 -14 -37.5t-33 -12.5t-33 12.5t-14 37.5zM337 681q0 26 13.5 37.5t32.5 11.5t33 -11.5t14 -37.5q0 -25 -14 -37.5t-33 -12.5t-32.5 12.5t-13.5 37.5z" />
    <glyph glyph-name="copyright#0" unicode="&#xa9;" horiz-adv-x="832" 
d="M416 -10q-80 0 -147 27t-116.5 76.5t-76.5 116.5t-27 147t27 147t76.5 116.5t116.5 76.5t147 27q76 0 142.5 -27t117 -76.5t79 -116.5t28.5 -147t-27 -147t-76.5 -116.5t-116.5 -76.5t-147 -27zM416 43q64 0 120 23t99 65.5t67 99.5t24 126q0 65 -23 122t-64.5 100
t-98 67.5t-124.5 24.5q-90 0 -160.5 -40.5t-110.5 -111t-40 -162.5q0 -65 23 -122t64.5 -100t98.5 -67.5t125 -24.5zM431 133q-99 0 -148 61.5t-49 162.5q0 65 23 115.5t68 79t110 28.5t123 -30l-29 -61q-50 26 -93 26q-59 0 -91.5 -42t-32.5 -116q0 -76 28.5 -117.5
t94.5 -41.5q23 0 51.5 6.5t53.5 16.5v-64q-24 -10 -49 -17t-60 -7z" />
    <glyph glyph-name="ordfeminine#0" unicode="&#xaa;" horiz-adv-x="357" 
d="M177 722q65 0 98 -27t33 -86v-220h-47l-12 42q-20 -21 -48 -34.5t-66 -13.5q-47 0 -75 24.5t-28 74.5q0 99 158 105l56 2v22q0 33 -21 46t-50 13q-28 0 -53 -7.5t-48 -18.5l-22 49q26 13 58.5 21t66.5 8zM246 544l-48 -2q-60 -2 -81 -17.5t-21 -42.5q0 -25 14.5 -36.5
t39.5 -11.5q51 0 73.5 23.5t22.5 63.5v23z" />
    <glyph glyph-name="guillemotleft#0" unicode="&#xab;" horiz-adv-x="509" 
d="M40 270l168 201l63 -36l-140 -171l140 -171l-63 -37l-168 201v13zM238 270l170 201l62 -36l-140 -171l140 -171l-62 -37l-170 201v13z" />
    <glyph glyph-name="logicalnot#0" unicode="&#xac;" horiz-adv-x="572" 
d="M520 388v-260h-71v189h-399v71h470z" />
    <glyph glyph-name="uni00AD#0" unicode="&#xad;" horiz-adv-x="322" 
d="M40 229v78h242v-78h-242z" />
    <glyph glyph-name="registered#0" unicode="&#xae;" horiz-adv-x="832" 
d="M416 -10q-80 0 -147 27t-116.5 76.5t-76.5 116.5t-27 147t27 147t76.5 116.5t116.5 76.5t147 27q76 0 142.5 -27t117 -76.5t79 -116.5t28.5 -147t-27 -147t-76.5 -116.5t-116.5 -76.5t-147 -27zM416 43q64 0 120 23t99 65.5t67 99.5t24 126q0 65 -23 122t-64.5 100
t-98 67.5t-124.5 24.5q-90 0 -160.5 -40.5t-110.5 -111t-40 -162.5q0 -65 23 -122t64.5 -100t98.5 -67.5t125 -24.5zM279 138v437h128q82 0 120 -32t38 -97q0 -47 -24 -74.5t-54 -39.5l116 -194h-86l-100 173h-62v-173h-76zM355 373h50q39 0 61 20t22 51q0 35 -20 51t-64 16
h-49v-138z" />
    <glyph glyph-name="overscore#0" unicode="&#xaf;" horiz-adv-x="500" 
d="M503 760h-506v66h506v-66z" />
    <glyph glyph-name="degree#0" unicode="&#xb0;" horiz-adv-x="428" 
d="M214 417q-72 0 -115.5 42.5t-43.5 110.5t43 111t116 43q71 0 115 -43t44 -111t-44 -110.5t-115 -42.5zM215 476q48 0 70.5 26t22.5 68q0 44 -23.5 70t-69.5 26q-49 0 -72 -26t-23 -70q0 -42 23 -68t72 -26z" />
    <glyph glyph-name="plusminus#0" unicode="&#xb1;" horiz-adv-x="572" 
d="M50 0v71h471v-71h-471zM321 391h199v-71h-199v-206h-72v206h-199v71h199v207h72v-207z" />
    <glyph glyph-name="uni00B2#0" unicode="&#xb2;" horiz-adv-x="350" 
d="M306 416h-282v54l115 112q41 39 61.5 63.5t28 44t7.5 41.5q0 32 -18.5 48t-48.5 16t-54.5 -11.5t-50.5 -31.5l-35 46q29 25 63.5 40t77.5 15q64 0 100.5 -31.5t36.5 -86.5q0 -49 -29.5 -88t-85.5 -92l-81 -77h195v-62z" />
    <glyph glyph-name="uni00B3#0" unicode="&#xb3;" horiz-adv-x="350" 
d="M165 853q71 0 107 -31t36 -79q0 -40 -21.5 -66t-51.5 -36v-3q39 -7 62.5 -32.5t23.5 -66.5q0 -58 -42 -94.5t-131 -36.5q-37 0 -69 6.5t-62 21.5v63q70 -34 132 -34q52 0 76 20.5t24 55.5q0 36 -29 52.5t-81 16.5h-57v55h57q50 0 73.5 19.5t23.5 50.5q0 32 -20.5 46.5
t-49.5 14.5q-31 0 -57.5 -10.5t-53.5 -27.5l-36 46q31 23 65.5 36t80.5 13z" />
    <glyph glyph-name="acute#0" unicode="&#xb4;" horiz-adv-x="281" 
d="M241 766v-10q-12 -18 -37 -46.5t-53.5 -57t-52.5 -46.5h-58v12q15 19 32.5 45t34.5 53.5t28 49.5h106z" />
    <glyph glyph-name="uni00B5#0" unicode="&#xb5;" horiz-adv-x="623" 
d="M538 536v-536h-71l-14 72h-5q-25 -40 -65 -61t-96 -21q-39 0 -67 12.5t-48 32.5h-4q2 -18 3.5 -48t1.5 -71v-156h-88v776h88v-346q0 -127 120 -127q89 0 123 50t34 144v279h88z" />
    <glyph glyph-name="paragraph#0" unicode="&#xb6;" horiz-adv-x="655" 
d="M549 -127h-58v831h-102v-831h-58v400q-15 -4 -34.5 -6.5t-36.5 -2.5q-62 0 -108 23t-71.5 77t-25.5 145q0 96 27.5 150.5t77.5 77.5t115 23h274v-887z" />
    <glyph glyph-name="periodcentered#0" unicode="&#xb7;" horiz-adv-x="268" 
d="M72 353q0 37 18 52t43 15q26 0 44.5 -15t18.5 -52q0 -36 -18.5 -52t-44.5 -16q-25 0 -43 16t-18 52z" />
    <glyph glyph-name="cedilla#0" unicode="&#xb8;" horiz-adv-x="225" 
d="M212 -139q0 -48 -37 -74.5t-111 -26.5q-32 0 -50 5v55q9 -2 24 -3.5t29 -1.5q36 0 55 9.5t19 34.5q0 26 -26.5 38t-64.5 17l43 86h58l-26 -53q36 -8 61.5 -28t25.5 -58z" />
    <glyph glyph-name="uni00B9#0" unicode="&#xb9;" horiz-adv-x="350" 
d="M240 844v-428h-71v276q0 26 1.5 47t2.5 42q-10 -9 -22 -19.5t-25 -19.5l-54 -39l-35 49l130 92h73z" />
    <glyph glyph-name="ordmasculine#0" unicode="&#xba;" horiz-adv-x="376" 
d="M345 553q0 -81 -43 -125.5t-115 -44.5q-67 0 -111 43.5t-44 126.5q0 82 42 125.5t115 43.5q71 0 113.5 -43t42.5 -126zM95 553q0 -58 22 -87.5t71 -29.5t71 29.5t22 87.5q0 59 -22 87.5t-71 28.5t-71 -28.5t-22 -87.5z" />
    <glyph glyph-name="guillemotright#0" unicode="&#xbb;" horiz-adv-x="509" 
d="M469 257l-170 -201l-62 37l140 171l-140 171l62 36l170 -201v-13zM270 257l-169 -201l-62 37l140 171l-140 171l62 36l169 -201v-13z" />
    <glyph glyph-name="onequarter#0" unicode="&#xbc;" horiz-adv-x="745" 
d="M126 0l436 714h75l-436 -714h-75zM166 286v276q0 26 1.5 47t2.5 42q-10 -9 -22 -19.5t-25 -19.5l-54 -39l-35 49l130 92h73v-428h-71zM600 0v96h-195v52l197 283h73v-275h61v-60h-61v-96h-75zM475 156h125v93q0 21 1 49t2 52q-5 -11 -21 -35.5t-27 -41.5z" />
    <glyph glyph-name="onehalf#0" unicode="&#xbd;" horiz-adv-x="771" 
d="M96 0l436 714h75l-436 -714h-75zM154 286v276q0 26 1.5 47t2.5 42q-10 -9 -22 -19.5t-25 -19.5l-54 -39l-35 49l130 92h73v-428h-71zM445 0v54l115 112q41 39 61.5 63.5t28 44t7.5 41.5q0 32 -18.5 48t-48.5 16t-54.5 -11.5t-50.5 -31.5l-35 46q29 25 63.5 40t77.5 15
q64 0 100.5 -31.5t36.5 -86.5q0 -49 -29.5 -88t-85.5 -92l-81 -77h195v-62h-282z" />
    <glyph glyph-name="threequarters#0" unicode="&#xbe;" horiz-adv-x="781" 
d="M146 278q-37 0 -69 6.5t-62 21.5v63q70 -34 132 -34q52 0 76 20.5t24 55.5q0 36 -29 52.5t-81 16.5h-57v55h57q50 0 73.5 19.5t23.5 50.5q0 32 -20.5 46.5t-49.5 14.5q-31 0 -57.5 -10.5t-53.5 -27.5l-36 46q31 23 65.5 36t80.5 13q71 0 107 -31t36 -79q0 -40 -21.5 -66
t-51.5 -36v-3q39 -7 62.5 -32.5t23.5 -66.5q0 -58 -42 -94.5t-131 -36.5zM170 0l436 714h75l-436 -714h-75zM636 0v96h-195v52l197 283h73v-275h61v-60h-61v-96h-75zM511 156h125v93q0 21 1 49t2 52q-5 -11 -21 -35.5t-27 -41.5z" />
    <glyph glyph-name="questiondown#0" unicode="&#xbf;" horiz-adv-x="434" 
d="M292 331v-27q0 -38 -7.5 -65.5t-26 -52.5t-50.5 -52q-39 -33 -60.5 -55t-30.5 -43t-9 -51q0 -48 31 -74t90 -26q49 0 87 12.5t73 29.5l31 -70q-40 -21 -88.5 -35t-108.5 -14q-95 0 -147 47t-52 128q0 45 14.5 76.5t41 58t62.5 56.5q33 28 50.5 49t23.5 41.5t6 49.5v17h70
zM315 478q0 -37 -17.5 -52t-44.5 -15q-25 0 -43 15t-18 52q0 36 18 52t43 16q27 0 44.5 -16t17.5 -52z" />
    <glyph glyph-name="Agrave#0" unicode="&#xc0;" horiz-adv-x="639" 
d="M545 0l-86 221h-283l-85 -221h-91l279 717h81l278 -717h-93zM432 301l-80 216q-3 8 -10 29t-13.5 43.5t-10.5 34.5q-7 -31 -16 -60.5t-15 -46.5l-81 -216h226zM292 944q11 -22 27.5 -49.5t35 -53.5t33.5 -45v-12h-59q-23 18 -52 46.5t-53.5 57t-36.5 46.5v10h105z" />
    <glyph glyph-name="Aacute#0" unicode="&#xc1;" horiz-adv-x="639" 
d="M545 0l-86 221h-283l-85 -221h-91l279 717h81l278 -717h-93zM432 301l-80 216q-3 8 -10 29t-13.5 43.5t-10.5 34.5q-7 -31 -16 -60.5t-15 -46.5l-81 -216h226zM459 944v-10q-12 -18 -37 -46.5t-53.5 -57t-52.5 -46.5h-58v12q15 19 32.5 45t34.5 53.5t28 49.5h106z" />
    <glyph glyph-name="Acircumflex#0" unicode="&#xc2;" horiz-adv-x="639" 
d="M545 0l-86 221h-283l-85 -221h-91l279 717h81l278 -717h-93zM432 301l-80 216q-3 8 -10 29t-13.5 43.5t-10.5 34.5q-7 -31 -16 -60.5t-15 -46.5l-81 -216h226zM364 944q12 -22 34.5 -49.5t47 -54t43.5 -45.5v-11h-62q-26 16 -54 39.5t-55 50.5q-27 -27 -54 -50t-53 -40
h-60v11q19 20 42.5 46t45.5 53.5t35 49.5h90z" />
    <glyph glyph-name="Atilde#0" unicode="&#xc3;" horiz-adv-x="639" 
d="M545 0l-86 221h-283l-85 -221h-91l279 717h81l278 -717h-93zM432 301l-80 216q-3 8 -10 29t-13.5 43.5t-10.5 34.5q-7 -31 -16 -60.5t-15 -46.5l-81 -216h226zM134 784q6 59 34.5 93.5t75.5 34.5q30 0 56.5 -14.5t50.5 -28.5t45 -14q23 0 35.5 14.5t19.5 43.5h50
q-6 -58 -34 -93t-75 -35q-28 0 -54.5 14t-51 28.5t-46.5 14.5q-24 0 -36 -14.5t-19 -43.5h-51z" />
    <glyph glyph-name="Adieresis#0" unicode="&#xc4;" horiz-adv-x="639" 
d="M545 0l-86 221h-283l-85 -221h-91l279 717h81l278 -717h-93zM432 301l-80 216q-3 8 -10 29t-13.5 43.5t-10.5 34.5q-7 -31 -16 -60.5t-15 -46.5l-81 -216h226zM177 859q0 26 14 37.5t33 11.5t33 -11.5t14 -37.5q0 -25 -14 -37.5t-33 -12.5t-33 12.5t-14 37.5zM365 859
q0 26 13.5 37.5t32.5 11.5t33 -11.5t14 -37.5q0 -25 -14 -37.5t-33 -12.5t-32.5 12.5t-13.5 37.5z" />
    <glyph glyph-name="Aring#0" unicode="&#xc5;" horiz-adv-x="639" 
d="M545 0l-86 221h-283l-85 -221h-91l279 717h81l278 -717h-93zM432 301l-80 216q-3 8 -10 29t-13.5 43.5t-10.5 34.5q-7 -31 -16 -60.5t-15 -46.5l-81 -216h226zM317 667q-49 0 -79 28t-30 78t30 77.5t79 27.5q47 0 79 -27.5t32 -76.5q0 -51 -31.5 -79t-79.5 -28zM317 717
q25 0 40.5 15t15.5 41t-16 41t-40 15t-40 -15t-16 -41t14.5 -41t41.5 -15z" />
    <glyph glyph-name="AE#0" unicode="&#xc6;" horiz-adv-x="881" 
d="M821 0h-372v221h-250l-107 -221h-93l339 714h483v-79h-282v-223h263v-78h-263v-255h282v-79zM234 301h215v333h-58z" />
    <glyph glyph-name="Ccedilla#0" unicode="&#xc7;" horiz-adv-x="632" 
d="M403 645q-115 0 -181 -77t-66 -211q0 -133 61.5 -210.5t184.5 -77.5q47 0 89 8t82 20v-78q-40 -15 -82.5 -22t-101.5 -7q-109 0 -182 45t-109.5 128t-36.5 195q0 108 39.5 190.5t116.5 129t187 46.5q113 0 197 -42l-36 -76q-33 15 -73.5 27t-88.5 12zM473 -139
q0 -48 -37 -74.5t-111 -26.5q-32 0 -50 5v55q9 -2 24 -3.5t29 -1.5q36 0 55 9.5t19 34.5q0 26 -26.5 38t-64.5 17l43 86h58l-26 -53q36 -8 61.5 -28t25.5 -58z" />
    <glyph glyph-name="Egrave#0" unicode="&#xc8;" horiz-adv-x="556" 
d="M496 0h-399v714h399v-79h-309v-223h291v-78h-291v-255h309v-79zM279 944q11 -22 27.5 -49.5t35 -53.5t33.5 -45v-12h-59q-23 18 -52 46.5t-53.5 57t-36.5 46.5v10h105z" />
    <glyph glyph-name="Eacute#0" unicode="&#xc9;" horiz-adv-x="556" 
d="M496 0h-399v714h399v-79h-309v-223h291v-78h-291v-255h309v-79zM446 944v-10q-12 -18 -37 -46.5t-53.5 -57t-52.5 -46.5h-58v12q15 19 32.5 45t34.5 53.5t28 49.5h106z" />
    <glyph glyph-name="Ecircumflex#0" unicode="&#xca;" horiz-adv-x="556" 
d="M496 0h-399v714h399v-79h-309v-223h291v-78h-291v-255h309v-79zM351 944q12 -22 34.5 -49.5t47 -54t43.5 -45.5v-11h-62q-26 16 -54 39.5t-55 50.5q-27 -27 -54 -50t-53 -40h-60v11q19 20 42.5 46t45.5 53.5t35 49.5h90z" />
    <glyph glyph-name="Edieresis#0" unicode="&#xcb;" horiz-adv-x="556" 
d="M496 0h-399v714h399v-79h-309v-223h291v-78h-291v-255h309v-79zM164 859q0 26 14 37.5t33 11.5t33 -11.5t14 -37.5q0 -25 -14 -37.5t-33 -12.5t-33 12.5t-14 37.5zM352 859q0 26 13.5 37.5t32.5 11.5t33 -11.5t14 -37.5q0 -25 -14 -37.5t-33 -12.5t-32.5 12.5t-13.5 37.5
z" />
    <glyph glyph-name="Igrave#0" unicode="&#xcc;" horiz-adv-x="285" 
d="M97 0v714h90v-714h-90zM98 944q11 -22 27.5 -49.5t35 -53.5t33.5 -45v-12h-59q-23 18 -52 46.5t-53.5 57t-36.5 46.5v10h105z" />
    <glyph glyph-name="Iacute#0" unicode="&#xcd;" horiz-adv-x="285" 
d="M97 0v714h90v-714h-90zM291 944v-10q-12 -18 -37 -46.5t-53.5 -57t-52.5 -46.5h-58v12q15 19 32.5 45t34.5 53.5t28 49.5h106z" />
    <glyph glyph-name="Icircumflex#0" unicode="&#xce;" horiz-adv-x="285" 
d="M97 0v714h90v-714h-90zM187 944q12 -22 34.5 -49.5t47 -54t43.5 -45.5v-11h-62q-26 16 -54 39.5t-55 50.5q-27 -27 -54 -50t-53 -40h-60v11q19 20 42.5 46t45.5 53.5t35 49.5h90z" />
    <glyph glyph-name="Idieresis#0" unicode="&#xcf;" horiz-adv-x="285" 
d="M97 0v714h90v-714h-90zM3 859q0 26 14 37.5t33 11.5t33 -11.5t14 -37.5q0 -25 -14 -37.5t-33 -12.5t-33 12.5t-14 37.5zM191 859q0 26 13.5 37.5t32.5 11.5t33 -11.5t14 -37.5q0 -25 -14 -37.5t-33 -12.5t-32.5 12.5t-13.5 37.5z" />
    <glyph glyph-name="Eth#0" unicode="&#xd0;" horiz-adv-x="730" 
d="M317 714q107 0 186 -40t122.5 -117.5t43.5 -192.5q0 -181 -98.5 -272.5t-275.5 -91.5h-191v314h-74v78h74v322h213zM304 637h-110v-245h178v-78h-178v-237h90q290 0 290 284q0 143 -71 209.5t-199 66.5z" />
    <glyph glyph-name="Ntilde#0" unicode="&#xd1;" horiz-adv-x="760" 
d="M663 0h-105l-382 593h-4q2 -35 5 -87t3 -107v-399h-83v714h104l381 -591h4q-1 16 -2.5 48t-3 70t-1.5 70v403h84v-714zM196 784q6 59 34.5 93.5t75.5 34.5q30 0 56.5 -14.5t50.5 -28.5t45 -14q23 0 35.5 14.5t19.5 43.5h50q-6 -58 -34 -93t-75 -35q-28 0 -54.5 14
t-51 28.5t-46.5 14.5q-24 0 -36 -14.5t-19 -43.5h-51z" />
    <glyph glyph-name="Ograve#0" unicode="&#xd2;" horiz-adv-x="781" 
d="M720 358q0 -111 -37.5 -193.5t-110.5 -128.5t-181 -46q-111 0 -184.5 46t-109.5 129t-36 194q0 110 36 192t109.5 128t185.5 46q107 0 180 -45.5t110.5 -128t37.5 -193.5zM156 358q0 -135 57 -212.5t178 -77.5q122 0 178 77.5t56 212.5t-56 211.5t-177 76.5t-178.5 -76.5
t-57.5 -211.5zM365 944q11 -22 27.5 -49.5t35 -53.5t33.5 -45v-12h-59q-23 18 -52 46.5t-53.5 57t-36.5 46.5v10h105z" />
    <glyph glyph-name="Oacute#0" unicode="&#xd3;" horiz-adv-x="781" 
d="M720 358q0 -111 -37.5 -193.5t-110.5 -128.5t-181 -46q-111 0 -184.5 46t-109.5 129t-36 194q0 110 36 192t109.5 128t185.5 46q107 0 180 -45.5t110.5 -128t37.5 -193.5zM156 358q0 -135 57 -212.5t178 -77.5q122 0 178 77.5t56 212.5t-56 211.5t-177 76.5t-178.5 -76.5
t-57.5 -211.5zM532 944v-10q-12 -18 -37 -46.5t-53.5 -57t-52.5 -46.5h-58v12q15 19 32.5 45t34.5 53.5t28 49.5h106z" />
    <glyph glyph-name="Ocircumflex#0" unicode="&#xd4;" horiz-adv-x="781" 
d="M720 358q0 -111 -37.5 -193.5t-110.5 -128.5t-181 -46q-111 0 -184.5 46t-109.5 129t-36 194q0 110 36 192t109.5 128t185.5 46q107 0 180 -45.5t110.5 -128t37.5 -193.5zM156 358q0 -135 57 -212.5t178 -77.5q122 0 178 77.5t56 212.5t-56 211.5t-177 76.5t-178.5 -76.5
t-57.5 -211.5zM437 944q12 -22 34.5 -49.5t47 -54t43.5 -45.5v-11h-62q-26 16 -54 39.5t-55 50.5q-27 -27 -54 -50t-53 -40h-60v11q19 20 42.5 46t45.5 53.5t35 49.5h90z" />
    <glyph glyph-name="Otilde#0" unicode="&#xd5;" horiz-adv-x="781" 
d="M720 358q0 -111 -37.5 -193.5t-110.5 -128.5t-181 -46q-111 0 -184.5 46t-109.5 129t-36 194q0 110 36 192t109.5 128t185.5 46q107 0 180 -45.5t110.5 -128t37.5 -193.5zM156 358q0 -135 57 -212.5t178 -77.5q122 0 178 77.5t56 212.5t-56 211.5t-177 76.5t-178.5 -76.5
t-57.5 -211.5zM207 784q6 59 34.5 93.5t75.5 34.5q30 0 56.5 -14.5t50.5 -28.5t45 -14q23 0 35.5 14.5t19.5 43.5h50q-6 -58 -34 -93t-75 -35q-28 0 -54.5 14t-51 28.5t-46.5 14.5q-24 0 -36 -14.5t-19 -43.5h-51z" />
    <glyph glyph-name="Odieresis#0" unicode="&#xd6;" horiz-adv-x="781" 
d="M720 358q0 -111 -37.5 -193.5t-110.5 -128.5t-181 -46q-111 0 -184.5 46t-109.5 129t-36 194q0 110 36 192t109.5 128t185.5 46q107 0 180 -45.5t110.5 -128t37.5 -193.5zM156 358q0 -135 57 -212.5t178 -77.5q122 0 178 77.5t56 212.5t-56 211.5t-177 76.5t-178.5 -76.5
t-57.5 -211.5zM250 859q0 26 14 37.5t33 11.5t33 -11.5t14 -37.5q0 -25 -14 -37.5t-33 -12.5t-33 12.5t-14 37.5zM438 859q0 26 13.5 37.5t32.5 11.5t33 -11.5t14 -37.5q0 -25 -14 -37.5t-33 -12.5t-32.5 12.5t-13.5 37.5z" />
    <glyph glyph-name="multiply#0" unicode="&#xd7;" horiz-adv-x="572" 
d="M456 574l50 -51l-170 -170l169 -170l-50 -51l-171 169l-167 -169l-52 51l169 170l-170 169l52 52l169 -171z" />
    <glyph glyph-name="Oslash#0" unicode="&#xd8;" horiz-adv-x="781" 
d="M720 358q0 -111 -37.5 -193.5t-110.5 -128.5t-181 -46q-112 0 -185 47l-48 -68l-61 40l52 74q-44 49 -66 119t-22 157q0 110 36 192t109.5 128t185.5 46q52 0 96.5 -12t81.5 -33l46 66l61 -41l-51 -71q94 -99 94 -276zM156 358q0 -61 11.5 -111t35.5 -87l319 451
q-52 35 -130 35q-121 0 -178.5 -76.5t-57.5 -211.5zM625 358q0 129 -51 202l-320 -454q26 -18 60.5 -28t76.5 -10q122 0 178 77.5t56 212.5z" />
    <glyph glyph-name="Ugrave#0" unicode="&#xd9;" horiz-adv-x="731" 
d="M640 714v-462q0 -74 -30 -133.5t-91.5 -94t-156.5 -34.5q-133 0 -202.5 72.5t-69.5 191.5v460h90v-463q0 -87 46.5 -135t140.5 -48q97 0 140.5 51.5t43.5 132.5v462h89zM340 944q11 -22 27.5 -49.5t35 -53.5t33.5 -45v-12h-59q-23 18 -52 46.5t-53.5 57t-36.5 46.5v10
h105z" />
    <glyph glyph-name="Uacute#0" unicode="&#xda;" horiz-adv-x="731" 
d="M640 714v-462q0 -74 -30 -133.5t-91.5 -94t-156.5 -34.5q-133 0 -202.5 72.5t-69.5 191.5v460h90v-463q0 -87 46.5 -135t140.5 -48q97 0 140.5 51.5t43.5 132.5v462h89zM507 944v-10q-12 -18 -37 -46.5t-53.5 -57t-52.5 -46.5h-58v12q15 19 32.5 45t34.5 53.5t28 49.5
h106z" />
    <glyph glyph-name="Ucircumflex#0" unicode="&#xdb;" horiz-adv-x="731" 
d="M640 714v-462q0 -74 -30 -133.5t-91.5 -94t-156.5 -34.5q-133 0 -202.5 72.5t-69.5 191.5v460h90v-463q0 -87 46.5 -135t140.5 -48q97 0 140.5 51.5t43.5 132.5v462h89zM412 944q12 -22 34.5 -49.5t47 -54t43.5 -45.5v-11h-62q-26 16 -54 39.5t-55 50.5q-27 -27 -54 -50
t-53 -40h-60v11q19 20 42.5 46t45.5 53.5t35 49.5h90z" />
    <glyph glyph-name="Udieresis#0" unicode="&#xdc;" horiz-adv-x="731" 
d="M640 714v-462q0 -74 -30 -133.5t-91.5 -94t-156.5 -34.5q-133 0 -202.5 72.5t-69.5 191.5v460h90v-463q0 -87 46.5 -135t140.5 -48q97 0 140.5 51.5t43.5 132.5v462h89zM225 859q0 26 14 37.5t33 11.5t33 -11.5t14 -37.5q0 -25 -14 -37.5t-33 -12.5t-33 12.5t-14 37.5z
M413 859q0 26 13.5 37.5t32.5 11.5t33 -11.5t14 -37.5q0 -25 -14 -37.5t-33 -12.5t-32.5 12.5t-13.5 37.5z" />
    <glyph glyph-name="Yacute#0" unicode="&#xdd;" horiz-adv-x="566" 
d="M283 363l186 351h97l-238 -437v-277h-90v273l-238 441h98zM424 944v-10q-12 -18 -37 -46.5t-53.5 -57t-52.5 -46.5h-58v12q15 19 32.5 45t34.5 53.5t28 49.5h106z" />
    <glyph glyph-name="Thorn#0" unicode="&#xde;" horiz-adv-x="605" 
d="M554 382q0 -60 -26 -111.5t-88.5 -83.5t-171.5 -32h-81v-155h-90v714h90v-124h96q145 0 208 -55t63 -153zM187 231h72q105 0 153.5 33.5t48.5 112.5q0 69 -43.5 102.5t-141.5 33.5h-89v-282z" />
    <glyph glyph-name="germandbls#0" unicode="&#xdf;" horiz-adv-x="631" 
d="M522 617q0 -34 -14 -59.5t-35 -45t-42 -35.5t-35 -31.5t-14 -33.5q0 -13 6.5 -24t25.5 -25.5t56 -39.5q54 -36 85 -73.5t31 -96.5q0 -85 -51.5 -124t-134.5 -39q-47 0 -83 9t-62 25v79q26 -16 64 -29t78 -13q55 0 79 23t24 63q0 36 -20.5 61t-73.5 59q-63 41 -86 70.5
t-23 69.5q0 31 13.5 53t34 38.5t41 32.5t34 35t13.5 46q0 42 -35.5 61t-91.5 19q-35 0 -65.5 -9.5t-49 -32.5t-18.5 -66v-584h-88v584q0 67 29 106.5t79 57t113 17.5q97 0 156.5 -37t59.5 -111z" />
    <glyph glyph-name="agrave#0" unicode="&#xe0;" horiz-adv-x="561" 
d="M288 545q98 0 145 -43t47 -137v-365h-64l-17 76h-4q-35 -44 -73.5 -65t-106.5 -21q-73 0 -121 38.5t-48 120.5q0 80 63 123.5t194 47.5l91 3v32q0 67 -29 93t-82 26q-42 0 -80 -12.5t-71 -28.5l-27 66q35 19 83 32.5t100 13.5zM393 262l-79 -3q-100 -4 -138.5 -32
t-38.5 -79q0 -45 27.5 -66t70.5 -21q68 0 113 37.5t45 115.5v48zM255 766q11 -22 27.5 -49.5t35 -53.5t33.5 -45v-12h-59q-23 18 -52 46.5t-53.5 57t-36.5 46.5v10h105z" />
    <glyph glyph-name="aacute#0" unicode="&#xe1;" horiz-adv-x="561" 
d="M288 545q98 0 145 -43t47 -137v-365h-64l-17 76h-4q-35 -44 -73.5 -65t-106.5 -21q-73 0 -121 38.5t-48 120.5q0 80 63 123.5t194 47.5l91 3v32q0 67 -29 93t-82 26q-42 0 -80 -12.5t-71 -28.5l-27 66q35 19 83 32.5t100 13.5zM393 262l-79 -3q-100 -4 -138.5 -32
t-38.5 -79q0 -45 27.5 -66t70.5 -21q68 0 113 37.5t45 115.5v48zM422 766v-10q-12 -18 -37 -46.5t-53.5 -57t-52.5 -46.5h-58v12q15 19 32.5 45t34.5 53.5t28 49.5h106z" />
    <glyph glyph-name="acircumflex#0" unicode="&#xe2;" horiz-adv-x="561" 
d="M288 545q98 0 145 -43t47 -137v-365h-64l-17 76h-4q-35 -44 -73.5 -65t-106.5 -21q-73 0 -121 38.5t-48 120.5q0 80 63 123.5t194 47.5l91 3v32q0 67 -29 93t-82 26q-42 0 -80 -12.5t-71 -28.5l-27 66q35 19 83 32.5t100 13.5zM393 262l-79 -3q-100 -4 -138.5 -32
t-38.5 -79q0 -45 27.5 -66t70.5 -21q68 0 113 37.5t45 115.5v48zM327 766q12 -22 34.5 -49.5t47 -54t43.5 -45.5v-11h-62q-26 16 -54 39.5t-55 50.5q-27 -27 -54 -50t-53 -40h-60v11q19 20 42.5 46t45.5 53.5t35 49.5h90z" />
    <glyph glyph-name="atilde#0" unicode="&#xe3;" horiz-adv-x="561" 
d="M288 545q98 0 145 -43t47 -137v-365h-64l-17 76h-4q-35 -44 -73.5 -65t-106.5 -21q-73 0 -121 38.5t-48 120.5q0 80 63 123.5t194 47.5l91 3v32q0 67 -29 93t-82 26q-42 0 -80 -12.5t-71 -28.5l-27 66q35 19 83 32.5t100 13.5zM393 262l-79 -3q-100 -4 -138.5 -32
t-38.5 -79q0 -45 27.5 -66t70.5 -21q68 0 113 37.5t45 115.5v48zM97 606q6 59 34.5 93.5t75.5 34.5q30 0 56.5 -14.5t50.5 -28.5t45 -14q23 0 35.5 14.5t19.5 43.5h50q-6 -58 -34 -93t-75 -35q-28 0 -54.5 14t-51 28.5t-46.5 14.5q-24 0 -36 -14.5t-19 -43.5h-51z" />
    <glyph glyph-name="adieresis#0" unicode="&#xe4;" horiz-adv-x="561" 
d="M288 545q98 0 145 -43t47 -137v-365h-64l-17 76h-4q-35 -44 -73.5 -65t-106.5 -21q-73 0 -121 38.5t-48 120.5q0 80 63 123.5t194 47.5l91 3v32q0 67 -29 93t-82 26q-42 0 -80 -12.5t-71 -28.5l-27 66q35 19 83 32.5t100 13.5zM393 262l-79 -3q-100 -4 -138.5 -32
t-38.5 -79q0 -45 27.5 -66t70.5 -21q68 0 113 37.5t45 115.5v48zM140 681q0 26 14 37.5t33 11.5t33 -11.5t14 -37.5q0 -25 -14 -37.5t-33 -12.5t-33 12.5t-14 37.5zM328 681q0 26 13.5 37.5t32.5 11.5t33 -11.5t14 -37.5q0 -25 -14 -37.5t-33 -12.5t-32.5 12.5t-13.5 37.5z
" />
    <glyph glyph-name="aring#0" unicode="&#xe5;" horiz-adv-x="561" 
d="M288 545q98 0 145 -43t47 -137v-365h-64l-17 76h-4q-35 -44 -73.5 -65t-106.5 -21q-73 0 -121 38.5t-48 120.5q0 80 63 123.5t194 47.5l91 3v32q0 67 -29 93t-82 26q-42 0 -80 -12.5t-71 -28.5l-27 66q35 19 83 32.5t100 13.5zM393 262l-79 -3q-100 -4 -138.5 -32
t-38.5 -79q0 -45 27.5 -66t70.5 -21q68 0 113 37.5t45 115.5v48zM282 606q-49 0 -79 28t-30 78t30 77.5t79 27.5q47 0 79 -27.5t32 -76.5q0 -51 -31.5 -79t-79.5 -28zM282 656q25 0 40.5 15t15.5 41t-16 41t-40 15t-40 -15t-16 -41t14.5 -41t41.5 -15z" />
    <glyph glyph-name="ae#0" unicode="&#xe6;" horiz-adv-x="864" 
d="M603 546q65 0 112 -30t72.5 -84t25.5 -126v-54h-343q2 -96 41.5 -141.5t113.5 -45.5q50 0 88 9.5t76 27.5v-77q-40 -18 -78.5 -26.5t-88.5 -8.5q-141 0 -203 113q-34 -52 -80 -82.5t-123 -30.5q-73 0 -121.5 38.5t-48.5 120.5q0 80 60 123.5t184 47.5l90 3v34
q0 65 -30.5 91t-81.5 26q-40 0 -78.5 -12t-71.5 -29l-27 66q35 20 85 33t99 13q62 0 102.5 -20.5t61.5 -65.5q26 41 68 64t96 23zM602 474q-58 0 -91.5 -39.5t-38.5 -113.5h248q0 69 -28.5 111t-89.5 42zM378 262l-75 -3q-94 -4 -130 -32t-36 -79q0 -45 25.5 -66t67.5 -21
q63 0 105.5 37.5t42.5 115.5v48z" />
    <glyph glyph-name="ccedilla#0" unicode="&#xe7;" horiz-adv-x="480" 
d="M300 -10q-71 0 -126.5 29t-87 90t-31.5 156q0 99 33 161t89.5 91t128.5 29q41 0 79 -8.5t62 -20.5l-27 -73q-24 9 -56 17t-60 8q-158 0 -158 -203q0 -97 38.5 -148.5t114.5 -51.5q44 0 77.5 9t61.5 22v-78q-27 -14 -59.5 -21.5t-78.5 -7.5zM382 -139q0 -48 -37 -74.5
t-111 -26.5q-32 0 -50 5v55q9 -2 24 -3.5t29 -1.5q36 0 55 9.5t19 34.5q0 26 -26.5 38t-64.5 17l43 86h58l-26 -53q36 -8 61.5 -28t25.5 -58z" />
    <glyph glyph-name="egrave#0" unicode="&#xe8;" horiz-adv-x="564" 
d="M292 546q69 0 118.5 -30t76 -84.5t26.5 -127.5v-53h-367q2 -91 46.5 -138.5t124.5 -47.5q51 0 90.5 9.5t81.5 27.5v-77q-41 -18 -81 -26.5t-95 -8.5q-76 0 -134.5 31t-91 92.5t-32.5 150.5q0 88 29.5 151t83 97t124.5 34zM291 474q-63 0 -99.5 -40.5t-43.5 -112.5h273
q-1 68 -32 110.5t-98 42.5zM259 766q11 -22 27.5 -49.5t35 -53.5t33.5 -45v-12h-59q-23 18 -52 46.5t-53.5 57t-36.5 46.5v10h105z" />
    <glyph glyph-name="eacute#0" unicode="&#xe9;" horiz-adv-x="564" 
d="M292 546q69 0 118.5 -30t76 -84.5t26.5 -127.5v-53h-367q2 -91 46.5 -138.5t124.5 -47.5q51 0 90.5 9.5t81.5 27.5v-77q-41 -18 -81 -26.5t-95 -8.5q-76 0 -134.5 31t-91 92.5t-32.5 150.5q0 88 29.5 151t83 97t124.5 34zM291 474q-63 0 -99.5 -40.5t-43.5 -112.5h273
q-1 68 -32 110.5t-98 42.5zM426 766v-10q-12 -18 -37 -46.5t-53.5 -57t-52.5 -46.5h-58v12q15 19 32.5 45t34.5 53.5t28 49.5h106z" />
    <glyph glyph-name="ecircumflex#0" unicode="&#xea;" horiz-adv-x="564" 
d="M292 546q69 0 118.5 -30t76 -84.5t26.5 -127.5v-53h-367q2 -91 46.5 -138.5t124.5 -47.5q51 0 90.5 9.5t81.5 27.5v-77q-41 -18 -81 -26.5t-95 -8.5q-76 0 -134.5 31t-91 92.5t-32.5 150.5q0 88 29.5 151t83 97t124.5 34zM291 474q-63 0 -99.5 -40.5t-43.5 -112.5h273
q-1 68 -32 110.5t-98 42.5zM331 766q12 -22 34.5 -49.5t47 -54t43.5 -45.5v-11h-62q-26 16 -54 39.5t-55 50.5q-27 -27 -54 -50t-53 -40h-60v11q19 20 42.5 46t45.5 53.5t35 49.5h90z" />
    <glyph glyph-name="edieresis#0" unicode="&#xeb;" horiz-adv-x="564" 
d="M292 546q69 0 118.5 -30t76 -84.5t26.5 -127.5v-53h-367q2 -91 46.5 -138.5t124.5 -47.5q51 0 90.5 9.5t81.5 27.5v-77q-41 -18 -81 -26.5t-95 -8.5q-76 0 -134.5 31t-91 92.5t-32.5 150.5q0 88 29.5 151t83 97t124.5 34zM291 474q-63 0 -99.5 -40.5t-43.5 -112.5h273
q-1 68 -32 110.5t-98 42.5zM144 681q0 26 14 37.5t33 11.5t33 -11.5t14 -37.5q0 -25 -14 -37.5t-33 -12.5t-33 12.5t-14 37.5zM332 681q0 26 13.5 37.5t32.5 11.5t33 -11.5t14 -37.5q0 -25 -14 -37.5t-33 -12.5t-32.5 12.5t-13.5 37.5z" />
    <glyph glyph-name="igrave#0" unicode="&#xec;" horiz-adv-x="258" 
d="M173 0h-88v536h88v-536zM103 766q11 -22 27.5 -49.5t35 -53.5t33.5 -45v-12h-59q-23 18 -52 46.5t-53.5 57t-36.5 46.5v10h105z" />
    <glyph glyph-name="iacute#0" unicode="&#xed;" horiz-adv-x="258" 
d="M173 0h-88v536h88v-536zM270 766v-10q-12 -18 -37 -46.5t-53.5 -57t-52.5 -46.5h-58v12q15 19 32.5 45t34.5 53.5t28 49.5h106z" />
    <glyph glyph-name="icircumflex#0" unicode="&#xee;" horiz-adv-x="258" 
d="M173 0h-88v536h88v-536zM175 766q12 -22 34.5 -49.5t47 -54t43.5 -45.5v-11h-62q-26 16 -54 39.5t-55 50.5q-27 -27 -54 -50t-53 -40h-60v11q19 20 42.5 46t45.5 53.5t35 49.5h90z" />
    <glyph glyph-name="idieresis#0" unicode="&#xef;" horiz-adv-x="258" 
d="M173 0h-88v536h88v-536zM-12 681q0 26 14 37.5t33 11.5t33 -11.5t14 -37.5q0 -25 -14 -37.5t-33 -12.5t-33 12.5t-14 37.5zM176 681q0 26 13.5 37.5t32.5 11.5t33 -11.5t14 -37.5q0 -25 -14 -37.5t-33 -12.5t-32.5 12.5t-13.5 37.5z" />
    <glyph glyph-name="eth#0" unicode="&#xf0;" horiz-adv-x="605" 
d="M216 765q32 -15 64.5 -33t61.5 -39l115 67l38 -54l-99 -57q68 -64 111.5 -158t43.5 -216q0 -142 -67 -213.5t-183 -71.5q-72 0 -127.5 29.5t-87 84t-31.5 129.5q0 112 63.5 176t171.5 64q53 0 92.5 -14t63.5 -44l4 2q-16 57 -49 105t-75 86l-130 -75l-38 55l112 64
q-21 14 -44 27.5t-46 25.5zM303 402q-84 0 -121.5 -44.5t-37.5 -127.5q0 -73 38 -120.5t121 -47.5t121 48.5t38 140.5q0 62 -39 106.5t-120 44.5z" />
    <glyph glyph-name="ntilde#0" unicode="&#xf1;" horiz-adv-x="618" 
d="M343 546q96 0 145 -46.5t49 -150.5v-349h-87v343q0 129 -120 129q-89 0 -123 -50t-34 -144v-278h-88v536h71l13 -73h5q26 42 72 62.5t97 20.5zM125 606q6 59 34.5 93.5t75.5 34.5q30 0 56.5 -14.5t50.5 -28.5t45 -14q23 0 35.5 14.5t19.5 43.5h50q-6 -58 -34 -93t-75 -35
q-28 0 -54.5 14t-51 28.5t-46.5 14.5q-24 0 -36 -14.5t-19 -43.5h-51z" />
    <glyph glyph-name="ograve#0" unicode="&#xf2;" horiz-adv-x="605" 
d="M551 269q0 -133 -67.5 -206t-182.5 -73q-71 0 -126.5 32.5t-87.5 95t-32 151.5q0 133 67 205t182 72q73 0 128.5 -32.5t87 -94t31.5 -150.5zM146 269q0 -95 37.5 -150.5t119.5 -55.5q81 0 119 55.5t38 150.5t-38 149t-120 54t-119 -54t-37 -149zM277 766
q11 -22 27.5 -49.5t35 -53.5t33.5 -45v-12h-59q-23 18 -52 46.5t-53.5 57t-36.5 46.5v10h105z" />
    <glyph glyph-name="oacute#0" unicode="&#xf3;" horiz-adv-x="605" 
d="M551 269q0 -133 -67.5 -206t-182.5 -73q-71 0 -126.5 32.5t-87.5 95t-32 151.5q0 133 67 205t182 72q73 0 128.5 -32.5t87 -94t31.5 -150.5zM146 269q0 -95 37.5 -150.5t119.5 -55.5q81 0 119 55.5t38 150.5t-38 149t-120 54t-119 -54t-37 -149zM444 766v-10
q-12 -18 -37 -46.5t-53.5 -57t-52.5 -46.5h-58v12q15 19 32.5 45t34.5 53.5t28 49.5h106z" />
    <glyph glyph-name="ocircumflex#0" unicode="&#xf4;" horiz-adv-x="605" 
d="M551 269q0 -133 -67.5 -206t-182.5 -73q-71 0 -126.5 32.5t-87.5 95t-32 151.5q0 133 67 205t182 72q73 0 128.5 -32.5t87 -94t31.5 -150.5zM146 269q0 -95 37.5 -150.5t119.5 -55.5q81 0 119 55.5t38 150.5t-38 149t-120 54t-119 -54t-37 -149zM349 766
q12 -22 34.5 -49.5t47 -54t43.5 -45.5v-11h-62q-26 16 -54 39.5t-55 50.5q-27 -27 -54 -50t-53 -40h-60v11q19 20 42.5 46t45.5 53.5t35 49.5h90z" />
    <glyph glyph-name="otilde#0" unicode="&#xf5;" horiz-adv-x="605" 
d="M551 269q0 -133 -67.5 -206t-182.5 -73q-71 0 -126.5 32.5t-87.5 95t-32 151.5q0 133 67 205t182 72q73 0 128.5 -32.5t87 -94t31.5 -150.5zM146 269q0 -95 37.5 -150.5t119.5 -55.5q81 0 119 55.5t38 150.5t-38 149t-120 54t-119 -54t-37 -149zM119 606q6 59 34.5 93.5
t75.5 34.5q30 0 56.5 -14.5t50.5 -28.5t45 -14q23 0 35.5 14.5t19.5 43.5h50q-6 -58 -34 -93t-75 -35q-28 0 -54.5 14t-51 28.5t-46.5 14.5q-24 0 -36 -14.5t-19 -43.5h-51z" />
    <glyph glyph-name="odieresis#0" unicode="&#xf6;" horiz-adv-x="605" 
d="M551 269q0 -133 -67.5 -206t-182.5 -73q-71 0 -126.5 32.5t-87.5 95t-32 151.5q0 133 67 205t182 72q73 0 128.5 -32.5t87 -94t31.5 -150.5zM146 269q0 -95 37.5 -150.5t119.5 -55.5q81 0 119 55.5t38 150.5t-38 149t-120 54t-119 -54t-37 -149zM162 681q0 26 14 37.5
t33 11.5t33 -11.5t14 -37.5q0 -25 -14 -37.5t-33 -12.5t-33 12.5t-14 37.5zM350 681q0 26 13.5 37.5t32.5 11.5t33 -11.5t14 -37.5q0 -25 -14 -37.5t-33 -12.5t-32.5 12.5t-13.5 37.5z" />
    <glyph glyph-name="divide#0" unicode="&#xf7;" horiz-adv-x="572" 
d="M285 462q-23 0 -39.5 14.5t-16.5 46.5q0 34 16.5 47t39.5 13t39 -13t16 -47q0 -32 -16 -46.5t-39 -14.5zM50 317v71h471v-71h-471zM285 121q-23 0 -39.5 14.5t-16.5 46.5q0 34 16.5 47t39.5 13t39 -13t16 -47q0 -32 -16 -46.5t-39 -14.5z" />
    <glyph glyph-name="oslash#0" unicode="&#xf8;" horiz-adv-x="605" 
d="M551 269q0 -133 -67.5 -206t-182.5 -73q-73 0 -129 33l-40 -56l-58 39l45 62q-31 36 -47.5 86.5t-16.5 114.5q0 133 67 205t182 72q73 0 131 -36l39 56l59 -38l-45 -63q29 -35 46 -84.5t17 -111.5zM146 269q0 -38 5.5 -70.5t18.5 -57.5l220 306q-36 25 -88 25
q-82 0 -119 -54t-37 -149zM460 269q0 74 -23 123l-220 -306q34 -23 86 -23q81 0 119 55.5t38 150.5z" />
    <glyph glyph-name="ugrave#0" unicode="&#xf9;" horiz-adv-x="618" 
d="M533 536v-536h-72l-13 71h-4q-26 -42 -72 -61.5t-98 -19.5q-97 0 -146 46.5t-49 148.5v351h89v-345q0 -128 119 -128q89 0 123.5 50t34.5 144v279h88zM283 766q11 -22 27.5 -49.5t35 -53.5t33.5 -45v-12h-59q-23 18 -52 46.5t-53.5 57t-36.5 46.5v10h105z" />
    <glyph glyph-name="uacute#0" unicode="&#xfa;" horiz-adv-x="618" 
d="M533 536v-536h-72l-13 71h-4q-26 -42 -72 -61.5t-98 -19.5q-97 0 -146 46.5t-49 148.5v351h89v-345q0 -128 119 -128q89 0 123.5 50t34.5 144v279h88zM450 766v-10q-12 -18 -37 -46.5t-53.5 -57t-52.5 -46.5h-58v12q15 19 32.5 45t34.5 53.5t28 49.5h106z" />
    <glyph glyph-name="ucircumflex#0" unicode="&#xfb;" horiz-adv-x="618" 
d="M533 536v-536h-72l-13 71h-4q-26 -42 -72 -61.5t-98 -19.5q-97 0 -146 46.5t-49 148.5v351h89v-345q0 -128 119 -128q89 0 123.5 50t34.5 144v279h88zM355 766q12 -22 34.5 -49.5t47 -54t43.5 -45.5v-11h-62q-26 16 -54 39.5t-55 50.5q-27 -27 -54 -50t-53 -40h-60v11
q19 20 42.5 46t45.5 53.5t35 49.5h90z" />
    <glyph glyph-name="udieresis#0" unicode="&#xfc;" horiz-adv-x="618" 
d="M533 536v-536h-72l-13 71h-4q-26 -42 -72 -61.5t-98 -19.5q-97 0 -146 46.5t-49 148.5v351h89v-345q0 -128 119 -128q89 0 123.5 50t34.5 144v279h88zM168 681q0 26 14 37.5t33 11.5t33 -11.5t14 -37.5q0 -25 -14 -37.5t-33 -12.5t-33 12.5t-14 37.5zM356 681
q0 26 13.5 37.5t32.5 11.5t33 -11.5t14 -37.5q0 -25 -14 -37.5t-33 -12.5t-32.5 12.5t-13.5 37.5z" />
    <glyph glyph-name="yacute#0" unicode="&#xfd;" horiz-adv-x="510" 
d="M1 536h94l116 -305q15 -40 27 -76.5t18 -69.5h4q6 25 19 65.5t27 81.5l109 304h95l-231 -610q-28 -76 -72.5 -121t-122.5 -45q-24 0 -42 2.5t-31 5.5v70q11 -2 26.5 -4t32.5 -2q46 0 74.5 26t44.5 69l28 71zM396 766v-10q-12 -18 -37 -46.5t-53.5 -57t-52.5 -46.5h-58v12
q15 19 32.5 45t34.5 53.5t28 49.5h106z" />
    <glyph glyph-name="thorn#0" unicode="&#xfe;" horiz-adv-x="615" 
d="M560 269q0 -137 -60.5 -208t-159.5 -71q-63 0 -103 23t-64 55h-6q1 -7 2.5 -23t2.5 -33t1 -28v-224h-88v1000h88v-224q0 -14 -1 -36.5t-2 -35.5h4q24 34 63 58t103 24q99 0 159.5 -70t60.5 -207zM469 270q0 101 -35 151.5t-109 50.5q-82 0 -116 -46t-36 -138v-19
q0 -99 32.5 -152.5t120.5 -53.5q74 0 108.5 53.5t34.5 153.5z" />
    <glyph glyph-name="ydieresis#0" unicode="&#xff;" horiz-adv-x="510" 
d="M1 536h94l116 -305q15 -40 27 -76.5t18 -69.5h4q6 25 19 65.5t27 81.5l109 304h95l-231 -610q-28 -76 -72.5 -121t-122.5 -45q-24 0 -42 2.5t-31 5.5v70q11 -2 26.5 -4t32.5 -2q46 0 74.5 26t44.5 69l28 71zM114 681q0 26 14 37.5t33 11.5t33 -11.5t14 -37.5
q0 -25 -14 -37.5t-33 -12.5t-33 12.5t-14 37.5zM302 681q0 26 13.5 37.5t32.5 11.5t33 -11.5t14 -37.5q0 -25 -14 -37.5t-33 -12.5t-32.5 12.5t-13.5 37.5z" />
    <glyph glyph-name="Amacron#0" unicode="&#x100;" horiz-adv-x="639" 
d="M545 0l-86 221h-283l-85 -221h-91l279 717h81l278 -717h-93zM432 301l-80 216q-3 8 -10 29t-13.5 43.5t-10.5 34.5q-7 -31 -16 -60.5t-15 -46.5l-81 -216h226zM466 855v-71h-297v71h297z" />
    <glyph glyph-name="amacron#0" unicode="&#x101;" horiz-adv-x="561" 
d="M288 545q98 0 145 -43t47 -137v-365h-64l-17 76h-4q-35 -44 -73.5 -65t-106.5 -21q-73 0 -121 38.5t-48 120.5q0 80 63 123.5t194 47.5l91 3v32q0 67 -29 93t-82 26q-42 0 -80 -12.5t-71 -28.5l-27 66q35 19 83 32.5t100 13.5zM393 262l-79 -3q-100 -4 -138.5 -32
t-38.5 -79q0 -45 27.5 -66t70.5 -21q68 0 113 37.5t45 115.5v48zM429 677v-71h-297v71h297z" />
    <glyph glyph-name="Abreve#0" unicode="&#x102;" horiz-adv-x="639" 
d="M545 0l-86 221h-283l-85 -221h-91l279 717h81l278 -717h-93zM432 301l-80 216q-3 8 -10 29t-13.5 43.5t-10.5 34.5q-7 -31 -16 -60.5t-15 -46.5l-81 -216h226zM478 918q-5 -60 -45.5 -97t-112.5 -37q-74 0 -111.5 36.5t-41.5 97.5h54q5 -41 30 -52t71 -11q39 0 67.5 12
t33.5 51h55z" />
    <glyph glyph-name="abreve#0" unicode="&#x103;" horiz-adv-x="561" 
d="M288 545q98 0 145 -43t47 -137v-365h-64l-17 76h-4q-35 -44 -73.5 -65t-106.5 -21q-73 0 -121 38.5t-48 120.5q0 80 63 123.5t194 47.5l91 3v32q0 67 -29 93t-82 26q-42 0 -80 -12.5t-71 -28.5l-27 66q35 19 83 32.5t100 13.5zM393 262l-79 -3q-100 -4 -138.5 -32
t-38.5 -79q0 -45 27.5 -66t70.5 -21q68 0 113 37.5t45 115.5v48zM441 740q-5 -60 -45.5 -97t-112.5 -37q-74 0 -111.5 36.5t-41.5 97.5h54q5 -41 30 -52t71 -11q39 0 67.5 12t33.5 51h55z" />
    <glyph glyph-name="Aogonek#0" unicode="&#x104;" horiz-adv-x="639" 
d="M545 0l-86 221h-283l-85 -221h-91l279 717h81l278 -717h-93zM432 301l-80 216q-3 8 -10 29t-13.5 43.5t-10.5 34.5q-7 -31 -16 -60.5t-15 -46.5l-81 -216h226zM545 -116q0 -45 45 -45q17 0 28.5 2.5t19.5 3.5v-56q-14 -4 -28 -6.5t-34 -2.5q-53 0 -78 25t-25 69
q0 29 14.5 56t36 49t41.5 36l48 -15q-34 -32 -51 -58.5t-17 -57.5z" />
    <glyph glyph-name="aogonek#0" unicode="&#x105;" horiz-adv-x="561" 
d="M288 545q98 0 145 -43t47 -137v-365h-64l-17 76h-4q-35 -44 -73.5 -65t-106.5 -21q-73 0 -121 38.5t-48 120.5q0 80 63 123.5t194 47.5l91 3v32q0 67 -29 93t-82 26q-42 0 -80 -12.5t-71 -28.5l-27 66q35 19 83 32.5t100 13.5zM393 262l-79 -3q-100 -4 -138.5 -32
t-38.5 -79q0 -45 27.5 -66t70.5 -21q68 0 113 37.5t45 115.5v48zM412 -116q0 -45 45 -45q17 0 28.5 2.5t19.5 3.5v-56q-14 -4 -28 -6.5t-34 -2.5q-53 0 -78 25t-25 69q0 29 14.5 56t36 49t41.5 36l48 -15q-34 -32 -51 -58.5t-17 -57.5z" />
    <glyph glyph-name="Cacute#0" unicode="&#x106;" horiz-adv-x="632" 
d="M403 645q-115 0 -181 -77t-66 -211q0 -133 61.5 -210.5t184.5 -77.5q47 0 89 8t82 20v-78q-40 -15 -82.5 -22t-101.5 -7q-109 0 -182 45t-109.5 128t-36.5 195q0 108 39.5 190.5t116.5 129t187 46.5q113 0 197 -42l-36 -76q-33 15 -73.5 27t-88.5 12zM521 944v-10
q-12 -18 -37 -46.5t-53.5 -57t-52.5 -46.5h-58v12q15 19 32.5 45t34.5 53.5t28 49.5h106z" />
    <glyph glyph-name="cacute#0" unicode="&#x107;" horiz-adv-x="480" 
d="M300 -10q-71 0 -126.5 29t-87 90t-31.5 156q0 99 33 161t89.5 91t128.5 29q41 0 79 -8.5t62 -20.5l-27 -73q-24 9 -56 17t-60 8q-158 0 -158 -203q0 -97 38.5 -148.5t114.5 -51.5q44 0 77.5 9t61.5 22v-78q-27 -14 -59.5 -21.5t-78.5 -7.5zM425 766v-10
q-12 -18 -37 -46.5t-53.5 -57t-52.5 -46.5h-58v12q15 19 32.5 45t34.5 53.5t28 49.5h106z" />
    <glyph glyph-name="Ccircumflex#0" unicode="&#x108;" horiz-adv-x="632" 
d="M403 645q-115 0 -181 -77t-66 -211q0 -133 61.5 -210.5t184.5 -77.5q47 0 89 8t82 20v-78q-40 -15 -82.5 -22t-101.5 -7q-109 0 -182 45t-109.5 128t-36.5 195q0 108 39.5 190.5t116.5 129t187 46.5q113 0 197 -42l-36 -76q-33 15 -73.5 27t-88.5 12zM426 944
q12 -22 34.5 -49.5t47 -54t43.5 -45.5v-11h-62q-26 16 -54 39.5t-55 50.5q-27 -27 -54 -50t-53 -40h-60v11q19 20 42.5 46t45.5 53.5t35 49.5h90z" />
    <glyph glyph-name="ccircumflex#0" unicode="&#x109;" horiz-adv-x="480" 
d="M300 -10q-71 0 -126.5 29t-87 90t-31.5 156q0 99 33 161t89.5 91t128.5 29q41 0 79 -8.5t62 -20.5l-27 -73q-24 9 -56 17t-60 8q-158 0 -158 -203q0 -97 38.5 -148.5t114.5 -51.5q44 0 77.5 9t61.5 22v-78q-27 -14 -59.5 -21.5t-78.5 -7.5zM330 766q12 -22 34.5 -49.5
t47 -54t43.5 -45.5v-11h-62q-26 16 -54 39.5t-55 50.5q-27 -27 -54 -50t-53 -40h-60v11q19 20 42.5 46t45.5 53.5t35 49.5h90z" />
    <glyph glyph-name="Cdot#0" unicode="&#x10a;" horiz-adv-x="632" 
d="M403 645q-115 0 -181 -77t-66 -211q0 -133 61.5 -210.5t184.5 -77.5q47 0 89 8t82 20v-78q-40 -15 -82.5 -22t-101.5 -7q-109 0 -182 45t-109.5 128t-36.5 195q0 108 39.5 190.5t116.5 129t187 46.5q113 0 197 -42l-36 -76q-33 15 -73.5 27t-88.5 12zM383 915
q20 0 35.5 -13.5t15.5 -42.5q0 -28 -15.5 -42t-35.5 -14q-22 0 -37 14t-15 42q0 29 15 42.5t37 13.5z" />
    <glyph glyph-name="cdot#0" unicode="&#x10b;" horiz-adv-x="480" 
d="M300 -10q-71 0 -126.5 29t-87 90t-31.5 156q0 99 33 161t89.5 91t128.5 29q41 0 79 -8.5t62 -20.5l-27 -73q-24 9 -56 17t-60 8q-158 0 -158 -203q0 -97 38.5 -148.5t114.5 -51.5q44 0 77.5 9t61.5 22v-78q-27 -14 -59.5 -21.5t-78.5 -7.5zM287 737q20 0 35.5 -13.5
t15.5 -42.5q0 -28 -15.5 -42t-35.5 -14q-22 0 -37 14t-15 42q0 29 15 42.5t37 13.5z" />
    <glyph glyph-name="Ccaron#0" unicode="&#x10c;" horiz-adv-x="632" 
d="M403 645q-115 0 -181 -77t-66 -211q0 -133 61.5 -210.5t184.5 -77.5q47 0 89 8t82 20v-78q-40 -15 -82.5 -22t-101.5 -7q-109 0 -182 45t-109.5 128t-36.5 195q0 108 39.5 190.5t116.5 129t187 46.5q113 0 197 -42l-36 -76q-33 15 -73.5 27t-88.5 12zM334 784
q-13 23 -35 49.5t-46 52.5t-42 45v13h60q26 -17 54 -41t53 -51q27 27 55 51t54 41h62v-13q-19 -19 -43.5 -45t-47 -52.5t-34.5 -49.5h-90z" />
    <glyph glyph-name="ccaron#0" unicode="&#x10d;" horiz-adv-x="480" 
d="M300 -10q-71 0 -126.5 29t-87 90t-31.5 156q0 99 33 161t89.5 91t128.5 29q41 0 79 -8.5t62 -20.5l-27 -73q-24 9 -56 17t-60 8q-158 0 -158 -203q0 -97 38.5 -148.5t114.5 -51.5q44 0 77.5 9t61.5 22v-78q-27 -14 -59.5 -21.5t-78.5 -7.5zM238 606q-13 23 -35 49.5
t-46 52.5t-42 45v13h60q26 -17 54 -41t53 -51q27 27 55 51t54 41h62v-13q-19 -19 -43.5 -45t-47 -52.5t-34.5 -49.5h-90z" />
    <glyph glyph-name="Dcaron#0" unicode="&#x10e;" horiz-adv-x="730" 
d="M669 364q0 -181 -98.5 -272.5t-274.5 -91.5h-199v714h220q108 0 187 -40t122 -117.5t43 -192.5zM574 361q0 143 -70.5 209.5t-199.5 66.5h-117v-560h97q290 0 290 284zM315 784q-13 23 -35 49.5t-46 52.5t-42 45v13h60q26 -17 54 -41t53 -51q27 27 55 51t54 41h62v-13
q-19 -19 -43.5 -45t-47 -52.5t-34.5 -49.5h-90z" />
    <glyph glyph-name="dcaron#0" unicode="&#x10f;" horiz-adv-x="615" 
d="M275 -10q-100 0 -160 69.5t-60 207.5t60.5 208.5t160.5 70.5q62 0 101.5 -23t64.5 -56h6q-1 13 -3.5 38.5t-2.5 40.5v214h88v-760h-71l-13 72h-4q-24 -34 -64 -58t-103 -24zM289 63q85 0 119.5 46.5t34.5 140.5v16q0 100 -33 153.5t-122 53.5q-71 0 -106.5 -56.5
t-35.5 -151.5q0 -96 35.5 -149t107.5 -53zM688 760v-9q-4 -18 -15.5 -45t-26.5 -55.5t-30 -50.5h-48v12q7 19 13.5 45.5t12 54t7.5 48.5h87z" />
    <glyph glyph-name="Dcroat#0" unicode="&#x110;" horiz-adv-x="730" 
d="M317 714q107 0 186 -40t122.5 -117.5t43.5 -192.5q0 -181 -98.5 -272.5t-275.5 -91.5h-191v314h-74v78h74v322h213zM304 637h-110v-245h178v-78h-178v-237h90q290 0 290 284q0 143 -71 209.5t-199 66.5z" />
    <glyph glyph-name="dcroat#0" unicode="&#x111;" horiz-adv-x="617" 
d="M275 -10q-100 0 -160 69.5t-60 205.5q0 140 60.5 209t159.5 69q63 0 102.5 -23t64.5 -56h6q-2 13 -4 38.5t-2 41.5v61h-213v66h213v89h88v-89h76v-66h-76v-605h-72l-13 72h-4q-24 -34 -64 -58t-102 -24zM290 63q84 0 118.5 46t34.5 139v17q0 101 -33 153t-122 52
q-71 0 -106 -55t-35 -151t35 -148.5t108 -52.5z" />
    <glyph glyph-name="Emacron#0" unicode="&#x112;" horiz-adv-x="556" 
d="M496 0h-399v714h399v-79h-309v-223h291v-78h-291v-255h309v-79zM453 855v-71h-297v71h297z" />
    <glyph glyph-name="emacron#0" unicode="&#x113;" horiz-adv-x="564" 
d="M292 546q69 0 118.5 -30t76 -84.5t26.5 -127.5v-53h-367q2 -91 46.5 -138.5t124.5 -47.5q51 0 90.5 9.5t81.5 27.5v-77q-41 -18 -81 -26.5t-95 -8.5q-76 0 -134.5 31t-91 92.5t-32.5 150.5q0 88 29.5 151t83 97t124.5 34zM291 474q-63 0 -99.5 -40.5t-43.5 -112.5h273
q-1 68 -32 110.5t-98 42.5zM433 677v-71h-297v71h297z" />
    <glyph glyph-name="Ebreve#0" unicode="&#x114;" horiz-adv-x="556" 
d="M496 0h-399v714h399v-79h-309v-223h291v-78h-291v-255h309v-79zM465 918q-5 -60 -45.5 -97t-112.5 -37q-74 0 -111.5 36.5t-41.5 97.5h54q5 -41 30 -52t71 -11q39 0 67.5 12t33.5 51h55z" />
    <glyph glyph-name="ebreve#0" unicode="&#x115;" horiz-adv-x="564" 
d="M292 546q69 0 118.5 -30t76 -84.5t26.5 -127.5v-53h-367q2 -91 46.5 -138.5t124.5 -47.5q51 0 90.5 9.5t81.5 27.5v-77q-41 -18 -81 -26.5t-95 -8.5q-76 0 -134.5 31t-91 92.5t-32.5 150.5q0 88 29.5 151t83 97t124.5 34zM291 474q-63 0 -99.5 -40.5t-43.5 -112.5h273
q-1 68 -32 110.5t-98 42.5zM445 740q-5 -60 -45.5 -97t-112.5 -37q-74 0 -111.5 36.5t-41.5 97.5h54q5 -41 30 -52t71 -11q39 0 67.5 12t33.5 51h55z" />
    <glyph glyph-name="Edotaccent#0" unicode="&#x116;" horiz-adv-x="556" 
d="M496 0h-399v714h399v-79h-309v-223h291v-78h-291v-255h309v-79zM308 915q20 0 35.5 -13.5t15.5 -42.5q0 -28 -15.5 -42t-35.5 -14q-22 0 -37 14t-15 42q0 29 15 42.5t37 13.5z" />
    <glyph glyph-name="edotaccent#0" unicode="&#x117;" horiz-adv-x="564" 
d="M292 546q69 0 118.5 -30t76 -84.5t26.5 -127.5v-53h-367q2 -91 46.5 -138.5t124.5 -47.5q51 0 90.5 9.5t81.5 27.5v-77q-41 -18 -81 -26.5t-95 -8.5q-76 0 -134.5 31t-91 92.5t-32.5 150.5q0 88 29.5 151t83 97t124.5 34zM291 474q-63 0 -99.5 -40.5t-43.5 -112.5h273
q-1 68 -32 110.5t-98 42.5zM288 737q20 0 35.5 -13.5t15.5 -42.5q0 -28 -15.5 -42t-35.5 -14q-22 0 -37 14t-15 42q0 29 15 42.5t37 13.5z" />
    <glyph glyph-name="Eogonek#0" unicode="&#x118;" horiz-adv-x="556" 
d="M496 0h-399v714h399v-79h-309v-223h291v-78h-291v-255h309v-79zM398 -116q0 -45 45 -45q17 0 28.5 2.5t19.5 3.5v-56q-14 -4 -28 -6.5t-34 -2.5q-53 0 -78 25t-25 69q0 29 14.5 56t36 49t41.5 36l48 -15q-34 -32 -51 -58.5t-17 -57.5z" />
    <glyph glyph-name="eogonek#0" unicode="&#x119;" horiz-adv-x="564" 
d="M389 -116q0 -45 45 -45q17 0 28.5 2.5t19.5 3.5v-56q-14 -4 -28 -6.5t-34 -2.5q-53 0 -78 25t-25 69q0 29 14.5 56t36 49t41.5 36l80 10q-40 -32 -62 -56t-30 -44t-8 -41zM292 546q69 0 118.5 -30t76 -84.5t26.5 -127.5v-53h-367q2 -91 46.5 -138.5t124.5 -47.5
q51 0 90.5 9.5t81.5 27.5v-77q-41 -18 -81 -26.5t-95 -8.5q-76 0 -134.5 31t-91 92.5t-32.5 150.5q0 88 29.5 151t83 97t124.5 34zM291 474q-63 0 -99.5 -40.5t-43.5 -112.5h273q-1 68 -32 110.5t-98 42.5z" />
    <glyph glyph-name="Ecaron#0" unicode="&#x11a;" horiz-adv-x="556" 
d="M496 0h-399v714h399v-79h-309v-223h291v-78h-291v-255h309v-79zM259 784q-13 23 -35 49.5t-46 52.5t-42 45v13h60q26 -17 54 -41t53 -51q27 27 55 51t54 41h62v-13q-19 -19 -43.5 -45t-47 -52.5t-34.5 -49.5h-90z" />
    <glyph glyph-name="ecaron#0" unicode="&#x11b;" horiz-adv-x="564" 
d="M292 546q69 0 118.5 -30t76 -84.5t26.5 -127.5v-53h-367q2 -91 46.5 -138.5t124.5 -47.5q51 0 90.5 9.5t81.5 27.5v-77q-41 -18 -81 -26.5t-95 -8.5q-76 0 -134.5 31t-91 92.5t-32.5 150.5q0 88 29.5 151t83 97t124.5 34zM291 474q-63 0 -99.5 -40.5t-43.5 -112.5h273
q-1 68 -32 110.5t-98 42.5zM239 606q-13 23 -35 49.5t-46 52.5t-42 45v13h60q26 -17 54 -41t53 -51q27 27 55 51t54 41h62v-13q-19 -19 -43.5 -45t-47 -52.5t-34.5 -49.5h-90z" />
    <glyph glyph-name="Gcircumflex#0" unicode="&#x11c;" horiz-adv-x="728" 
d="M407 377h247v-350q-58 -19 -117 -28t-134 -9q-111 0 -187 44.5t-115.5 127t-39.5 195.5q0 112 44 194t126.5 127.5t199.5 45.5q60 0 113.5 -11t99.5 -31l-34 -78q-38 17 -85.5 29t-98.5 12q-128 0 -199.5 -77t-71.5 -211q0 -85 27.5 -150.5t86.5 -102t155 -36.5
q47 0 80 5t60 12v212h-157v80zM451 944q12 -22 34.5 -49.5t47 -54t43.5 -45.5v-11h-62q-26 16 -54 39.5t-55 50.5q-27 -27 -54 -50t-53 -40h-60v11q19 20 42.5 46t45.5 53.5t35 49.5h90z" />
    <glyph glyph-name="gcircumflex#0" unicode="&#x11d;" horiz-adv-x="615" 
d="M275 546q53 0 95.5 -20t72.5 -61h5l12 71h70v-545q0 -115 -58.5 -173t-181.5 -58q-118 0 -193 34v81q79 -42 198 -42q69 0 108.5 40.5t39.5 110.5v21q0 12 1 34.5t2 31.5h-4q-54 -81 -166 -81q-104 0 -162.5 73t-58.5 204q0 128 58.5 203.5t161.5 75.5zM287 472
q-67 0 -104 -53.5t-37 -152.5t36.5 -151.5t106.5 -52.5q81 0 118 43.5t37 140.5v21q0 110 -38 157.5t-119 47.5zM343 766q12 -22 34.5 -49.5t47 -54t43.5 -45.5v-11h-62q-26 16 -54 39.5t-55 50.5q-27 -27 -54 -50t-53 -40h-60v11q19 20 42.5 46t45.5 53.5t35 49.5h90z" />
    <glyph glyph-name="Gbreve#0" unicode="&#x11e;" horiz-adv-x="728" 
d="M407 377h247v-350q-58 -19 -117 -28t-134 -9q-111 0 -187 44.5t-115.5 127t-39.5 195.5q0 112 44 194t126.5 127.5t199.5 45.5q60 0 113.5 -11t99.5 -31l-34 -78q-38 17 -85.5 29t-98.5 12q-128 0 -199.5 -77t-71.5 -211q0 -85 27.5 -150.5t86.5 -102t155 -36.5
q47 0 80 5t60 12v212h-157v80zM565 918q-5 -60 -45.5 -97t-112.5 -37q-74 0 -111.5 36.5t-41.5 97.5h54q5 -41 30 -52t71 -11q39 0 67.5 12t33.5 51h55z" />
    <glyph glyph-name="gbreve#0" unicode="&#x11f;" horiz-adv-x="615" 
d="M275 546q53 0 95.5 -20t72.5 -61h5l12 71h70v-545q0 -115 -58.5 -173t-181.5 -58q-118 0 -193 34v81q79 -42 198 -42q69 0 108.5 40.5t39.5 110.5v21q0 12 1 34.5t2 31.5h-4q-54 -81 -166 -81q-104 0 -162.5 73t-58.5 204q0 128 58.5 203.5t161.5 75.5zM287 472
q-67 0 -104 -53.5t-37 -152.5t36.5 -151.5t106.5 -52.5q81 0 118 43.5t37 140.5v21q0 110 -38 157.5t-119 47.5zM457 740q-5 -60 -45.5 -97t-112.5 -37q-74 0 -111.5 36.5t-41.5 97.5h54q5 -41 30 -52t71 -11q39 0 67.5 12t33.5 51h55z" />
    <glyph glyph-name="Gdot#0" unicode="&#x120;" horiz-adv-x="728" 
d="M407 377h247v-350q-58 -19 -117 -28t-134 -9q-111 0 -187 44.5t-115.5 127t-39.5 195.5q0 112 44 194t126.5 127.5t199.5 45.5q60 0 113.5 -11t99.5 -31l-34 -78q-38 17 -85.5 29t-98.5 12q-128 0 -199.5 -77t-71.5 -211q0 -85 27.5 -150.5t86.5 -102t155 -36.5
q47 0 80 5t60 12v212h-157v80zM408 915q20 0 35.5 -13.5t15.5 -42.5q0 -28 -15.5 -42t-35.5 -14q-22 0 -37 14t-15 42q0 29 15 42.5t37 13.5z" />
    <glyph glyph-name="gdot#0" unicode="&#x121;" horiz-adv-x="615" 
d="M275 546q53 0 95.5 -20t72.5 -61h5l12 71h70v-545q0 -115 -58.5 -173t-181.5 -58q-118 0 -193 34v81q79 -42 198 -42q69 0 108.5 40.5t39.5 110.5v21q0 12 1 34.5t2 31.5h-4q-54 -81 -166 -81q-104 0 -162.5 73t-58.5 204q0 128 58.5 203.5t161.5 75.5zM287 472
q-67 0 -104 -53.5t-37 -152.5t36.5 -151.5t106.5 -52.5q81 0 118 43.5t37 140.5v21q0 110 -38 157.5t-119 47.5zM300 737q20 0 35.5 -13.5t15.5 -42.5q0 -28 -15.5 -42t-35.5 -14q-22 0 -37 14t-15 42q0 29 15 42.5t37 13.5z" />
    <glyph glyph-name="uni0122#0" unicode="&#x122;" horiz-adv-x="728" 
d="M407 377h247v-350q-58 -19 -117 -28t-134 -9q-111 0 -187 44.5t-115.5 127t-39.5 195.5q0 112 44 194t126.5 127.5t199.5 45.5q60 0 113.5 -11t99.5 -31l-34 -78q-38 17 -85.5 29t-98.5 12q-128 0 -199.5 -77t-71.5 -211q0 -85 27.5 -150.5t86.5 -102t155 -36.5
q47 0 80 5t60 12v212h-157v80zM466 -61v-9q-4 -18 -16.5 -45.5t-29 -55.5t-34.5 -50h-48v12q8 17 16.5 43.5t15.5 55t9 49.5h87z" />
    <glyph glyph-name="uni0123#0" unicode="&#x123;" horiz-adv-x="615" 
d="M275 546q53 0 95.5 -20t72.5 -61h5l12 71h70v-545q0 -115 -58.5 -173t-181.5 -58q-118 0 -193 34v81q79 -42 198 -42q69 0 108.5 40.5t39.5 110.5v21q0 12 1 34.5t2 31.5h-4q-54 -81 -166 -81q-104 0 -162.5 73t-58.5 204q0 128 58.5 203.5t161.5 75.5zM287 472
q-67 0 -104 -53.5t-37 -152.5t36.5 -151.5t106.5 -52.5q81 0 118 43.5t37 140.5v21q0 110 -38 157.5t-119 47.5zM363 766v-12q-8 -17 -16.5 -43.5t-15.5 -54.5t-10 -50h-87v9q5 18 17 45t28.5 55.5t34.5 50.5h49z" />
    <glyph glyph-name="Hcircumflex#0" unicode="&#x124;" horiz-adv-x="741" 
d="M643 0h-90v333h-366v-333h-90v714h90v-302h366v302h90v-714zM417 944q12 -22 34.5 -49.5t47 -54t43.5 -45.5v-11h-62q-26 16 -54 39.5t-55 50.5q-27 -27 -54 -50t-53 -40h-60v11q19 20 42.5 46t45.5 53.5t35 49.5h90z" />
    <glyph glyph-name="hcircumflex#0" unicode="&#x125;" horiz-adv-x="618" 
d="M173 760v-223q0 -40 -5 -75h6q26 41 70.5 62t96.5 21q98 0 147 -46.5t49 -149.5v-349h-87v343q0 129 -120 129q-90 0 -123.5 -50.5t-33.5 -144.5v-277h-88v760h88zM176 990q12 -22 34.5 -49.5t47 -54t43.5 -45.5v-11h-62q-26 16 -54 39.5t-55 50.5q-27 -27 -54 -50
t-53 -40h-60v11q19 20 42.5 46t45.5 53.5t35 49.5h90z" />
    <glyph glyph-name="Hbar#0" unicode="&#x126;" horiz-adv-x="741" 
d="M97 0v523h-97v72h97v119h90v-119h366v119h90v-119h97v-72h-97v-523h-90v333h-366v-333h-90zM187 412h366v111h-366v-111z" />
    <glyph glyph-name="hbar#0" unicode="&#x127;" horiz-adv-x="618" 
d="M173 760v-90h212v-66h-212v-87q0 -19 -1.5 -38.5t-3.5 -35.5h6q26 41 71 62t97 21q97 0 146 -47t49 -150v-329h-87v323q0 129 -120 129q-90 0 -123.5 -50t-33.5 -144v-258h-88v604h-76v66h76v90h88z" />
    <glyph glyph-name="Itilde#0" unicode="&#x128;" horiz-adv-x="285" 
d="M97 0v714h90v-714h-90zM-40 784q6 59 34.5 93.5t75.5 34.5q30 0 56.5 -14.5t50.5 -28.5t45 -14q23 0 35.5 14.5t19.5 43.5h50q-6 -58 -34 -93t-75 -35q-28 0 -54.5 14t-51 28.5t-46.5 14.5q-24 0 -36 -14.5t-19 -43.5h-51z" />
    <glyph glyph-name="itilde#0" unicode="&#x129;" horiz-adv-x="258" 
d="M173 0h-88v536h88v-536zM-55 606q6 59 34.5 93.5t75.5 34.5q30 0 56.5 -14.5t50.5 -28.5t45 -14q23 0 35.5 14.5t19.5 43.5h50q-6 -58 -34 -93t-75 -35q-28 0 -54.5 14t-51 28.5t-46.5 14.5q-24 0 -36 -14.5t-19 -43.5h-51z" />
    <glyph glyph-name="Imacron#0" unicode="&#x12a;" horiz-adv-x="285" 
d="M97 0v714h90v-714h-90zM291 855v-71h-297v71h297z" />
    <glyph glyph-name="imacron#0" unicode="&#x12b;" horiz-adv-x="258" 
d="M173 0h-88v536h88v-536zM277 677v-71h-297v71h297z" />
    <glyph glyph-name="Ibreve#0" unicode="&#x12c;" horiz-adv-x="285" 
d="M97 0v714h90v-714h-90zM298 918q-5 -60 -45.5 -97t-112.5 -37q-74 0 -111.5 36.5t-41.5 97.5h54q5 -41 30 -52t71 -11q39 0 67.5 12t33.5 51h55z" />
    <glyph glyph-name="ibreve#0" unicode="&#x12d;" horiz-adv-x="258" 
d="M173 0h-88v536h88v-536zM289 740q-5 -60 -45.5 -97t-112.5 -37q-74 0 -111.5 36.5t-41.5 97.5h54q5 -41 30 -52t71 -11q39 0 67.5 12t33.5 51h55z" />
    <glyph glyph-name="Iogonek#0" unicode="&#x12e;" horiz-adv-x="285" 
d="M97 0v714h90v-714h-90zM119 -116q0 -45 45 -45q17 0 28.5 2.5t19.5 3.5v-56q-14 -4 -28 -6.5t-34 -2.5q-53 0 -78 25t-25 69q0 29 14.5 56t36 49t41.5 36l48 -15q-34 -32 -51 -58.5t-17 -57.5z" />
    <glyph glyph-name="iogonek#0" unicode="&#x12f;" horiz-adv-x="258" 
d="M130 737q20 0 35.5 -13.5t15.5 -42.5q0 -28 -15.5 -42t-35.5 -14q-22 0 -37 14t-15 42q0 29 15 42.5t37 13.5zM173 536v-536h-88v536h88zM99 -116q0 -45 45 -45q17 0 28.5 2.5t19.5 3.5v-56q-14 -4 -28 -6.5t-34 -2.5q-53 0 -78 25t-25 69q0 29 14.5 56t36 49t41.5 36
l48 -15q-34 -32 -51 -58.5t-17 -57.5z" />
    <glyph glyph-name="Idotaccent#0" unicode="&#x130;" horiz-adv-x="285" 
d="M97 0v714h90v-714h-90zM144 915q20 0 35.5 -13.5t15.5 -42.5q0 -28 -15.5 -42t-35.5 -14q-22 0 -37 14t-15 42q0 29 15 42.5t37 13.5z" />
    <glyph glyph-name="dotlessi#0" unicode="&#x131;" horiz-adv-x="258" 
d="M173 0h-88v536h88v-536z" />
    <glyph glyph-name="IJ#0" unicode="&#x132;" horiz-adv-x="698" 
d="M97 0v714h90v-714h-90zM421 -11q-35 0 -61.5 7t-46.5 18v76q23 -10 49.5 -16t56.5 -6q25 0 47.5 10t36.5 35t14 70v531h90v-524q0 -103 -51 -152t-135 -49z" />
    <glyph glyph-name="ij#0" unicode="&#x133;" horiz-adv-x="516" 
d="M130 737q20 0 35.5 -13.5t15.5 -42.5q0 -28 -15.5 -42t-35.5 -14q-22 0 -37 14t-15 42q0 29 15 42.5t37 13.5zM173 536v-536h-88v536h88zM336 681q0 29 15 42.5t37 13.5q20 0 35.5 -13.5t15.5 -42.5q0 -28 -15.5 -42t-35.5 -14q-22 0 -37 14t-15 42zM280 -240
q-25 0 -44 3.5t-33 8.5v71q15 -4 31 -7t35 -3q32 0 53 17.5t21 66.5v619h88v-616q0 -75 -36 -117.5t-115 -42.5z" />
    <glyph glyph-name="Jcircumflex#0" unicode="&#x134;" horiz-adv-x="413" 
d="M136 -11q-35 0 -61.5 7t-46.5 18v76q23 -10 49.5 -16t56.5 -6q25 0 47.5 10t36.5 35t14 70v531h90v-524q0 -103 -51 -152t-135 -49zM321 944q12 -22 34.5 -49.5t47 -54t43.5 -45.5v-11h-62q-26 16 -54 39.5t-55 50.5q-27 -27 -54 -50t-53 -40h-60v11q19 20 42.5 46
t45.5 53.5t35 49.5h90z" />
    <glyph glyph-name="jcircumflex#0" unicode="&#x135;" horiz-adv-x="258" 
d="M22 -240q-25 0 -44 3.5t-33 8.5v71q15 -4 31 -7t35 -3q32 0 53 17.5t21 66.5v619h88v-616q0 -75 -36 -117.5t-115 -42.5zM175 766q12 -22 34.5 -49.5t47 -54t43.5 -45.5v-11h-62q-26 16 -54 39.5t-55 50.5q-27 -27 -54 -50t-53 -40h-60v11q19 20 42.5 46t45.5 53.5
t35 49.5h90z" />
    <glyph glyph-name="uni0136#0" unicode="&#x136;" horiz-adv-x="619" 
d="M619 0h-106l-253 341l-73 -64v-277h-90v714h90v-352q30 34 61 68l62 68l193 216h105l-283 -311zM394 -61v-9q-4 -18 -16.5 -45.5t-29 -55.5t-34.5 -50h-48v12q8 17 16.5 43.5t15.5 55t9 49.5h87z" />
    <glyph glyph-name="uni0137#0" unicode="&#x137;" horiz-adv-x="534" 
d="M172 760v-397q0 -16 -1.5 -42t-2.5 -45h4q6 8 18 23t24.5 30.5t21.5 25.5l171 181h103l-217 -229l232 -307h-106l-186 250l-61 -53v-197h-87v760h87zM331 -61v-9q-4 -18 -16.5 -45.5t-29 -55.5t-34.5 -50h-48v12q8 17 16.5 43.5t15.5 55t9 49.5h87z" />
    <glyph glyph-name="kgreenlandic#0" unicode="&#x138;" horiz-adv-x="534" 
d="M509 536l-203 -237l219 -299h-105l-176 242l-66 -54v-188h-93v536h93v-139q0 -40 -2 -78t-4 -58h2q9 13 19.5 26.5t19.5 24.5l190 224h106z" />
    <glyph glyph-name="Lacute#0" unicode="&#x139;" horiz-adv-x="524" 
d="M97 0v714h90v-634h312v-80h-402zM281 944v-10q-12 -18 -37 -46.5t-53.5 -57t-52.5 -46.5h-58v12q15 19 32.5 45t34.5 53.5t28 49.5h106z" />
    <glyph glyph-name="lacute#0" unicode="&#x13a;" horiz-adv-x="258" 
d="M173 0h-88v760h88v-760zM270 990v-10q-12 -18 -37 -46.5t-53.5 -57t-52.5 -46.5h-58v12q15 19 32.5 45t34.5 53.5t28 49.5h106z" />
    <glyph glyph-name="uni013B#0" unicode="&#x13b;" horiz-adv-x="524" 
d="M97 0v714h90v-634h312v-80h-402zM364 -61v-9q-4 -18 -16.5 -45.5t-29 -55.5t-34.5 -50h-48v12q8 17 16.5 43.5t15.5 55t9 49.5h87z" />
    <glyph glyph-name="uni013C#0" unicode="&#x13c;" horiz-adv-x="258" 
d="M173 0h-88v760h88v-760zM193 -61v-9q-4 -18 -16.5 -45.5t-29 -55.5t-34.5 -50h-48v12q8 17 16.5 43.5t15.5 55t9 49.5h87z" />
    <glyph glyph-name="Lcaron#0" unicode="&#x13d;" horiz-adv-x="524" 
d="M97 0v714h90v-634h312v-80h-402zM499 714v-9q-4 -18 -15.5 -45t-26.5 -55.5t-30 -50.5h-48v12q7 19 13.5 45.5t12 54t7.5 48.5h87z" />
    <glyph glyph-name="lcaron#0" unicode="&#x13e;" horiz-adv-x="258" 
d="M173 0h-88v760h88v-760zM337 760v-9q-4 -18 -15.5 -45t-26.5 -55.5t-30 -50.5h-48v12q7 19 13.5 45.5t12 54t7.5 48.5h87z" />
    <glyph glyph-name="Ldot#0" unicode="&#x13f;" horiz-adv-x="524" 
d="M97 0v714h90v-634h312v-80h-402zM383 413q20 0 35.5 -13.5t15.5 -42.5q0 -28 -15.5 -42t-35.5 -14q-22 0 -37 14t-15 42q0 29 15 42.5t37 13.5z" />
    <glyph glyph-name="ldot#0" unicode="&#x140;" horiz-adv-x="268" 
d="M173 0h-88v760h88v-760zM263 435q20 0 35.5 -13.5t15.5 -42.5q0 -28 -15.5 -42t-35.5 -14q-22 0 -37 14t-15 42q0 29 15 42.5t37 13.5z" />
    <glyph glyph-name="Lslash#0" unicode="&#x141;" horiz-adv-x="524" 
d="M97 0v247l-49 -28l-35 60l84 50v385h90v-332l137 81l36 -63l-173 -100v-220h312v-80h-402z" />
    <glyph glyph-name="lslash#0" unicode="&#x142;" horiz-adv-x="258" 
d="M78 0v285l-51 -32l-36 59l87 56v392h88v-335l64 44l37 -59l-101 -68v-342h-88z" />
    <glyph glyph-name="Nacute#0" unicode="&#x143;" horiz-adv-x="760" 
d="M663 0h-105l-382 593h-4q2 -35 5 -87t3 -107v-399h-83v714h104l381 -591h4q-1 16 -2.5 48t-3 70t-1.5 70v403h84v-714zM521 944v-10q-12 -18 -37 -46.5t-53.5 -57t-52.5 -46.5h-58v12q15 19 32.5 45t34.5 53.5t28 49.5h106z" />
    <glyph glyph-name="nacute#0" unicode="&#x144;" horiz-adv-x="618" 
d="M343 546q96 0 145 -46.5t49 -150.5v-349h-87v343q0 129 -120 129q-89 0 -123 -50t-34 -144v-278h-88v536h71l13 -73h5q26 42 72 62.5t97 20.5zM450 766v-10q-12 -18 -37 -46.5t-53.5 -57t-52.5 -46.5h-58v12q15 19 32.5 45t34.5 53.5t28 49.5h106z" />
    <glyph glyph-name="uni0145#0" unicode="&#x145;" horiz-adv-x="760" 
d="M663 0h-105l-382 593h-4q2 -35 5 -87t3 -107v-399h-83v714h104l381 -591h4q-1 16 -2.5 48t-3 70t-1.5 70v403h84v-714zM444 -61v-9q-4 -18 -16.5 -45.5t-29 -55.5t-34.5 -50h-48v12q8 17 16.5 43.5t15.5 55t9 49.5h87z" />
    <glyph glyph-name="uni0146#0" unicode="&#x146;" horiz-adv-x="618" 
d="M343 546q96 0 145 -46.5t49 -150.5v-349h-87v343q0 129 -120 129q-89 0 -123 -50t-34 -144v-278h-88v536h71l13 -73h5q26 42 72 62.5t97 20.5zM373 -61v-9q-4 -18 -16.5 -45.5t-29 -55.5t-34.5 -50h-48v12q8 17 16.5 43.5t15.5 55t9 49.5h87z" />
    <glyph glyph-name="Ncaron#0" unicode="&#x147;" horiz-adv-x="760" 
d="M663 0h-105l-382 593h-4q2 -35 5 -87t3 -107v-399h-83v714h104l381 -591h4q-1 16 -2.5 48t-3 70t-1.5 70v403h84v-714zM334 784q-13 23 -35 49.5t-46 52.5t-42 45v13h60q26 -17 54 -41t53 -51q27 27 55 51t54 41h62v-13q-19 -19 -43.5 -45t-47 -52.5t-34.5 -49.5h-90z
" />
    <glyph glyph-name="ncaron#0" unicode="&#x148;" horiz-adv-x="618" 
d="M343 546q96 0 145 -46.5t49 -150.5v-349h-87v343q0 129 -120 129q-89 0 -123 -50t-34 -144v-278h-88v536h71l13 -73h5q26 42 72 62.5t97 20.5zM263 606q-13 23 -35 49.5t-46 52.5t-42 45v13h60q26 -17 54 -41t53 -51q27 27 55 51t54 41h62v-13q-19 -19 -43.5 -45
t-47 -52.5t-34.5 -49.5h-90z" />
    <glyph glyph-name="napostrophe#0" unicode="&#x149;" horiz-adv-x="688" 
d="M413 546q96 0 145 -46.5t49 -150.5v-349h-87v343q0 129 -120 129q-89 0 -123 -50t-34 -144v-278h-88v536h71l13 -73h5q26 42 72 62.5t97 20.5zM145 714l7 -11q-13 -52 -37.5 -116.5t-48.5 -117.5h-65q10 38 19.5 81.5t17.5 86t13 77.5h94z" />
    <glyph glyph-name="Eng#0" unicode="&#x14a;" horiz-adv-x="760" 
d="M475 -190q-25 0 -43.5 3.5t-32.5 9.5v76q16 -4 35 -7t41 -3q26 0 49.5 9.5t39 34t15.5 67.5l-403 593h-4q2 -19 3.5 -54t3 -75t1.5 -77v-387h-83v714h104l381 -572h4q-3 32 -5 88.5t-2 111.5v372h84v-708q0 -100 -51 -148t-137 -48z" />
    <glyph glyph-name="eng#0" unicode="&#x14b;" horiz-adv-x="618" 
d="M394 -240q-24 0 -41 3.5t-30 8.5v71q14 -4 28 -7t32 -3q29 0 48 17.5t19 66.5v427q0 128 -119 128q-89 0 -123.5 -49.5t-34.5 -143.5v-279h-88v536h71l14 -73h5q26 42 70.5 62.5t96.5 20.5q98 0 147 -46.5t49 -149.5v-430q0 -75 -35 -117.5t-109 -42.5z" />
    <glyph glyph-name="Omacron#0" unicode="&#x14c;" horiz-adv-x="781" 
d="M720 358q0 -111 -37.5 -193.5t-110.5 -128.5t-181 -46q-111 0 -184.5 46t-109.5 129t-36 194q0 110 36 192t109.5 128t185.5 46q107 0 180 -45.5t110.5 -128t37.5 -193.5zM156 358q0 -135 57 -212.5t178 -77.5q122 0 178 77.5t56 212.5t-56 211.5t-177 76.5t-178.5 -76.5
t-57.5 -211.5zM539 855v-71h-297v71h297z" />
    <glyph glyph-name="omacron#0" unicode="&#x14d;" horiz-adv-x="605" 
d="M551 269q0 -133 -67.5 -206t-182.5 -73q-71 0 -126.5 32.5t-87.5 95t-32 151.5q0 133 67 205t182 72q73 0 128.5 -32.5t87 -94t31.5 -150.5zM146 269q0 -95 37.5 -150.5t119.5 -55.5q81 0 119 55.5t38 150.5t-38 149t-120 54t-119 -54t-37 -149zM451 677v-71h-297v71h297
z" />
    <glyph glyph-name="Obreve#0" unicode="&#x14e;" horiz-adv-x="781" 
d="M720 358q0 -111 -37.5 -193.5t-110.5 -128.5t-181 -46q-111 0 -184.5 46t-109.5 129t-36 194q0 110 36 192t109.5 128t185.5 46q107 0 180 -45.5t110.5 -128t37.5 -193.5zM156 358q0 -135 57 -212.5t178 -77.5q122 0 178 77.5t56 212.5t-56 211.5t-177 76.5t-178.5 -76.5
t-57.5 -211.5zM551 918q-5 -60 -45.5 -97t-112.5 -37q-74 0 -111.5 36.5t-41.5 97.5h54q5 -41 30 -52t71 -11q39 0 67.5 12t33.5 51h55z" />
    <glyph glyph-name="obreve#0" unicode="&#x14f;" horiz-adv-x="605" 
d="M551 269q0 -133 -67.5 -206t-182.5 -73q-71 0 -126.5 32.5t-87.5 95t-32 151.5q0 133 67 205t182 72q73 0 128.5 -32.5t87 -94t31.5 -150.5zM146 269q0 -95 37.5 -150.5t119.5 -55.5q81 0 119 55.5t38 150.5t-38 149t-120 54t-119 -54t-37 -149zM463 740
q-5 -60 -45.5 -97t-112.5 -37q-74 0 -111.5 36.5t-41.5 97.5h54q5 -41 30 -52t71 -11q39 0 67.5 12t33.5 51h55z" />
    <glyph glyph-name="Ohungarumlaut#0" unicode="&#x150;" horiz-adv-x="781" 
d="M720 358q0 -111 -37.5 -193.5t-110.5 -128.5t-181 -46q-111 0 -184.5 46t-109.5 129t-36 194q0 110 36 192t109.5 128t185.5 46q107 0 180 -45.5t110.5 -128t37.5 -193.5zM156 358q0 -135 57 -212.5t178 -77.5q122 0 178 77.5t56 212.5t-56 211.5t-177 76.5t-178.5 -76.5
t-57.5 -211.5zM626 944v-10q-10 -17 -33 -46t-50 -57.5t-50 -46.5h-50v12q14 19 30 45t31.5 53.5t25.5 49.5h96zM450 944v-10q-10 -17 -33 -46t-50 -57.5t-50 -46.5h-50v12q21 29 46 71.5t41 76.5h96z" />
    <glyph glyph-name="ohungarumlaut#0" unicode="&#x151;" horiz-adv-x="605" 
d="M551 269q0 -133 -67.5 -206t-182.5 -73q-71 0 -126.5 32.5t-87.5 95t-32 151.5q0 133 67 205t182 72q73 0 128.5 -32.5t87 -94t31.5 -150.5zM146 269q0 -95 37.5 -150.5t119.5 -55.5q81 0 119 55.5t38 150.5t-38 149t-120 54t-119 -54t-37 -149zM538 766v-10
q-10 -17 -33 -46t-50 -57.5t-50 -46.5h-50v12q14 19 30 45t31.5 53.5t25.5 49.5h96zM362 766v-10q-10 -17 -33 -46t-50 -57.5t-50 -46.5h-50v12q21 29 46 71.5t41 76.5h96z" />
    <glyph glyph-name="OE#0" unicode="&#x152;" horiz-adv-x="928" 
d="M386 725q50 0 96 -11h386v-79h-287v-223h268v-78h-268v-255h287v-79h-380q-22 -4 -46.5 -7t-50.5 -3q-111 0 -184.5 46t-109.5 129t-36 194t35.5 193t108 127.5t181.5 45.5zM394 646q-123 0 -181 -76.5t-58 -211.5t58 -212.5t180 -77.5q57 0 99 17v545q-41 16 -98 16z
" />
    <glyph glyph-name="oe#0" unicode="&#x153;" horiz-adv-x="946" 
d="M677 545q101 0 159 -65.5t58 -175.5v-53h-356q2 -96 43.5 -141t118.5 -45q53 0 91.5 9.5t78.5 27.5v-77q-40 -18 -79 -26.5t-92 -8.5q-68 0 -120 28t-84 83q-31 -55 -82 -83t-117 -28q-70 0 -124.5 32.5t-86 95t-31.5 151.5q0 132 65.5 204t179.5 72q63 0 113 -28t80 -82
q29 53 76.5 81.5t108.5 28.5zM676 473q-60 0 -95 -39t-41 -113h261q0 69 -30 110.5t-95 41.5zM295 472q-79 0 -114 -51t-35 -152t36 -153.5t115 -52.5q78 0 114 51t36 151q0 104 -36.5 155.5t-115.5 51.5z" />
    <glyph glyph-name="Racute#0" unicode="&#x154;" horiz-adv-x="622" 
d="M294 714q133 0 196.5 -50.5t63.5 -152.5q0 -57 -21 -95t-53.5 -60.5t-68.5 -35.5l196 -320h-105l-173 295h-142v-295h-90v714h197zM289 636h-102v-265h107q87 0 127 34.5t40 101.5q0 70 -42 99.5t-130 29.5zM452 944v-10q-12 -18 -37 -46.5t-53.5 -57t-52.5 -46.5h-58v12
q15 19 32.5 45t34.5 53.5t28 49.5h106z" />
    <glyph glyph-name="racute#0" unicode="&#x155;" horiz-adv-x="413" 
d="M335 546q15 0 32.5 -1.5t30.5 -4.5l-11 -81q-13 3 -28.5 5t-29.5 2q-41 0 -77 -22.5t-57.5 -63t-21.5 -94.5v-286h-88v536h72l10 -98h4q26 44 67 76t97 32zM381 766v-10q-12 -18 -37 -46.5t-53.5 -57t-52.5 -46.5h-58v12q15 19 32.5 45t34.5 53.5t28 49.5h106z" />
    <glyph glyph-name="uni0156#0" unicode="&#x156;" horiz-adv-x="622" 
d="M294 714q133 0 196.5 -50.5t63.5 -152.5q0 -57 -21 -95t-53.5 -60.5t-68.5 -35.5l196 -320h-105l-173 295h-142v-295h-90v714h197zM289 636h-102v-265h107q87 0 127 34.5t40 101.5q0 70 -42 99.5t-130 29.5zM392 -61v-9q-4 -18 -16.5 -45.5t-29 -55.5t-34.5 -50h-48v12
q8 17 16.5 43.5t15.5 55t9 49.5h87z" />
    <glyph glyph-name="uni0157#0" unicode="&#x157;" horiz-adv-x="413" 
d="M335 546q15 0 32.5 -1.5t30.5 -4.5l-11 -81q-13 3 -28.5 5t-29.5 2q-41 0 -77 -22.5t-57.5 -63t-21.5 -94.5v-286h-88v536h72l10 -98h4q26 44 67 76t97 32zM190 -61v-9q-4 -18 -16.5 -45.5t-29 -55.5t-34.5 -50h-48v12q8 17 16.5 43.5t15.5 55t9 49.5h87z" />
    <glyph glyph-name="Rcaron#0" unicode="&#x158;" horiz-adv-x="622" 
d="M294 714q133 0 196.5 -50.5t63.5 -152.5q0 -57 -21 -95t-53.5 -60.5t-68.5 -35.5l196 -320h-105l-173 295h-142v-295h-90v714h197zM289 636h-102v-265h107q87 0 127 34.5t40 101.5q0 70 -42 99.5t-130 29.5zM265 784q-13 23 -35 49.5t-46 52.5t-42 45v13h60
q26 -17 54 -41t53 -51q27 27 55 51t54 41h62v-13q-19 -19 -43.5 -45t-47 -52.5t-34.5 -49.5h-90z" />
    <glyph glyph-name="rcaron#0" unicode="&#x159;" horiz-adv-x="413" 
d="M335 546q15 0 32.5 -1.5t30.5 -4.5l-11 -81q-13 3 -28.5 5t-29.5 2q-41 0 -77 -22.5t-57.5 -63t-21.5 -94.5v-286h-88v536h72l10 -98h4q26 44 67 76t97 32zM194 606q-13 23 -35 49.5t-46 52.5t-42 45v13h60q26 -17 54 -41t53 -51q27 27 55 51t54 41h62v-13
q-19 -19 -43.5 -45t-47 -52.5t-34.5 -49.5h-90z" />
    <glyph glyph-name="Sacute#0" unicode="&#x15a;" horiz-adv-x="549" 
d="M502 191q0 -95 -69 -148t-186 -53q-60 0 -111 9t-85 25v86q36 -16 89.5 -29t110.5 -13q80 0 120.5 31t40.5 84q0 35 -15 59t-51.5 44.5t-101.5 43.5q-91 33 -137.5 81t-46.5 131q0 57 29 97.5t80.5 62.5t118.5 22q59 0 108 -11t89 -29l-28 -77q-37 16 -80.5 27t-90.5 11
q-67 0 -101 -28.5t-34 -75.5q0 -36 15 -60t49 -43t92 -41q63 -23 106.5 -49.5t66 -63.5t22.5 -93zM426 944v-10q-12 -18 -37 -46.5t-53.5 -57t-52.5 -46.5h-58v12q15 19 32.5 45t34.5 53.5t28 49.5h106z" />
    <glyph glyph-name="sacute#0" unicode="&#x15b;" horiz-adv-x="479" 
d="M434 148q0 -78 -58 -118t-156 -40q-56 0 -96.5 9t-71.5 25v80q32 -16 77.5 -29.5t92.5 -13.5q67 0 97 21.5t30 57.5q0 20 -11 36t-39.5 32t-81.5 36q-52 20 -89 40t-57 48t-20 72q0 68 55.5 105t145.5 37q49 0 91.5 -9.5t79.5 -26.5l-30 -70q-34 14 -71 24t-76 10
q-54 0 -82.5 -17.5t-28.5 -47.5q0 -22 13 -37.5t43.5 -30t81.5 -34.5q51 -19 87 -39t55 -48.5t19 -71.5zM381 766v-10q-12 -18 -37 -46.5t-53.5 -57t-52.5 -46.5h-58v12q15 19 32.5 45t34.5 53.5t28 49.5h106z" />
    <glyph glyph-name="Scircumflex#0" unicode="&#x15c;" horiz-adv-x="549" 
d="M502 191q0 -95 -69 -148t-186 -53q-60 0 -111 9t-85 25v86q36 -16 89.5 -29t110.5 -13q80 0 120.5 31t40.5 84q0 35 -15 59t-51.5 44.5t-101.5 43.5q-91 33 -137.5 81t-46.5 131q0 57 29 97.5t80.5 62.5t118.5 22q59 0 108 -11t89 -29l-28 -77q-37 16 -80.5 27t-90.5 11
q-67 0 -101 -28.5t-34 -75.5q0 -36 15 -60t49 -43t92 -41q63 -23 106.5 -49.5t66 -63.5t22.5 -93zM331 944q12 -22 34.5 -49.5t47 -54t43.5 -45.5v-11h-62q-26 16 -54 39.5t-55 50.5q-27 -27 -54 -50t-53 -40h-60v11q19 20 42.5 46t45.5 53.5t35 49.5h90z" />
    <glyph glyph-name="scircumflex#0" unicode="&#x15d;" horiz-adv-x="479" 
d="M434 148q0 -78 -58 -118t-156 -40q-56 0 -96.5 9t-71.5 25v80q32 -16 77.5 -29.5t92.5 -13.5q67 0 97 21.5t30 57.5q0 20 -11 36t-39.5 32t-81.5 36q-52 20 -89 40t-57 48t-20 72q0 68 55.5 105t145.5 37q49 0 91.5 -9.5t79.5 -26.5l-30 -70q-34 14 -71 24t-76 10
q-54 0 -82.5 -17.5t-28.5 -47.5q0 -22 13 -37.5t43.5 -30t81.5 -34.5q51 -19 87 -39t55 -48.5t19 -71.5zM286 766q12 -22 34.5 -49.5t47 -54t43.5 -45.5v-11h-62q-26 16 -54 39.5t-55 50.5q-27 -27 -54 -50t-53 -40h-60v11q19 20 42.5 46t45.5 53.5t35 49.5h90z" />
    <glyph glyph-name="Scedilla#0" unicode="&#x15e;" horiz-adv-x="549" 
d="M502 191q0 -95 -69 -148t-186 -53q-60 0 -111 9t-85 25v86q36 -16 89.5 -29t110.5 -13q80 0 120.5 31t40.5 84q0 35 -15 59t-51.5 44.5t-101.5 43.5q-91 33 -137.5 81t-46.5 131q0 57 29 97.5t80.5 62.5t118.5 22q59 0 108 -11t89 -29l-28 -77q-37 16 -80.5 27t-90.5 11
q-67 0 -101 -28.5t-34 -75.5q0 -36 15 -60t49 -43t92 -41q63 -23 106.5 -49.5t66 -63.5t22.5 -93zM358 -139q0 -48 -37 -74.5t-111 -26.5q-32 0 -50 5v55q9 -2 24 -3.5t29 -1.5q36 0 55 9.5t19 34.5q0 26 -26.5 38t-64.5 17l43 86h58l-26 -53q36 -8 61.5 -28t25.5 -58z" />
    <glyph glyph-name="scedilla#0" unicode="&#x15f;" horiz-adv-x="479" 
d="M434 148q0 -78 -58 -118t-156 -40q-56 0 -96.5 9t-71.5 25v80q32 -16 77.5 -29.5t92.5 -13.5q67 0 97 21.5t30 57.5q0 20 -11 36t-39.5 32t-81.5 36q-52 20 -89 40t-57 48t-20 72q0 68 55.5 105t145.5 37q49 0 91.5 -9.5t79.5 -26.5l-30 -70q-34 14 -71 24t-76 10
q-54 0 -82.5 -17.5t-28.5 -47.5q0 -22 13 -37.5t43.5 -30t81.5 -34.5q51 -19 87 -39t55 -48.5t19 -71.5zM341 -139q0 -48 -37 -74.5t-111 -26.5q-32 0 -50 5v55q9 -2 24 -3.5t29 -1.5q36 0 55 9.5t19 34.5q0 26 -26.5 38t-64.5 17l43 86h58l-26 -53q36 -8 61.5 -28t25.5 -58
z" />
    <glyph glyph-name="Scaron#0" unicode="&#x160;" horiz-adv-x="549" 
d="M502 191q0 -95 -69 -148t-186 -53q-60 0 -111 9t-85 25v86q36 -16 89.5 -29t110.5 -13q80 0 120.5 31t40.5 84q0 35 -15 59t-51.5 44.5t-101.5 43.5q-91 33 -137.5 81t-46.5 131q0 57 29 97.5t80.5 62.5t118.5 22q59 0 108 -11t89 -29l-28 -77q-37 16 -80.5 27t-90.5 11
q-67 0 -101 -28.5t-34 -75.5q0 -36 15 -60t49 -43t92 -41q63 -23 106.5 -49.5t66 -63.5t22.5 -93zM239 784q-13 23 -35 49.5t-46 52.5t-42 45v13h60q26 -17 54 -41t53 -51q27 27 55 51t54 41h62v-13q-19 -19 -43.5 -45t-47 -52.5t-34.5 -49.5h-90z" />
    <glyph glyph-name="scaron#0" unicode="&#x161;" horiz-adv-x="479" 
d="M434 148q0 -78 -58 -118t-156 -40q-56 0 -96.5 9t-71.5 25v80q32 -16 77.5 -29.5t92.5 -13.5q67 0 97 21.5t30 57.5q0 20 -11 36t-39.5 32t-81.5 36q-52 20 -89 40t-57 48t-20 72q0 68 55.5 105t145.5 37q49 0 91.5 -9.5t79.5 -26.5l-30 -70q-34 14 -71 24t-76 10
q-54 0 -82.5 -17.5t-28.5 -47.5q0 -22 13 -37.5t43.5 -30t81.5 -34.5q51 -19 87 -39t55 -48.5t19 -71.5zM194 606q-13 23 -35 49.5t-46 52.5t-42 45v13h60q26 -17 54 -41t53 -51q27 27 55 51t54 41h62v-13q-19 -19 -43.5 -45t-47 -52.5t-34.5 -49.5h-90z" />
    <glyph glyph-name="uni0162#0" unicode="&#x162;" horiz-adv-x="556" 
d="M323 0h-90v635h-223v79h535v-79h-222v-635zM379 -139q0 -48 -37 -74.5t-111 -26.5q-32 0 -50 5v55q9 -2 24 -3.5t29 -1.5q36 0 55 9.5t19 34.5q0 26 -26.5 38t-64.5 17l43 86h58l-26 -53q36 -8 61.5 -28t25.5 -58z" />
    <glyph glyph-name="uni0163#0" unicode="&#x163;" horiz-adv-x="361" 
d="M264 62q20 0 41 3.5t34 7.5v-67q-14 -7 -40 -11.5t-50 -4.5q-42 0 -77.5 14.5t-57.5 50.5t-22 101v312h-76v42l77 35l35 114h52v-123h155v-68h-155v-310q0 -49 23.5 -72.5t60.5 -23.5zM315 -139q0 -48 -37 -74.5t-111 -26.5q-32 0 -50 5v55q9 -2 24 -3.5t29 -1.5
q36 0 55 9.5t19 34.5q0 26 -26.5 38t-64.5 17l43 86h58l-26 -53q36 -8 61.5 -28t25.5 -58z" />
    <glyph glyph-name="Tcaron#0" unicode="&#x164;" horiz-adv-x="556" 
d="M323 0h-90v635h-223v79h535v-79h-222v-635zM232 784q-13 23 -35 49.5t-46 52.5t-42 45v13h60q26 -17 54 -41t53 -51q27 27 55 51t54 41h62v-13q-19 -19 -43.5 -45t-47 -52.5t-34.5 -49.5h-90z" />
    <glyph glyph-name="tcaron#0" unicode="&#x165;" horiz-adv-x="361" 
d="M264 62q20 0 41 3.5t34 7.5v-67q-14 -7 -40 -11.5t-50 -4.5q-42 0 -77.5 14.5t-57.5 50.5t-22 101v312h-76v42l77 35l35 114h52v-123h155v-68h-155v-310q0 -49 23.5 -72.5t60.5 -23.5zM470 760v-9q-4 -18 -15.5 -45t-26.5 -55.5t-30 -50.5h-48v12q7 19 13.5 45.5t12 54
t7.5 48.5h87z" />
    <glyph glyph-name="Tbar#0" unicode="&#x166;" horiz-adv-x="556" 
d="M232 0v325h-149v74h149v235h-222v80h535v-80h-223v-235h148v-74h-148v-325h-90z" />
    <glyph glyph-name="tbar#0" unicode="&#x167;" horiz-adv-x="361" 
d="M24 280v66h302v-66h-302zM264 62q20 0 41 3.5t34 7.5v-67q-14 -7 -40 -11.5t-50 -4.5q-42 0 -77.5 14.5t-57.5 50.5t-22 101v312h-76v42l77 35l35 114h52v-123h155v-68h-155v-310q0 -49 23.5 -72.5t60.5 -23.5z" />
    <glyph glyph-name="Utilde#0" unicode="&#x168;" horiz-adv-x="731" 
d="M640 714v-462q0 -74 -30 -133.5t-91.5 -94t-156.5 -34.5q-133 0 -202.5 72.5t-69.5 191.5v460h90v-463q0 -87 46.5 -135t140.5 -48q97 0 140.5 51.5t43.5 132.5v462h89zM182 784q6 59 34.5 93.5t75.5 34.5q30 0 56.5 -14.5t50.5 -28.5t45 -14q23 0 35.5 14.5t19.5 43.5
h50q-6 -58 -34 -93t-75 -35q-28 0 -54.5 14t-51 28.5t-46.5 14.5q-24 0 -36 -14.5t-19 -43.5h-51z" />
    <glyph glyph-name="utilde#0" unicode="&#x169;" horiz-adv-x="618" 
d="M533 536v-536h-72l-13 71h-4q-26 -42 -72 -61.5t-98 -19.5q-97 0 -146 46.5t-49 148.5v351h89v-345q0 -128 119 -128q89 0 123.5 50t34.5 144v279h88zM125 606q6 59 34.5 93.5t75.5 34.5q30 0 56.5 -14.5t50.5 -28.5t45 -14q23 0 35.5 14.5t19.5 43.5h50q-6 -58 -34 -93
t-75 -35q-28 0 -54.5 14t-51 28.5t-46.5 14.5q-24 0 -36 -14.5t-19 -43.5h-51z" />
    <glyph glyph-name="Umacron#0" unicode="&#x16a;" horiz-adv-x="731" 
d="M640 714v-462q0 -74 -30 -133.5t-91.5 -94t-156.5 -34.5q-133 0 -202.5 72.5t-69.5 191.5v460h90v-463q0 -87 46.5 -135t140.5 -48q97 0 140.5 51.5t43.5 132.5v462h89zM514 855v-71h-297v71h297z" />
    <glyph glyph-name="umacron#0" unicode="&#x16b;" horiz-adv-x="618" 
d="M533 536v-536h-72l-13 71h-4q-26 -42 -72 -61.5t-98 -19.5q-97 0 -146 46.5t-49 148.5v351h89v-345q0 -128 119 -128q89 0 123.5 50t34.5 144v279h88zM457 677v-71h-297v71h297z" />
    <glyph glyph-name="Ubreve#0" unicode="&#x16c;" horiz-adv-x="731" 
d="M640 714v-462q0 -74 -30 -133.5t-91.5 -94t-156.5 -34.5q-133 0 -202.5 72.5t-69.5 191.5v460h90v-463q0 -87 46.5 -135t140.5 -48q97 0 140.5 51.5t43.5 132.5v462h89zM526 918q-5 -60 -45.5 -97t-112.5 -37q-74 0 -111.5 36.5t-41.5 97.5h54q5 -41 30 -52t71 -11
q39 0 67.5 12t33.5 51h55z" />
    <glyph glyph-name="ubreve#0" unicode="&#x16d;" horiz-adv-x="618" 
d="M533 536v-536h-72l-13 71h-4q-26 -42 -72 -61.5t-98 -19.5q-97 0 -146 46.5t-49 148.5v351h89v-345q0 -128 119 -128q89 0 123.5 50t34.5 144v279h88zM469 740q-5 -60 -45.5 -97t-112.5 -37q-74 0 -111.5 36.5t-41.5 97.5h54q5 -41 30 -52t71 -11q39 0 67.5 12t33.5 51
h55z" />
    <glyph glyph-name="Uring#0" unicode="&#x16e;" horiz-adv-x="731" 
d="M640 714v-462q0 -74 -30 -133.5t-91.5 -94t-156.5 -34.5q-133 0 -202.5 72.5t-69.5 191.5v460h90v-463q0 -87 46.5 -135t140.5 -48q97 0 140.5 51.5t43.5 132.5v462h89zM367 784q-49 0 -79 28t-30 78t30 77.5t79 27.5q47 0 79 -27.5t32 -76.5q0 -51 -31.5 -79t-79.5 -28z
M367 834q25 0 40.5 15t15.5 41t-16 41t-40 15t-40 -15t-16 -41t14.5 -41t41.5 -15z" />
    <glyph glyph-name="uring#0" unicode="&#x16f;" horiz-adv-x="618" 
d="M533 536v-536h-72l-13 71h-4q-26 -42 -72 -61.5t-98 -19.5q-97 0 -146 46.5t-49 148.5v351h89v-345q0 -128 119 -128q89 0 123.5 50t34.5 144v279h88zM310 606q-49 0 -79 28t-30 78t30 77.5t79 27.5q47 0 79 -27.5t32 -76.5q0 -51 -31.5 -79t-79.5 -28zM310 656
q25 0 40.5 15t15.5 41t-16 41t-40 15t-40 -15t-16 -41t14.5 -41t41.5 -15z" />
    <glyph glyph-name="Uhungarumlaut#0" unicode="&#x170;" horiz-adv-x="731" 
d="M640 714v-462q0 -74 -30 -133.5t-91.5 -94t-156.5 -34.5q-133 0 -202.5 72.5t-69.5 191.5v460h90v-463q0 -87 46.5 -135t140.5 -48q97 0 140.5 51.5t43.5 132.5v462h89zM601 944v-10q-10 -17 -33 -46t-50 -57.5t-50 -46.5h-50v12q14 19 30 45t31.5 53.5t25.5 49.5h96z
M425 944v-10q-10 -17 -33 -46t-50 -57.5t-50 -46.5h-50v12q21 29 46 71.5t41 76.5h96z" />
    <glyph glyph-name="uhungarumlaut#0" unicode="&#x171;" horiz-adv-x="618" 
d="M533 536v-536h-72l-13 71h-4q-26 -42 -72 -61.5t-98 -19.5q-97 0 -146 46.5t-49 148.5v351h89v-345q0 -128 119 -128q89 0 123.5 50t34.5 144v279h88zM544 766v-10q-10 -17 -33 -46t-50 -57.5t-50 -46.5h-50v12q14 19 30 45t31.5 53.5t25.5 49.5h96zM368 766v-10
q-10 -17 -33 -46t-50 -57.5t-50 -46.5h-50v12q21 29 46 71.5t41 76.5h96z" />
    <glyph glyph-name="Uogonek#0" unicode="&#x172;" horiz-adv-x="731" 
d="M466 -107q0 -29 12 -41.5t33 -12.5q17 0 28.5 2.5t19.5 3.5v-56q-14 -4 -28 -6.5t-34 -2.5q-53 0 -78 26t-25 77q0 32 16 62.5t39 55.5t43 39l63 11q-46 -52 -67.5 -87.5t-21.5 -70.5zM640 714v-462q0 -74 -30 -133.5t-91.5 -94t-156.5 -34.5q-133 0 -202.5 72.5
t-69.5 191.5v460h90v-463q0 -87 46.5 -135t140.5 -48q97 0 140.5 51.5t43.5 132.5v462h89z" />
    <glyph glyph-name="uogonek#0" unicode="&#x173;" horiz-adv-x="618" 
d="M533 536v-536h-72l-13 71h-4q-26 -42 -72 -61.5t-98 -19.5q-97 0 -146 46.5t-49 148.5v351h89v-345q0 -128 119 -128q89 0 123.5 50t34.5 144v279h88zM448 -116q0 -45 45 -45q17 0 28.5 2.5t19.5 3.5v-56q-14 -4 -28 -6.5t-34 -2.5q-53 0 -78 25t-25 69q0 29 14.5 56
t36 49t41.5 36l48 -15q-34 -32 -51 -58.5t-17 -57.5z" />
    <glyph glyph-name="Wcircumflex#0" unicode="&#x174;" horiz-adv-x="930" 
d="M917 714l-190 -714h-91l-139 468l-16 58t-13 51.5l-7 31.5q-1 -13 -10.5 -55.5t-23.5 -88.5l-135 -465h-91l-189 714h94l111 -436q12 -46 20.5 -89t13.5 -81q5 39 15 85t23 90l126 431h93l131 -434q14 -46 24 -91.5t15 -80.5q5 37 14 80.5t21 90.5l110 435h94zM511 944
q12 -22 34.5 -49.5t47 -54t43.5 -45.5v-11h-62q-26 16 -54 39.5t-55 50.5q-27 -27 -54 -50t-53 -40h-60v11q19 20 42.5 46t45.5 53.5t35 49.5h90z" />
    <glyph glyph-name="wcircumflex#0" unicode="&#x175;" horiz-adv-x="786" 
d="M523 1l-92 302q-13 41 -22.5 80.5t-14.5 61.5h-4q-4 -22 -13 -61.5t-23 -81.5l-96 -301h-100l-147 536h91l74 -286q11 -43 21 -87t14 -73h4q4 17 9.5 42t12.5 52.5t14 49.5l95 302h96l92 -302q11 -34 21.5 -74t14.5 -69h4q3 25 13.5 69t22.5 90l75 286h90l-149 -536h-103
zM439 766q12 -22 34.5 -49.5t47 -54t43.5 -45.5v-11h-62q-26 16 -54 39.5t-55 50.5q-27 -27 -54 -50t-53 -40h-60v11q19 20 42.5 46t45.5 53.5t35 49.5h90z" />
    <glyph glyph-name="Ycircumflex#0" unicode="&#x176;" horiz-adv-x="566" 
d="M283 363l186 351h97l-238 -437v-277h-90v273l-238 441h98zM329 944q12 -22 34.5 -49.5t47 -54t43.5 -45.5v-11h-62q-26 16 -54 39.5t-55 50.5q-27 -27 -54 -50t-53 -40h-60v11q19 20 42.5 46t45.5 53.5t35 49.5h90z" />
    <glyph glyph-name="ycircumflex#0" unicode="&#x177;" horiz-adv-x="510" 
d="M1 536h94l116 -305q15 -40 27 -76.5t18 -69.5h4q6 25 19 65.5t27 81.5l109 304h95l-231 -610q-28 -76 -72.5 -121t-122.5 -45q-24 0 -42 2.5t-31 5.5v70q11 -2 26.5 -4t32.5 -2q46 0 74.5 26t44.5 69l28 71zM301 766q12 -22 34.5 -49.5t47 -54t43.5 -45.5v-11h-62
q-26 16 -54 39.5t-55 50.5q-27 -27 -54 -50t-53 -40h-60v11q19 20 42.5 46t45.5 53.5t35 49.5h90z" />
    <glyph glyph-name="Ydieresis#0" unicode="&#x178;" horiz-adv-x="566" 
d="M283 363l186 351h97l-238 -437v-277h-90v273l-238 441h98zM142 859q0 26 14 37.5t33 11.5t33 -11.5t14 -37.5q0 -25 -14 -37.5t-33 -12.5t-33 12.5t-14 37.5zM330 859q0 26 13.5 37.5t32.5 11.5t33 -11.5t14 -37.5q0 -25 -14 -37.5t-33 -12.5t-32.5 12.5t-13.5 37.5z" />
    <glyph glyph-name="Zacute#0" unicode="&#x179;" horiz-adv-x="572" 
d="M533 0h-495v68l376 566h-364v80h473v-68l-376 -566h386v-80zM431 944v-10q-12 -18 -37 -46.5t-53.5 -57t-52.5 -46.5h-58v12q15 19 32.5 45t34.5 53.5t28 49.5h106z" />
    <glyph glyph-name="zacute#0" unicode="&#x17a;" horiz-adv-x="470" 
d="M431 0h-392v58l288 410h-271v68h368v-66l-284 -402h291v-68zM376 766v-10q-12 -18 -37 -46.5t-53.5 -57t-52.5 -46.5h-58v12q15 19 32.5 45t34.5 53.5t28 49.5h106z" />
    <glyph glyph-name="Zdotaccent#0" unicode="&#x17b;" horiz-adv-x="572" 
d="M533 0h-495v68l376 566h-364v80h473v-68l-376 -566h386v-80zM293 915q20 0 35.5 -13.5t15.5 -42.5q0 -28 -15.5 -42t-35.5 -14q-22 0 -37 14t-15 42q0 29 15 42.5t37 13.5z" />
    <glyph glyph-name="zdotaccent#0" unicode="&#x17c;" horiz-adv-x="470" 
d="M431 0h-392v58l288 410h-271v68h368v-66l-284 -402h291v-68zM238 737q20 0 35.5 -13.5t15.5 -42.5q0 -28 -15.5 -42t-35.5 -14q-22 0 -37 14t-15 42q0 29 15 42.5t37 13.5z" />
    <glyph glyph-name="Zcaron#0" unicode="&#x17d;" horiz-adv-x="572" 
d="M533 0h-495v68l376 566h-364v80h473v-68l-376 -566h386v-80zM244 784q-13 23 -35 49.5t-46 52.5t-42 45v13h60q26 -17 54 -41t53 -51q27 27 55 51t54 41h62v-13q-19 -19 -43.5 -45t-47 -52.5t-34.5 -49.5h-90z" />
    <glyph glyph-name="zcaron#0" unicode="&#x17e;" horiz-adv-x="470" 
d="M431 0h-392v58l288 410h-271v68h368v-66l-284 -402h291v-68zM189 606q-13 23 -35 49.5t-46 52.5t-42 45v13h60q26 -17 54 -41t53 -51q27 27 55 51t54 41h62v-13q-19 -19 -43.5 -45t-47 -52.5t-34.5 -49.5h-90z" />
    <glyph glyph-name="longs#0" unicode="&#x17f;" horiz-adv-x="326" 
d="M261 692q-41 0 -64.5 -26t-23.5 -89v-577h-88v577q0 103 48.5 145.5t128.5 42.5q31 0 56 -5.5t44 -13.5l-23 -69q-16 5 -37 10t-41 5z" />
    <glyph glyph-name="uni0180#0" unicode="&#x180;" horiz-adv-x="615" 
d="M339 -10q-63 0 -103 23t-63 55h-7l-18 -68h-63v605h-76v66h76v89h88v-89h213v-66h-213v-30q0 -34 -1.5 -63.5t-3.5 -46.5h5q23 34 63 57t103 23q100 0 160.5 -69.5t60.5 -207.5t-61 -208t-160 -70zM326 63q72 0 107.5 53t35.5 153q0 203 -145 203q-85 0 -118 -49
t-33 -152v-4q0 -99 32.5 -151.5t120.5 -52.5z" />
    <glyph glyph-name="uni0181#0" unicode="&#x181;" horiz-adv-x="730" 
d="M177 0v637h-26q-31 0 -46 -13.5t-15 -36.5q0 -16 3.5 -31.5t6.5 -22.5h-79q-4 11 -7.5 27t-3.5 28q0 65 34.5 95.5t106.5 30.5h230q134 0 202.5 -39.5t68.5 -137.5q0 -63 -35 -104.5t-101 -53.5v-5q45 -7 81.5 -26t57.5 -54t21 -91q0 -97 -66.5 -150t-181.5 -53h-251z
M267 410h132q92 0 126 29.5t34 87.5q0 59 -41.5 84.5t-132.5 25.5h-118v-227zM267 76h144q95 0 132 37t37 97q0 56 -38.5 90.5t-137.5 34.5h-137v-259z" />
    <glyph glyph-name="uni0182#0" unicode="&#x182;" horiz-adv-x="615" 
d="M97 0v714h424v-79h-334v-223h106q107 0 166 -26.5t82 -72t23 -104.5q0 -98 -59 -153.5t-199 -55.5h-209zM187 77h110q96 0 135 32.5t39 99.5q0 69 -43 97t-146 28h-95v-257z" />
    <glyph glyph-name="uni0183#0" unicode="&#x183;" horiz-adv-x="615" 
d="M339 -10q-63 0 -103 23t-63 55h-7l-18 -68h-63v760h421v-74h-333v-111q0 -34 -1.5 -63.5t-3.5 -46.5h5q23 34 63 57t103 23q100 0 160.5 -69.5t60.5 -207.5t-61 -208t-160 -70zM326 63q72 0 107.5 53t35.5 153q0 203 -145 203q-85 0 -118 -49t-33 -152v-4
q0 -99 32.5 -151.5t120.5 -52.5z" />
    <glyph glyph-name="uni0184#0" unicode="&#x184;" horiz-adv-x="635" 
d="M341 -10q-93 0 -148 28t-79 77.5t-24 114.5v504h90v-302h134q100 0 159 -28t85 -75t26 -104q0 -94 -60 -154.5t-183 -60.5zM340 67q80 0 115.5 35.5t35.5 102.5q0 69 -48 99t-140 30h-123v-124q0 -78 37.5 -110.5t122.5 -32.5z" />
    <glyph glyph-name="uni0185#0" unicode="&#x185;" horiz-adv-x="612" 
d="M322 -10q-109 0 -174.5 69.5t-65.5 207.5v493h88v-185q0 -34 -1.5 -63.5t-3.5 -46.5h5q23 34 63 57t103 23q100 0 160.5 -69.5t60.5 -207.5t-63 -208t-172 -70zM323 63q72 0 107.5 53t35.5 153q0 203 -145 203q-85 0 -118 -49t-33 -152v-6q0 -96 40.5 -149t112.5 -53z
" />
    <glyph glyph-name="uni0186#0" unicode="&#x186;" horiz-adv-x="632" 
d="M243 -10q-59 0 -101.5 7t-82.5 22v78q41 -12 82.5 -20t87.5 -8q115 0 181 77t66 211q0 133 -62 210.5t-185 77.5q-48 0 -88.5 -12t-73.5 -27l-36 76q41 20 94 31t118 11q110 0 182.5 -45t109 -127.5t36.5 -195.5q0 -108 -39 -190.5t-112 -129t-177 -46.5z" />
    <glyph glyph-name="uni0187#0" unicode="&#x187;" horiz-adv-x="632" 
d="M636 858q19 0 34.5 -4t25.5 -9v-72q-7 3 -21 6.5t-31 3.5q-47 0 -47 -48v-51l-36 -78q-33 15 -71.5 27t-86.5 12q-115 0 -181 -77t-66 -211q0 -133 61.5 -210.5t184.5 -77.5q47 0 89 8t82 20v-78q-40 -15 -82.5 -22t-101.5 -7q-109 0 -182 45t-109.5 128t-36.5 195
q0 108 39.5 190.5t116.5 129t187 46.5q59 0 117 -14v14q0 65 27 99.5t88 34.5z" />
    <glyph glyph-name="uni0188#0" unicode="&#x188;" horiz-adv-x="503" 
d="M300 -10q-71 0 -126.5 29t-87 90t-31.5 156q0 99 33 161t89.5 91t128.5 29q17 0 33 -2l32 -4v91q0 65 27 99.5t88 34.5q19 0 34.5 -4t25.5 -9v-73q-7 3 -21 6.5t-31 3.5q-47 0 -47 -48v-124l-27 -73q-24 9 -56 17t-60 8q-158 0 -158 -203q0 -97 38.5 -148.5t114.5 -51.5
q44 0 77.5 9t61.5 22v-78q-27 -14 -59.5 -21.5t-78.5 -7.5z" />
    <glyph glyph-name="uni0189#0" unicode="&#x189;" horiz-adv-x="730" 
d="M317 714q107 0 186 -40t122.5 -117.5t43.5 -192.5q0 -181 -98.5 -272.5t-275.5 -91.5h-191v314h-74v78h74v322h213zM304 637h-110v-245h178v-78h-178v-237h90q290 0 290 284q0 143 -71 209.5t-199 66.5z" />
    <glyph glyph-name="uni018A#0" unicode="&#x18a;" horiz-adv-x="810" 
d="M177 0v637h-26q-31 0 -46 -13.5t-15 -36.5q0 -16 3.5 -31.5t6.5 -22.5h-79q-4 11 -7.5 27t-3.5 28q0 65 34.5 95.5t106.5 30.5h246q108 0 187 -40t122 -117.5t43 -192.5q0 -181 -98.5 -272.5t-274.5 -91.5h-199zM267 77h97q290 0 290 284q0 143 -70.5 209.5t-199.5 66.5
h-117v-560z" />
    <glyph glyph-name="uni018B#0" unicode="&#x18b;" horiz-adv-x="615" 
d="M319 0q-140 0 -204 52t-64 146q0 56 26.5 105t89 79t169.5 30h92v223h-334v79h424v-714h-199zM327 77h101v258h-82q-102 0 -152 -30.5t-50 -102.5q0 -63 44.5 -94t138.5 -31z" />
    <glyph glyph-name="uni018C#0" unicode="&#x18c;" horiz-adv-x="615" 
d="M275 -10q-100 0 -160 69.5t-60 207.5t60.5 208.5t160.5 70.5q62 0 101.5 -23t64.5 -56h6q-1 13 -3.5 38.5t-2.5 40.5v140h-333v74h421v-760h-71l-13 72h-4q-24 -34 -64 -58t-103 -24zM289 63q85 0 119.5 46.5t34.5 140.5v16q0 100 -33 153.5t-122 53.5
q-71 0 -106.5 -56.5t-35.5 -151.5q0 -96 35.5 -149t107.5 -53z" />
    <glyph glyph-name="uni018D#0" unicode="&#x18d;" horiz-adv-x="604" 
d="M285 -224q-69 0 -118 17t-88 37l38 69q37 -21 79 -36t93 -15q45 0 66 20.5t21 48.5q0 24 -13 43t-42.5 39.5t-78.5 47.5q-91 49 -139.5 107.5t-48.5 145.5q0 120 68.5 183t181.5 63q71 0 127 -26t87.5 -76.5t31.5 -121.5q0 -64 -27.5 -112t-75 -80.5t-106.5 -49.5
q56 -32 90 -70.5t34 -93.5q0 -69 -51.5 -104.5t-128.5 -35.5zM271 118q31 7 63.5 21.5t60.5 38t45.5 59t17.5 86.5q0 66 -40.5 108t-113.5 42q-77 0 -118 -44.5t-41 -127.5q0 -68 33.5 -110t92.5 -73z" />
    <glyph glyph-name="uni018E#0" unicode="&#x18e;" horiz-adv-x="556" 
d="M60 0v79h309v255h-291v78h291v223h-309v79h399v-714h-399z" />
    <glyph glyph-name="uni018F#0" unicode="&#x18f;" horiz-adv-x="739" 
d="M332 646q-67 0 -123.5 -12t-104.5 -29v82q44 16 97.5 27t132.5 11q113 0 189 -46t115 -128.5t39 -194.5q0 -111 -37 -193t-108.5 -127.5t-176.5 -45.5q-106 0 -171.5 45.5t-95 128t-29.5 193.5v34h523q-7 121 -68 188t-182 67zM355 69q98 0 159 62.5t68 180.5h-427
q0 -75 19 -129.5t63 -84t118 -29.5z" />
    <glyph glyph-name="uni0190#0" unicode="&#x190;" horiz-adv-x="588" 
d="M314 724q74 0 133.5 -21.5t99.5 -52.5l-43 -61q-40 27 -81.5 44t-106.5 17q-60 0 -98 -29t-38 -83q0 -60 48 -95.5t145 -35.5h97v-75h-102q-103 0 -161.5 -31t-58.5 -99q0 -66 48.5 -102t139.5 -36q55 0 111.5 15t102.5 37v-82q-45 -22 -99 -33t-120 -11
q-100 0 -161 26.5t-88.5 73t-27.5 105.5q0 76 47 121t137 57v4q-69 12 -110 54.5t-41 115.5q0 77 58 127t169 50z" />
    <glyph glyph-name="uni0191#0" unicode="&#x191;" horiz-adv-x="589" 
d="M121 -15q-67 0 -102.5 36.5t-35.5 97.5q0 29 10 59l79 -24q-3 -13 -3 -29q0 -28 14 -44.5t38 -16.5q27 0 46.5 23.5t19.5 83.5v543h379v-79h-289v-222h270v-79h-270v-172q0 -94 -44.5 -135.5t-111.5 -41.5z" />
    <glyph glyph-name="florin#0" unicode="&#x192;" horiz-adv-x="414" 
d="M130 -15q-64 0 -103.5 35t-39.5 94q0 10 1 21t4 22l75 -16q-1 -4 -1.5 -9.5t-0.5 -11.5q0 -31 16.5 -46.5t38.5 -15.5q28 0 43.5 19t15.5 68v323h-94v41l94 30v31q0 104 46 149.5t128 45.5q32 0 58.5 -5.5t45.5 -12.5l-23 -69q-16 5 -37 10t-43 5q-44 0 -65.5 -29.5
t-21.5 -92.5v-35h135v-68h-135v-320q0 -76 -33.5 -119.5t-103.5 -43.5z" />
    <glyph glyph-name="uni0193#0" unicode="&#x193;" horiz-adv-x="728" 
d="M683 858q19 0 34.5 -4t25.5 -9v-72q-7 3 -21 6.5t-31 3.5q-47 0 -47 -48v-53l-34 -78q-38 17 -85.5 29t-98.5 12q-128 0 -199.5 -77t-71.5 -211q0 -85 27.5 -150.5t86.5 -102t155 -36.5q47 0 80 5t60 12v212h-157v80h247v-350q-58 -19 -117 -28t-134 -9q-111 0 -187 44.5
t-115.5 127t-39.5 195.5q0 112 44 194t126.5 127.5t199.5 45.5q72 0 137 -17v17q0 65 27 99.5t88 34.5z" />
    <glyph glyph-name="uni0194#0" unicode="&#x194;" horiz-adv-x="570" 
d="M285 -240q-54 0 -85 38t-31 95q0 44 20 102t47 112l-236 607h94l141 -373q17 -44 30 -82.5t20 -73.5q7 35 20.5 74.5t29.5 83.5l140 371h95l-236 -606q33 -65 50 -121t17 -94q0 -56 -31 -94.5t-85 -38.5zM285 -162q34 0 34 57q0 23 -8 59.5t-26 70.5q-19 -37 -26.5 -71.5
t-7.5 -56.5q0 -31 9.5 -45t24.5 -14z" />
    <glyph glyph-name="uni0195#0" unicode="&#x195;" horiz-adv-x="934" 
d="M639 -10q-106 0 -160 46.5t-54 149.5v157q0 65 -26.5 97t-82.5 32q-82 0 -112.5 -50.5t-30.5 -144.5v-277h-88v760h88v-223q0 -40 -5 -75h6q24 41 66 62t90 21q91 0 137 -46.5t46 -149.5v-157q0 -129 126 -129q65 0 95.5 35t30.5 114v324h88v-327q0 -120 -53.5 -169.5
t-160.5 -49.5z" />
    <glyph glyph-name="uni0196#0" unicode="&#x196;" horiz-adv-x="348" 
d="M243 -10q-44 0 -78.5 14.5t-54.5 51t-20 101.5v557h89v-549q0 -48 18.5 -72t58.5 -24q22 0 45.5 3.5t36.5 7.5v-74q-14 -7 -41.5 -11.5t-53.5 -4.5z" />
    <glyph glyph-name="uni0197#0" unicode="&#x197;" horiz-adv-x="339" 
d="M298 714v-52l-84 -20v-237h90v-78h-90v-256l84 -19v-52h-258v52l84 19v256h-90v78h90v237l-84 20v52h258z" />
    <glyph glyph-name="uni0198#0" unicode="&#x198;" horiz-adv-x="619" 
d="M553 720q17 0 29 -2t21 -6v-70q-7 2 -21 2.5t-23 0.5q-13 0 -27.5 -7.5t-40.5 -38.5l-164 -194l292 -405h-106l-247 342l-79 -77v-265h-90v714h90v-360q26 33 60 72t63 75l122 150q25 31 44 45.5t37 19t40 4.5z" />
    <glyph glyph-name="uni0199#0" unicode="&#x199;" horiz-adv-x="534" 
d="M206 765q19 0 37 -4t28 -9v-73q-7 3 -21 6.5t-31 3.5q-22 0 -34.5 -13t-12.5 -45v-268q0 -16 -1 -42t-3 -45h4q6 9 18 23.5t24.5 30t21.5 25.5l171 181h103l-217 -229l232 -307h-106l-186 250l-61 -53v-197h-87v625q0 140 121 140z" />
    <glyph glyph-name="uni019A#0" unicode="&#x19a;" horiz-adv-x="258" 
d="M85 0v354h-70v66h70v340h88v-340h70v-66h-70v-354h-88z" />
    <glyph glyph-name="uni019B#0" unicode="&#x19b;" horiz-adv-x="542" 
d="M-6 0l231 526l-23 64l-106 -32l-19 63l99 30q-14 24 -31 33t-44 9q-18 0 -31.5 -2t-24.5 -4v71q14 3 31 5.5t35 2.5q57 0 89.5 -22t56.5 -68l109 33l19 -63l-102 -32l179 -498q19 -54 50 -54q8 0 16.5 2t13.5 3v-65q-11 -5 -25.5 -8.5t-31.5 -3.5q-37 0 -58.5 18.5
t-37.5 62.5l-73 205q-8 24 -18.5 53.5t-19 58t-12.5 47.5h-4q-9 -35 -23.5 -75t-31.5 -79l-122 -281h-91z" />
    <glyph glyph-name="uni019C#0" unicode="&#x19c;" horiz-adv-x="1030" 
d="M287 -10q-100 0 -148.5 51.5t-48.5 166.5v506h90v-506q0 -70 29 -105t92 -35q89 0 127 50t38 144v452h90v-506q0 -70 29.5 -105t93.5 -35q92 0 127.5 55.5t35.5 158.5v432h90v-714h-71l-15 82h-5q-28 -46 -78 -69t-103 -23q-132 0 -175 100h-5q-30 -51 -82.5 -75.5
t-110.5 -24.5z" />
    <glyph glyph-name="uni019D#0" unicode="&#x19d;" horiz-adv-x="760" 
d="M45 -240q-18 0 -31.5 3.5t-24.5 9.5v76q10 -4 21 -7t24 -3q31 0 47 17.5t16 64.5v793h104l381 -591h4q-1 16 -2.5 48t-3 70t-1.5 70v403h84v-714h-105l-382 593h-4q2 -35 5 -87t3 -107v-482q0 -82 -33.5 -119.5t-101.5 -37.5z" />
    <glyph glyph-name="uni019E#0" unicode="&#x19e;" horiz-adv-x="618" 
d="M343 546q96 0 145 -46.5t49 -150.5v-589h-87v583q0 64 -29 96.5t-91 32.5q-88 0 -122.5 -50t-34.5 -144v-278h-88v536h71l13 -73h5q26 42 72 62.5t97 20.5z" />
    <glyph glyph-name="uni019F#0" unicode="&#x19f;" horiz-adv-x="782" 
d="M720 358q0 -111 -37.5 -193.5t-110.5 -128.5t-181 -46q-111 0 -184.5 46t-109.5 129t-36 194q0 110 36 192t109.5 128t185.5 46q107 0 180 -45.5t110.5 -128t37.5 -193.5zM392 646q-112 0 -169 -64.5t-66 -178.5h466q-9 114 -64.5 178.5t-166.5 64.5zM391 68
q114 0 170.5 68t62.5 189h-467q6 -121 62.5 -189t171.5 -68z" />
    <glyph glyph-name="Ohorn#0" unicode="&#x1a0;" horiz-adv-x="784" 
d="M719 358q0 -111 -37 -193.5t-110 -128.5t-181 -46q-112 0 -185 46t-109 129t-36 194q0 110 36 192t109.5 128t185.5 46q82 0 144 -27.5t103 -76.5q42 11 53 49t11 90h95l7 -11q-11 -59 -39.5 -109t-91.5 -73q45 -85 45 -209zM156 358q0 -135 56.5 -212.5t178.5 -77.5
t177.5 77.5t55.5 212.5q0 134 -55 211t-177 77q-123 0 -179.5 -77t-56.5 -211z" />
    <glyph glyph-name="ohorn#0" unicode="&#x1a1;" horiz-adv-x="616" 
d="M551 269q0 -133 -67.5 -206t-182.5 -73q-71 0 -126.5 32.5t-87.5 95t-32 151.5q0 133 67 205t182 72q53 0 97.5 -18t76.5 -51q45 14 56 52.5t11 88.5h94l7 -11q-13 -69 -42 -115.5t-87 -67.5q16 -31 25 -70t9 -85zM146 269q0 -101 37.5 -153.5t119.5 -52.5q83 0 120 52.5
t37 153.5t-37.5 152t-120.5 51q-82 0 -119 -51t-37 -152z" />
    <glyph glyph-name="uni01A2#0" unicode="&#x1a2;" horiz-adv-x="1075" 
d="M688 358q0 -111 -35.5 -193.5t-105 -128.5t-172.5 -46q-106 0 -175.5 46t-104 129t-34.5 194q0 110 34.5 192t104.5 128t176 46q73 0 129 -23.5t95 -67.5q31 47 82 69t106 22q101 0 149 -51.5t48 -166.5v-507h-90v507q0 70 -29 105t-92 35q-102 0 -139 -61
q53 -92 53 -228zM156 358q0 -135 53.5 -212.5t165.5 -77.5q113 0 165.5 77.5t52.5 212.5t-52 211.5t-165 76.5t-166.5 -76.5t-53.5 -211.5z" />
    <glyph glyph-name="uni01A3#0" unicode="&#x1a3;" horiz-adv-x="845" 
d="M526 269q0 -133 -64 -206t-173 -73q-67 0 -120 32.5t-83.5 95t-30.5 151.5q0 133 63.5 205t172.5 72q106 0 169 -72q26 37 64 54.5t80 17.5q80 0 120 -46.5t40 -150.5v-589h-87v585q0 127 -92 127q-64 0 -94 -44q35 -64 35 -159zM146 269q0 -95 34.5 -150.5t109.5 -55.5
t110 55.5t35 150.5t-35 149t-110 54q-76 0 -110 -54t-34 -149z" />
    <glyph glyph-name="uni01A4#0" unicode="&#x1a4;" horiz-adv-x="685" 
d="M177 0v637h-26q-31 0 -46 -13.5t-15 -36.5q0 -16 3.5 -31.5t6.5 -22.5h-79q-4 11 -7.5 27t-3.5 28q0 65 34.5 95.5t106.5 30.5h215q140 0 204 -55t64 -155q0 -59 -26.5 -110.5t-89 -83.5t-169.5 -32h-82v-278h-90zM267 355h72q102 0 152 33t50 112q0 69 -44 103t-139 34
h-91v-282z" />
    <glyph glyph-name="uni01A5#0" unicode="&#x1a5;" horiz-adv-x="615" 
d="M207 765q19 0 37 -4t28 -9v-73q-7 3 -21 6.5t-31 3.5q-22 0 -34.5 -13t-12.5 -45v-80q0 -19 -2 -45t-4 -43h6q24 35 63 59t104 24q99 0 159.5 -69t60.5 -208q0 -137 -60.5 -208t-160.5 -71q-62 0 -102.5 23.5t-63.5 54.5h-6q2 -17 4 -43t2 -45v-220h-88v865
q0 140 122 140zM324 472q-82 0 -115.5 -46t-35.5 -140v-17q0 -99 32.5 -152.5t120.5 -53.5q49 0 80.5 27t47 73.5t15.5 106.5q0 92 -35.5 147t-109.5 55z" />
    <glyph glyph-name="uni01A6#0" unicode="&#x1a6;" horiz-adv-x="622" 
d="M502 -100l-173 295h-142v-195h-90v714h90v-100h107q133 0 196.5 -50.5t63.5 -152.5q0 -57 -21 -95t-53.5 -60.5t-68.5 -35.5l196 -320h-105zM187 271h107q87 0 127 34.5t40 101.5q0 70 -42 99.5t-130 29.5h-102v-265z" />
    <glyph glyph-name="uni01A7#0" unicode="&#x1a7;" horiz-adv-x="549" 
d="M271 724q68 0 119 -22t80 -62.5t29 -97.5q0 -83 -46 -131t-138 -81q-64 -23 -103.5 -43.5t-57 -44.5t-17.5 -59q0 -53 41 -84t120 -31q57 0 110.5 15.5t89.5 31.5v-86q-34 -16 -85 -27.5t-111 -11.5q-117 0 -186 53t-69 148q0 56 25 93t71 63.5t109 49.5q58 22 92 41
t49 43t15 60q0 47 -34 75.5t-101 28.5q-42 0 -81 -11t-73 -27l-28 77q38 18 83 29t97 11z" />
    <glyph glyph-name="uni01A8#0" unicode="&#x1a8;" horiz-adv-x="479" 
d="M227 546q98 0 149.5 -37t51.5 -105q0 -44 -20 -72t-57 -48t-89 -40t-81 -36t-40 -32t-11 -36q0 -36 30 -57.5t97 -21.5q47 0 93 13.5t77 29.5v-80q-31 -16 -71.5 -25t-96.5 -9q-214 0 -214 158q0 43 19 71.5t55 48.5t87 39q52 20 82 34.5t43 30t13 37.5q0 30 -28.5 47.5
t-82.5 17.5q-31 0 -64.5 -10t-67.5 -24l-30 70q38 17 76.5 26.5t79.5 9.5z" />
    <glyph glyph-name="uni01A9#0" unicode="&#x1a9;" horiz-adv-x="570" 
d="M36 0v74l234 299l-228 266v75h475v-80h-255h-38t-46 0.5t-33 0.5l225 -261l-235 -296q38 0 75.5 0.5t77.5 0.5h258v-79h-510z" />
    <glyph glyph-name="uni01AA#0" unicode="&#x1aa;" horiz-adv-x="357" 
d="M117 765q61 0 95.5 -35t34.5 -106v-696q0 -48 18.5 -72t58.5 -24q22 0 45.5 3.5t36.5 7.5v-67q-14 -7 -41 -11.5t-53 -4.5q-44 0 -78.5 14.5t-54 51t-19.5 101.5v615h-45q-65 0 -94 31.5t-29 80.5q0 28 11.5 53.5t39 41.5t74.5 16zM111 693q-22 0 -30.5 -12t-8.5 -27
q0 -22 14 -31t35 -9h39v13q0 29 -10 47.5t-39 18.5z" />
    <glyph glyph-name="uni01AB#0" unicode="&#x1ab;" horiz-adv-x="361" 
d="M222 -240q-19 0 -34.5 4t-25.5 8v73q8 -3 21 -6t29 -3q48 0 48 52v102h-21q-37 0 -70.5 14.5t-55 50.5t-21.5 101v312h-76v42l77 35l35 114h52v-123h155v-68h-155v-310q0 -96 84 -96q20 0 41 3.5t34 7.5v-180q0 -64 -28.5 -98.5t-88.5 -34.5z" />
    <glyph glyph-name="uni01AC#0" unicode="&#x1ac;" horiz-adv-x="576" 
d="M253 0v635h-102q-61 0 -61 -48q0 -16 3.5 -31.5t6.5 -22.5h-79q-4 11 -7.5 27t-3.5 28q0 65 34.5 95.5t106.5 30.5h414v-79h-222v-635h-90z" />
    <glyph glyph-name="uni01AD#0" unicode="&#x1ad;" horiz-adv-x="361" 
d="M240 765q23 0 43.5 -4t33.5 -9v-73q-9 3 -31.5 6.5t-45.5 3.5q-60 0 -60 -68v-85h155v-68h-155v-310q0 -49 23.5 -72.5t60.5 -23.5q20 0 41 3.5t34 7.5v-67q-14 -7 -40 -11.5t-50 -4.5q-42 0 -77.5 14.5t-57.5 50.5t-22 101v312h-76v42l77 35v66q0 74 36.5 114t110.5 40z
" />
    <glyph glyph-name="uni01AE#0" unicode="&#x1ae;" horiz-adv-x="556" 
d="M368 -240q-67 0 -101 37.5t-34 119.5v718h-223v79h535v-79h-222v-714q0 -47 16 -64.5t47 -17.5q13 0 24 3t21 7v-76q-10 -6 -27.5 -9.5t-35.5 -3.5z" />
    <glyph glyph-name="Uhorn#0" unicode="&#x1af;" horiz-adv-x="780" 
d="M640 714v-97q49 8 63.5 46t14.5 97h93l7 -11q-8 -47 -26.5 -87.5t-54.5 -68t-97 -38.5v-303q0 -74 -28 -133.5t-87.5 -94t-155.5 -34.5q-136 0 -207.5 72.5t-71.5 191.5v460h90v-464q0 -86 47.5 -134t143.5 -48q65 0 104.5 23.5t57.5 65t18 94.5v463h89z" />
    <glyph glyph-name="uhorn#0" unicode="&#x1b0;" horiz-adv-x="674" 
d="M701 619l7 -11q-8 -47 -26 -89t-53.5 -70t-95.5 -35v-414h-72l-13 71h-4q-26 -42 -71.5 -61.5t-96.5 -19.5q-98 0 -147.5 46.5t-49.5 148.5v350h89v-344q0 -128 119 -128q89 0 123.5 50t34.5 144v278h88v-59q48 8 61.5 46.5t13.5 96.5h93z" />
    <glyph glyph-name="uni01B1#0" unicode="&#x1b1;" horiz-adv-x="782" 
d="M391 68q120 0 176 65.5t56 179.5q0 100 -37 181t-130 148v72h288v-79h-178q64 -49 108 -131t44 -194q0 -98 -38 -170t-111 -111.5t-178 -39.5q-106 0 -179 39t-111 111t-38 170q0 113 43.5 195t107.5 131h-177v79h288v-72q-93 -66 -130.5 -148t-37.5 -181
q0 -114 56.5 -179.5t177.5 -65.5z" />
    <glyph glyph-name="uni01B2#0" unicode="&#x1b2;" horiz-adv-x="731" 
d="M362 -10q-133 0 -202.5 72.5t-69.5 191.5v460h90v-463q0 -87 46.5 -135t140.5 -48q97 0 140.5 51.5t43.5 132.5v322q0 39 -16 55t-47 16q-20 0 -39 -5.5t-35 -14.5v76q15 11 40 17t51 6q135 0 135 -144v-328q0 -74 -30 -133.5t-91.5 -94t-156.5 -34.5z" />
    <glyph glyph-name="uni01B3#0" unicode="&#x1b3;" horiz-adv-x="576" 
d="M238 0v273l-238 441h98l185 -351l128 287q20 45 44 60t56 15q20 0 35 -3.5t25 -7.5v-73q-18 8 -39 8q-24 0 -42 -35l-162 -337v-277h-90z" />
    <glyph glyph-name="uni01B4#0" unicode="&#x1b4;" horiz-adv-x="542" 
d="M485 546q17 0 31.5 -3.5t25.5 -8.5v-65q-5 2 -13.5 3.5t-16.5 1.5q-17 0 -28 -13t-22 -41l-183 -494q-28 -76 -72.5 -121t-122.5 -45q-24 0 -42 2.5t-31 5.5v70q11 -2 26.5 -4t32.5 -2q46 0 75.5 26t45.5 69l26 71l-216 538h94l116 -305q15 -40 27 -76.5t18 -69.5h4
q6 25 20 65.5t28 81.5l76 217q20 56 42 76.5t59 20.5z" />
    <glyph glyph-name="uni01B5#0" unicode="&#x1b5;" horiz-adv-x="572" 
d="M79 407h184l151 227h-364v80h473v-68l-159 -239h122v-71h-169l-170 -256h386v-80h-495v68l178 268h-137v71z" />
    <glyph glyph-name="uni01B6#0" unicode="&#x1b6;" horiz-adv-x="470" 
d="M424 536v-66l-111 -157h101v-70h-151l-123 -175h291v-68h-392v58l130 185h-112v70h161l109 155h-271v68h368z" />
    <glyph glyph-name="uni01B7#0" unicode="&#x1b7;" horiz-adv-x="584" 
d="M499 714v-71l-245 -236q128 -4 201.5 -54t73.5 -149q0 -94 -71 -154t-217 -60q-58 0 -109.5 8.5t-96.5 30.5v82q47 -22 102 -34.5t105 -12.5q97 0 145 37t48 104t-56.5 98t-161.5 31h-67v73l235 227h-330v80h444z" />
    <glyph glyph-name="uni01B8#0" unicode="&#x1b8;" horiz-adv-x="584" 
d="M331 -10q-97 0 -158 30.5t-89.5 81t-28.5 109.5q0 76 33.5 126t88 75.5t116.5 27.5l-208 203v71h444v-80h-330l205 -202v-65h-78q-49 0 -89.5 -16t-64 -49.5t-23.5 -88.5q0 -69 48 -109t145 -40q50 0 105.5 12.5t101.5 34.5v-82q-45 -22 -98 -30.5t-120 -8.5z" />
    <glyph glyph-name="uni01B9#0" unicode="&#x1b9;" horiz-adv-x="498" 
d="M288 -240q-79 0 -136 30t-87.5 82t-30.5 117q0 79 33 130t89 78t124 31l-219 244v64h409v-74h-306l219 -243v-61h-59q-91 0 -146.5 -38.5t-55.5 -128.5q0 -71 48 -114.5t125 -43.5q59 0 107.5 13t81.5 29v-80q-32 -16 -80 -25.5t-116 -9.5z" />
    <glyph glyph-name="uni01BA#0" unicode="&#x1ba;" horiz-adv-x="498" 
d="M215 -240q-81 0 -134 28.5t-53 90.5q0 33 15.5 60.5t55.5 44t113 16.5q83 0 116 29t33 93t-48 90t-139 26h-59v61l183 163h-270v74h394v-64l-187 -164q104 -4 159 -51t55 -134q0 -56 -23.5 -100.5t-75 -70t-136.5 -25.5q-64 0 -83.5 -13t-19.5 -35q0 -21 26.5 -33.5
t78.5 -12.5q51 0 91.5 11.5t68.5 24.5v-80q-28 -13 -68.5 -21t-92.5 -8z" />
    <glyph glyph-name="uni01BB#0" unicode="&#x1bb;" horiz-adv-x="570" 
d="M260 765q93 0 147 -48t54 -133q0 -42 -10.5 -81.5t-35.5 -83.5h100v-70h-144l-225 -275v-4h374v-70h-472v73l222 276h-192v70h241q29 46 40 83.5t11 79.5q0 53 -31 79.5t-81 26.5q-47 0 -82.5 -17t-72.5 -49l-47 59q39 35 89.5 59.5t114.5 24.5z" />
    <glyph glyph-name="uni01BC#0" unicode="&#x1bc;" horiz-adv-x="584" 
d="M241 -10q-58 0 -109.5 8.5t-96.5 30.5v82q47 -22 102 -34.5t105 -12.5q97 0 145 41t48 117q0 50 -23.5 82t-63.5 47.5t-90 15.5h-124v267h-94v80h459v-80h-275v-193h42q75 0 134.5 -25.5t94 -74.5t34.5 -120q0 -67 -31.5 -119.5t-95 -82t-161.5 -29.5z" />
    <glyph glyph-name="uni01BD#0" unicode="&#x1bd;" horiz-adv-x="490" 
d="M216 -10q-58 0 -105 9.5t-78 25.5v79q34 -16 80.5 -29t101.5 -13q60 0 101.5 25.5t41.5 83.5q0 53 -38 77.5t-115 24.5h-90v189h-72v74h369v-74h-218v-117h30q84 0 132 -21.5t68.5 -59.5t20.5 -87t-24.5 -91.5t-75 -69t-129.5 -26.5z" />
    <glyph glyph-name="uni01BE#0" unicode="&#x1be;" horiz-adv-x="463" 
d="M204 -10q-56 0 -96.5 9t-71.5 25v80q32 -16 77.5 -29.5t92.5 -13.5q67 0 97 21.5t30 57.5q0 29 -23 49t-91 48q-43 18 -63 49t-20 92v90h-91v42l92 35l35 114h52v-123h155v-68h-155v-92q0 -34 10.5 -49.5t36.5 -24.5q69 -25 108 -59t39 -95q0 -78 -58 -118t-156 -40z" />
    <glyph glyph-name="uni01BF#0" unicode="&#x1bf;" horiz-adv-x="587" 
d="M331 546q60 0 107 -25t74 -74.5t27 -123.5q0 -95 -47 -167.5t-129.5 -115.5t-189.5 -50v-230h-88v776h72l12 -73h4q23 35 60 59t98 24zM313 472q-76 0 -108 -46t-32 -140v-224q129 17 202 85t73 174q0 68 -35.5 109.5t-99.5 41.5z" />
    <glyph glyph-name="uni01C0#0" unicode="&#x1c0;" horiz-adv-x="336" 
d="M129 0v760h78v-760h-78z" />
    <glyph glyph-name="uni01C1#0" unicode="&#x1c1;" horiz-adv-x="555" 
d="M129 0v760h78v-760h-78zM348 0v760h78v-760h-78z" />
    <glyph glyph-name="uni01C2#0" unicode="&#x1c2;" horiz-adv-x="516" 
d="M297 760v-253h154v-72h-154v-96h154v-72h-154v-267h-78v267h-154v72h154v96h-154v72h154v253h78z" />
    <glyph glyph-name="uni01C3#0" unicode="&#x1c3;" horiz-adv-x="269" 
d="M163 201h-57l-25 513h107zM72 54q0 37 18 52t44 15q25 0 43.5 -15t18.5 -52q0 -36 -18.5 -52t-43.5 -16q-26 0 -44 16t-18 52z" />
    <glyph glyph-name="uni01C4#0" unicode="&#x1c4;" horiz-adv-x="1292" 
d="M669 364q0 -181 -98.5 -272.5t-274.5 -91.5h-199v714h220q108 0 187 -40t122 -117.5t43 -192.5zM574 361q0 143 -70.5 209.5t-199.5 66.5h-117v-560h97q290 0 290 284zM1253 0h-495v68l376 566h-364v80h473v-68l-376 -566h386v-80zM964 784q-13 23 -35 49.5t-46 52.5
t-42 45v13h60q26 -17 54 -41t53 -51q27 27 55 51t54 41h62v-13q-19 -19 -43.5 -45t-47 -52.5t-34.5 -49.5h-90z" />
    <glyph glyph-name="uni01C5#0" unicode="&#x1c5;" horiz-adv-x="1200" 
d="M669 364q0 -181 -98.5 -272.5t-274.5 -91.5h-199v714h220q108 0 187 -40t122 -117.5t43 -192.5zM574 361q0 143 -70.5 209.5t-199.5 66.5h-117v-560h97q290 0 290 284zM1161 0h-392v58l288 410h-271v68h368v-66l-284 -402h291v-68zM919 606q-13 23 -35 49.5t-46 52.5
t-42 45v13h60q26 -17 54 -41t53 -51q27 27 55 51t54 41h62v-13q-19 -19 -43.5 -45t-47 -52.5t-34.5 -49.5h-90z" />
    <glyph glyph-name="uni01C6#0" unicode="&#x1c6;" horiz-adv-x="1085" 
d="M275 -10q-100 0 -160 69.5t-60 207.5t60.5 208.5t160.5 70.5q62 0 101.5 -23t64.5 -56h6q-1 13 -3.5 38.5t-2.5 40.5v214h88v-760h-71l-13 72h-4q-24 -34 -64 -58t-103 -24zM289 63q85 0 119.5 46.5t34.5 140.5v16q0 100 -33 153.5t-122 53.5q-71 0 -106.5 -56.5
t-35.5 -151.5q0 -96 35.5 -149t107.5 -53zM1046 0h-392v58l288 410h-271v68h368v-66l-284 -402h291v-68zM804 606q-13 23 -35 49.5t-46 52.5t-42 45v13h60q26 -17 54 -41t53 -51q27 27 55 51t54 41h62v-13q-19 -19 -43.5 -45t-47 -52.5t-34.5 -49.5h-90z" />
    <glyph glyph-name="uni01C7#0" unicode="&#x1c7;" horiz-adv-x="937" 
d="M97 0v714h90v-634h312v-80h-402zM660 -11q-35 0 -61.5 7t-46.5 18v76q23 -10 49.5 -16t56.5 -6q25 0 47.5 10t36.5 35t14 70v531h90v-524q0 -103 -51 -152t-135 -49z" />
    <glyph glyph-name="uni01C8#0" unicode="&#x1c8;" horiz-adv-x="782" 
d="M97 0v714h90v-634h312v-80h-402zM602 681q0 29 15 42.5t37 13.5q20 0 35.5 -13.5t15.5 -42.5q0 -28 -15.5 -42t-35.5 -14q-22 0 -37 14t-15 42zM546 -240q-25 0 -44 3.5t-33 8.5v71q15 -4 31 -7t35 -3q32 0 53 17.5t21 66.5v619h88v-616q0 -75 -36 -117.5t-115 -42.5z
" />
    <glyph glyph-name="uni01C9#0" unicode="&#x1c9;" horiz-adv-x="516" 
d="M173 0h-88v760h88v-760zM336 681q0 29 15 42.5t37 13.5q20 0 35.5 -13.5t15.5 -42.5q0 -28 -15.5 -42t-35.5 -14q-22 0 -37 14t-15 42zM280 -240q-25 0 -44 3.5t-33 8.5v71q15 -4 31 -7t35 -3q32 0 53 17.5t21 66.5v619h88v-616q0 -75 -36 -117.5t-115 -42.5z" />
    <glyph glyph-name="uni01CA#0" unicode="&#x1ca;" horiz-adv-x="1173" 
d="M663 0h-105l-382 593h-4q2 -35 5 -87t3 -107v-399h-83v714h104l381 -591h4q-1 16 -2.5 48t-3 70t-1.5 70v403h84v-714zM896 -11q-35 0 -61.5 7t-46.5 18v76q23 -10 49.5 -16t56.5 -6q25 0 47.5 10t36.5 35t14 70v531h90v-524q0 -103 -51 -152t-135 -49z" />
    <glyph glyph-name="uni01CB#0" unicode="&#x1cb;" horiz-adv-x="1018" 
d="M663 0h-105l-382 593h-4q2 -35 5 -87t3 -107v-399h-83v714h104l381 -591h4q-1 16 -2.5 48t-3 70t-1.5 70v403h84v-714zM838 681q0 29 15 42.5t37 13.5q20 0 35.5 -13.5t15.5 -42.5q0 -28 -15.5 -42t-35.5 -14q-22 0 -37 14t-15 42zM782 -240q-25 0 -44 3.5t-33 8.5v71
q15 -4 31 -7t35 -3q32 0 53 17.5t21 66.5v619h88v-616q0 -75 -36 -117.5t-115 -42.5z" />
    <glyph glyph-name="uni01CC#0" unicode="&#x1cc;" horiz-adv-x="876" 
d="M343 546q96 0 145 -46.5t49 -150.5v-349h-87v343q0 129 -120 129q-89 0 -123 -50t-34 -144v-278h-88v536h71l13 -73h5q26 42 72 62.5t97 20.5zM696 681q0 29 15 42.5t37 13.5q20 0 35.5 -13.5t15.5 -42.5q0 -28 -15.5 -42t-35.5 -14q-22 0 -37 14t-15 42zM640 -240
q-25 0 -44 3.5t-33 8.5v71q15 -4 31 -7t35 -3q32 0 53 17.5t21 66.5v619h88v-616q0 -75 -36 -117.5t-115 -42.5z" />
    <glyph glyph-name="uni01CD#0" unicode="&#x1cd;" horiz-adv-x="639" 
d="M545 0l-86 221h-283l-85 -221h-91l279 717h81l278 -717h-93zM432 301l-80 216q-3 8 -10 29t-13.5 43.5t-10.5 34.5q-7 -31 -16 -60.5t-15 -46.5l-81 -216h226zM272 784q-13 23 -35 49.5t-46 52.5t-42 45v13h60q26 -17 54 -41t53 -51q27 27 55 51t54 41h62v-13
q-19 -19 -43.5 -45t-47 -52.5t-34.5 -49.5h-90z" />
    <glyph glyph-name="uni01CE#0" unicode="&#x1ce;" horiz-adv-x="561" 
d="M288 545q98 0 145 -43t47 -137v-365h-64l-17 76h-4q-35 -44 -73.5 -65t-106.5 -21q-73 0 -121 38.5t-48 120.5q0 80 63 123.5t194 47.5l91 3v32q0 67 -29 93t-82 26q-42 0 -80 -12.5t-71 -28.5l-27 66q35 19 83 32.5t100 13.5zM393 262l-79 -3q-100 -4 -138.5 -32
t-38.5 -79q0 -45 27.5 -66t70.5 -21q68 0 113 37.5t45 115.5v48zM235 606q-13 23 -35 49.5t-46 52.5t-42 45v13h60q26 -17 54 -41t53 -51q27 27 55 51t54 41h62v-13q-19 -19 -43.5 -45t-47 -52.5t-34.5 -49.5h-90z" />
    <glyph glyph-name="uni01CF#0" unicode="&#x1cf;" horiz-adv-x="285" 
d="M97 0v714h90v-714h-90zM97 784q-13 23 -35 49.5t-46 52.5t-42 45v13h60q26 -17 54 -41t53 -51q27 27 55 51t54 41h62v-13q-19 -19 -43.5 -45t-47 -52.5t-34.5 -49.5h-90z" />
    <glyph glyph-name="uni01D0#0" unicode="&#x1d0;" horiz-adv-x="258" 
d="M173 0h-88v536h88v-536zM83 606q-13 23 -35 49.5t-46 52.5t-42 45v13h60q26 -17 54 -41t53 -51q27 27 55 51t54 41h62v-13q-19 -19 -43.5 -45t-47 -52.5t-34.5 -49.5h-90z" />
    <glyph glyph-name="uni01D1#0" unicode="&#x1d1;" horiz-adv-x="781" 
d="M720 358q0 -111 -37.5 -193.5t-110.5 -128.5t-181 -46q-111 0 -184.5 46t-109.5 129t-36 194q0 110 36 192t109.5 128t185.5 46q107 0 180 -45.5t110.5 -128t37.5 -193.5zM156 358q0 -135 57 -212.5t178 -77.5q122 0 178 77.5t56 212.5t-56 211.5t-177 76.5t-178.5 -76.5
t-57.5 -211.5zM345 784q-13 23 -35 49.5t-46 52.5t-42 45v13h60q26 -17 54 -41t53 -51q27 27 55 51t54 41h62v-13q-19 -19 -43.5 -45t-47 -52.5t-34.5 -49.5h-90z" />
    <glyph glyph-name="uni01D2#0" unicode="&#x1d2;" horiz-adv-x="605" 
d="M551 269q0 -133 -67.5 -206t-182.5 -73q-71 0 -126.5 32.5t-87.5 95t-32 151.5q0 133 67 205t182 72q73 0 128.5 -32.5t87 -94t31.5 -150.5zM146 269q0 -95 37.5 -150.5t119.5 -55.5q81 0 119 55.5t38 150.5t-38 149t-120 54t-119 -54t-37 -149zM257 606q-13 23 -35 49.5
t-46 52.5t-42 45v13h60q26 -17 54 -41t53 -51q27 27 55 51t54 41h62v-13q-19 -19 -43.5 -45t-47 -52.5t-34.5 -49.5h-90z" />
    <glyph glyph-name="uni01D3#0" unicode="&#x1d3;" horiz-adv-x="731" 
d="M640 714v-462q0 -74 -30 -133.5t-91.5 -94t-156.5 -34.5q-133 0 -202.5 72.5t-69.5 191.5v460h90v-463q0 -87 46.5 -135t140.5 -48q97 0 140.5 51.5t43.5 132.5v462h89zM320 784q-13 23 -35 49.5t-46 52.5t-42 45v13h60q26 -17 54 -41t53 -51q27 27 55 51t54 41h62v-13
q-19 -19 -43.5 -45t-47 -52.5t-34.5 -49.5h-90z" />
    <glyph glyph-name="uni01D4#0" unicode="&#x1d4;" horiz-adv-x="618" 
d="M533 536v-536h-72l-13 71h-4q-26 -42 -72 -61.5t-98 -19.5q-97 0 -146 46.5t-49 148.5v351h89v-345q0 -128 119 -128q89 0 123.5 50t34.5 144v279h88zM263 606q-13 23 -35 49.5t-46 52.5t-42 45v13h60q26 -17 54 -41t53 -51q27 27 55 51t54 41h62v-13q-19 -19 -43.5 -45
t-47 -52.5t-34.5 -49.5h-90z" />
    <glyph glyph-name="uni01D5#0" unicode="&#x1d5;" horiz-adv-x="731" 
d="M640 714v-462q0 -74 -30 -133.5t-91.5 -94t-156.5 -34.5q-133 0 -202.5 72.5t-69.5 191.5v460h90v-463q0 -87 46.5 -135t140.5 -48q97 0 140.5 51.5t43.5 132.5v462h89zM514 1014v-71h-297v71h297zM272 878q19 0 32.5 -12t13.5 -38t-13.5 -37.5t-32.5 -11.5t-33 11.5
t-14 37.5t14 38t33 12zM459 878q20 0 33.5 -12t13.5 -38t-13.5 -37.5t-33.5 -11.5q-19 0 -33 11.5t-14 37.5t14 38t33 12z" />
    <glyph glyph-name="uni01D6#0" unicode="&#x1d6;" horiz-adv-x="618" 
d="M533 536v-536h-72l-13 71h-4q-26 -42 -72 -61.5t-98 -19.5q-97 0 -146 46.5t-49 148.5v351h89v-345q0 -128 119 -128q89 0 123.5 50t34.5 144v279h88zM457 836v-71h-297v71h297zM215 700q19 0 32.5 -12t13.5 -38t-13.5 -37.5t-32.5 -11.5t-33 11.5t-14 37.5t14 38t33 12z
M402 700q20 0 33.5 -12t13.5 -38t-13.5 -37.5t-33.5 -11.5q-19 0 -33 11.5t-14 37.5t14 38t33 12z" />
    <glyph glyph-name="uni01D7#0" unicode="&#x1d7;" horiz-adv-x="731" 
d="M640 714v-462q0 -74 -30 -133.5t-91.5 -94t-156.5 -34.5q-133 0 -202.5 72.5t-69.5 191.5v460h90v-463q0 -87 46.5 -135t140.5 -48q97 0 140.5 51.5t43.5 132.5v462h89zM312 904v12q23 28 51.5 63.5t44.5 69.5h105v-10q-11 -18 -36 -43t-54 -49.5t-52 -42.5h-59zM272 779
q-19 0 -33 11.5t-14 37.5t14 38t33 12t32.5 -12t13.5 -38t-13.5 -37.5t-32.5 -11.5zM459 779q-19 0 -33 11.5t-14 37.5t14 38t33 12q20 0 33.5 -12t13.5 -38t-13.5 -37.5t-33.5 -11.5z" />
    <glyph glyph-name="uni01D8#0" unicode="&#x1d8;" horiz-adv-x="618" 
d="M533 536v-536h-72l-13 71h-4q-26 -42 -72 -61.5t-98 -19.5q-97 0 -146 46.5t-49 148.5v351h89v-345q0 -128 119 -128q89 0 123.5 50t34.5 144v279h88zM255 726v12q23 28 51.5 63.5t44.5 69.5h105v-10q-11 -18 -36 -43t-54 -49.5t-52 -42.5h-59zM215 601q-19 0 -33 11.5
t-14 37.5t14 38t33 12t32.5 -12t13.5 -38t-13.5 -37.5t-32.5 -11.5zM402 601q-19 0 -33 11.5t-14 37.5t14 38t33 12q20 0 33.5 -12t13.5 -38t-13.5 -37.5t-33.5 -11.5z" />
    <glyph glyph-name="uni01D9#0" unicode="&#x1d9;" horiz-adv-x="731" 
d="M640 714v-462q0 -74 -30 -133.5t-91.5 -94t-156.5 -34.5q-133 0 -202.5 72.5t-69.5 191.5v460h90v-463q0 -87 46.5 -135t140.5 -48q97 0 140.5 51.5t43.5 132.5v462h89zM320 909q-13 23 -35 47t-46 47.5t-42 42.5v13h60q26 -17 54 -36t53 -46q27 27 55 46t54 36h62v-13
q-19 -19 -43.5 -42.5t-47 -47.5t-34.5 -47h-90zM272 779q-19 0 -33 11.5t-14 37.5t14 38t33 12t32.5 -12t13.5 -38t-13.5 -37.5t-32.5 -11.5zM459 779q-19 0 -33 11.5t-14 37.5t14 38t33 12q20 0 33.5 -12t13.5 -38t-13.5 -37.5t-33.5 -11.5z" />
    <glyph glyph-name="uni01DA#0" unicode="&#x1da;" horiz-adv-x="618" 
d="M533 536v-536h-72l-13 71h-4q-26 -42 -72 -61.5t-98 -19.5q-97 0 -146 46.5t-49 148.5v351h89v-345q0 -128 119 -128q89 0 123.5 50t34.5 144v279h88zM263 731q-13 23 -35 47t-46 47.5t-42 42.5v13h60q26 -17 54 -36t53 -46q27 27 55 46t54 36h62v-13
q-19 -19 -43.5 -42.5t-47 -47.5t-34.5 -47h-90zM215 601q-19 0 -33 11.5t-14 37.5t14 38t33 12t32.5 -12t13.5 -38t-13.5 -37.5t-32.5 -11.5zM402 601q-19 0 -33 11.5t-14 37.5t14 38t33 12q20 0 33.5 -12t13.5 -38t-13.5 -37.5t-33.5 -11.5z" />
    <glyph glyph-name="uni01DB#0" unicode="&#x1db;" horiz-adv-x="731" 
d="M640 714v-462q0 -74 -30 -133.5t-91.5 -94t-156.5 -34.5q-133 0 -202.5 72.5t-69.5 191.5v460h90v-463q0 -87 46.5 -135t140.5 -48q97 0 140.5 51.5t43.5 132.5v462h89zM324 1049q17 -34 45 -69.5t51 -63.5v-12h-59q-23 18 -52 42.5t-53.5 49.5t-36.5 43v10h105zM272 878
q19 0 32.5 -12t13.5 -38t-13.5 -37.5t-32.5 -11.5t-33 11.5t-14 37.5t14 38t33 12zM459 878q20 0 33.5 -12t13.5 -38t-13.5 -37.5t-33.5 -11.5q-19 0 -33 11.5t-14 37.5t14 38t33 12z" />
    <glyph glyph-name="uni01DC#0" unicode="&#x1dc;" horiz-adv-x="618" 
d="M533 536v-536h-72l-13 71h-4q-26 -42 -72 -61.5t-98 -19.5q-97 0 -146 46.5t-49 148.5v351h89v-345q0 -128 119 -128q89 0 123.5 50t34.5 144v279h88zM267 871q17 -34 45 -69.5t51 -63.5v-12h-59q-23 18 -52 42.5t-53.5 49.5t-36.5 43v10h105zM215 700q19 0 32.5 -12
t13.5 -38t-13.5 -37.5t-32.5 -11.5t-33 11.5t-14 37.5t14 38t33 12zM402 700q20 0 33.5 -12t13.5 -38t-13.5 -37.5t-33.5 -11.5q-19 0 -33 11.5t-14 37.5t14 38t33 12z" />
    <glyph glyph-name="uni01DD#0" unicode="&#x1dd;" horiz-adv-x="564" 
d="M251 546q77 0 135 -31t90.5 -92t32.5 -151q0 -88 -29.5 -151t-83 -97t-124.5 -34q-68 0 -118 30t-76.5 84.5t-26.5 127.5v53h367q-2 91 -46.5 138.5t-124.5 47.5q-51 0 -90.5 -9.5t-81.5 -27.5v77q41 18 81 26.5t95 8.5zM416 215h-273q1 -68 32 -110.5t98 -42.5
q63 0 99.5 40.5t43.5 112.5z" />
    <glyph glyph-name="uni01DE#0" unicode="&#x1de;" horiz-adv-x="639" 
d="M545 0l-86 221h-283l-85 -221h-91l279 717h81l278 -717h-93zM432 301l-80 216q-3 8 -10 29t-13.5 43.5t-10.5 34.5q-7 -31 -16 -60.5t-15 -46.5l-81 -216h226zM466 1014v-71h-297v71h297zM224 878q19 0 32.5 -12t13.5 -38t-13.5 -37.5t-32.5 -11.5t-33 11.5t-14 37.5
t14 38t33 12zM411 878q20 0 33.5 -12t13.5 -38t-13.5 -37.5t-33.5 -11.5q-19 0 -33 11.5t-14 37.5t14 38t33 12z" />
    <glyph glyph-name="uni01DF#0" unicode="&#x1df;" horiz-adv-x="561" 
d="M288 545q98 0 145 -43t47 -137v-365h-64l-17 76h-4q-35 -44 -73.5 -65t-106.5 -21q-73 0 -121 38.5t-48 120.5q0 80 63 123.5t194 47.5l91 3v32q0 67 -29 93t-82 26q-42 0 -80 -12.5t-71 -28.5l-27 66q35 19 83 32.5t100 13.5zM393 262l-79 -3q-100 -4 -138.5 -32
t-38.5 -79q0 -45 27.5 -66t70.5 -21q68 0 113 37.5t45 115.5v48zM429 836v-71h-297v71h297zM187 700q19 0 32.5 -12t13.5 -38t-13.5 -37.5t-32.5 -11.5t-33 11.5t-14 37.5t14 38t33 12zM374 700q20 0 33.5 -12t13.5 -38t-13.5 -37.5t-33.5 -11.5q-19 0 -33 11.5t-14 37.5
t14 38t33 12z" />
    <glyph glyph-name="uni01E0#0" unicode="&#x1e0;" horiz-adv-x="639" 
d="M545 0l-86 221h-283l-85 -221h-91l279 717h81l278 -717h-93zM432 301l-80 216q-3 8 -10 29t-13.5 43.5t-10.5 34.5q-7 -31 -16 -60.5t-15 -46.5l-81 -216h226zM466 1001v-71h-297v71h297zM319 882q20 0 35.5 -13.5t15.5 -42.5q0 -28 -15.5 -42t-35.5 -14q-22 0 -37 14
t-15 42q0 29 15 42.5t37 13.5z" />
    <glyph glyph-name="uni01E1#0" unicode="&#x1e1;" horiz-adv-x="561" 
d="M288 545q98 0 145 -43t47 -137v-365h-64l-17 76h-4q-35 -44 -73.5 -65t-106.5 -21q-73 0 -121 38.5t-48 120.5q0 80 63 123.5t194 47.5l91 3v32q0 67 -29 93t-82 26q-42 0 -80 -12.5t-71 -28.5l-27 66q35 19 83 32.5t100 13.5zM393 262l-79 -3q-100 -4 -138.5 -32
t-38.5 -79q0 -45 27.5 -66t70.5 -21q68 0 113 37.5t45 115.5v48zM429 837v-71h-297v71h297zM280 718q20 0 35.5 -13.5t15.5 -42.5q0 -28 -15.5 -42t-35.5 -14q-22 0 -37 14t-15 42q0 29 15 42.5t37 13.5z" />
    <glyph glyph-name="uni01E2#0" unicode="&#x1e2;" horiz-adv-x="881" 
d="M821 0h-372v221h-250l-107 -221h-93l339 714h483v-79h-282v-223h263v-78h-263v-255h282v-79zM234 301h215v333h-58zM641 855v-71h-297v71h297z" />
    <glyph glyph-name="uni01E3#0" unicode="&#x1e3;" horiz-adv-x="864" 
d="M603 546q65 0 112 -30t72.5 -84t25.5 -126v-54h-343q2 -96 41.5 -141.5t113.5 -45.5q50 0 88 9.5t76 27.5v-77q-40 -18 -78.5 -26.5t-88.5 -8.5q-141 0 -203 113q-34 -52 -80 -82.5t-123 -30.5q-73 0 -121.5 38.5t-48.5 120.5q0 80 60 123.5t184 47.5l90 3v34
q0 65 -30.5 91t-81.5 26q-40 0 -78.5 -12t-71.5 -29l-27 66q35 20 85 33t99 13q62 0 102.5 -20.5t61.5 -65.5q26 41 68 64t96 23zM602 474q-58 0 -91.5 -39.5t-38.5 -113.5h248q0 69 -28.5 111t-89.5 42zM378 262l-75 -3q-94 -4 -130 -32t-36 -79q0 -45 25.5 -66t67.5 -21
q63 0 105.5 37.5t42.5 115.5v48zM587 677v-71h-297v71h297z" />
    <glyph glyph-name="uni01E4#0" unicode="&#x1e4;" horiz-adv-x="728" 
d="M413 -10q-121 0 -199 45t-115.5 126.5t-37.5 192.5q0 112 44 195t126.5 129t199.5 46q60 0 113.5 -11t99.5 -31l-34 -78q-38 17 -87 29t-100 12q-128 0 -198 -74.5t-70 -213.5q0 -89 27.5 -154t86.5 -100t155 -35q47 0 80 5t60 12v73h-147v71h147v78h-157v80h247v-158h64
v-71h-64v-128q-52 -17 -107 -28.5t-134 -11.5z" />
    <glyph glyph-name="uni01E5#0" unicode="&#x1e5;" horiz-adv-x="615" 
d="M275 546q53 0 95.5 -20t72.5 -61h5l12 71h70v-568h55v-71h-63q-14 -61 -71 -99t-161 -38q-118 0 -193 34v81q79 -42 198 -42q56 0 89.5 16.5t45.5 47.5h-167v71h180v65q0 17 1 36t2 30h-4q-54 -81 -166 -81q-104 0 -162.5 69.5t-58.5 194.5q0 121 58.5 192.5t161.5 71.5z
M287 472q-67 0 -104 -49.5t-37 -141.5q0 -93 36.5 -142t106.5 -49q81 0 118 40t37 131v16q0 102 -38 148.5t-119 46.5z" />
    <glyph glyph-name="uni01E6#0" unicode="&#x1e6;" horiz-adv-x="728" 
d="M407 377h247v-350q-58 -19 -117 -28t-134 -9q-111 0 -187 44.5t-115.5 127t-39.5 195.5q0 112 44 194t126.5 127.5t199.5 45.5q60 0 113.5 -11t99.5 -31l-34 -78q-38 17 -85.5 29t-98.5 12q-128 0 -199.5 -77t-71.5 -211q0 -85 27.5 -150.5t86.5 -102t155 -36.5
q47 0 80 5t60 12v212h-157v80zM359 784q-13 23 -35 49.5t-46 52.5t-42 45v13h60q26 -17 54 -41t53 -51q27 27 55 51t54 41h62v-13q-19 -19 -43.5 -45t-47 -52.5t-34.5 -49.5h-90z" />
    <glyph glyph-name="uni01E7#0" unicode="&#x1e7;" horiz-adv-x="615" 
d="M275 546q53 0 95.5 -20t72.5 -61h5l12 71h70v-545q0 -115 -58.5 -173t-181.5 -58q-118 0 -193 34v81q79 -42 198 -42q69 0 108.5 40.5t39.5 110.5v21q0 12 1 34.5t2 31.5h-4q-54 -81 -166 -81q-104 0 -162.5 73t-58.5 204q0 128 58.5 203.5t161.5 75.5zM287 472
q-67 0 -104 -53.5t-37 -152.5t36.5 -151.5t106.5 -52.5q81 0 118 43.5t37 140.5v21q0 110 -38 157.5t-119 47.5zM251 606q-13 23 -35 49.5t-46 52.5t-42 45v13h60q26 -17 54 -41t53 -51q27 27 55 51t54 41h62v-13q-19 -19 -43.5 -45t-47 -52.5t-34.5 -49.5h-90z" />
    <glyph glyph-name="uni01E8#0" unicode="&#x1e8;" horiz-adv-x="619" 
d="M619 0h-106l-253 341l-73 -64v-277h-90v714h90v-352q30 34 61 68l62 68l193 216h105l-283 -311zM294 784q-13 23 -35 49.5t-46 52.5t-42 45v13h60q26 -17 54 -41t53 -51q27 27 55 51t54 41h62v-13q-19 -19 -43.5 -45t-47 -52.5t-34.5 -49.5h-90z" />
    <glyph glyph-name="uni01E9#0" unicode="&#x1e9;" horiz-adv-x="534" 
d="M172 760v-397q0 -16 -1.5 -42t-2.5 -45h4q6 8 18 23t24.5 30.5t21.5 25.5l171 181h103l-217 -229l232 -307h-106l-186 250l-61 -53v-197h-87v760h87zM83 830q-13 23 -35 49.5t-46 52.5t-42 45v13h60q26 -17 54 -41t53 -51q27 27 55 51t54 41h62v-13q-19 -19 -43.5 -45
t-47 -52.5t-34.5 -49.5h-90z" />
    <glyph glyph-name="uni01EA#0" unicode="&#x1ea;" horiz-adv-x="781" 
d="M720 358q0 -111 -37.5 -193.5t-110.5 -128.5t-181 -46q-111 0 -184.5 46t-109.5 129t-36 194q0 110 36 192t109.5 128t185.5 46q107 0 180 -45.5t110.5 -128t37.5 -193.5zM156 358q0 -135 57 -212.5t178 -77.5q122 0 178 77.5t56 212.5t-56 211.5t-177 76.5t-178.5 -76.5
t-57.5 -211.5zM388 -116q0 -45 45 -45q17 0 28.5 2.5t19.5 3.5v-56q-14 -4 -28 -6.5t-34 -2.5q-53 0 -78 25t-25 69q0 29 14.5 56t36 49t41.5 36l48 -15q-34 -32 -51 -58.5t-17 -57.5z" />
    <glyph glyph-name="uni01EB#0" unicode="&#x1eb;" horiz-adv-x="605" 
d="M551 269q0 -133 -67.5 -206t-182.5 -73q-71 0 -126.5 32.5t-87.5 95t-32 151.5q0 133 67 205t182 72q73 0 128.5 -32.5t87 -94t31.5 -150.5zM146 269q0 -95 37.5 -150.5t119.5 -55.5q81 0 119 55.5t38 150.5t-38 149t-120 54t-119 -54t-37 -149zM302 -116q0 -45 45 -45
q17 0 28.5 2.5t19.5 3.5v-56q-14 -4 -28 -6.5t-34 -2.5q-53 0 -78 25t-25 69q0 29 14.5 56t36 49t41.5 36l48 -15q-34 -32 -51 -58.5t-17 -57.5z" />
    <glyph glyph-name="uni01EC#0" unicode="&#x1ec;" horiz-adv-x="781" 
d="M720 358q0 -111 -37.5 -193.5t-110.5 -128.5t-181 -46q-111 0 -184.5 46t-109.5 129t-36 194q0 110 36 192t109.5 128t185.5 46q107 0 180 -45.5t110.5 -128t37.5 -193.5zM156 358q0 -135 57 -212.5t178 -77.5q122 0 178 77.5t56 212.5t-56 211.5t-177 76.5t-178.5 -76.5
t-57.5 -211.5zM539 855v-71h-297v71h297zM400 -116q0 -45 45 -45q17 0 28.5 2.5t19.5 3.5v-56q-14 -4 -28 -6.5t-34 -2.5q-53 0 -78 25t-25 69q0 29 14.5 56t36 49t41.5 36l48 -15q-34 -32 -51 -58.5t-17 -57.5z" />
    <glyph glyph-name="uni01ED#0" unicode="&#x1ed;" horiz-adv-x="605" 
d="M551 269q0 -133 -67.5 -206t-182.5 -73q-71 0 -126.5 32.5t-87.5 95t-32 151.5q0 133 67 205t182 72q73 0 128.5 -32.5t87 -94t31.5 -150.5zM146 269q0 -95 37.5 -150.5t119.5 -55.5q81 0 119 55.5t38 150.5t-38 149t-120 54t-119 -54t-37 -149zM451 677v-71h-297v71h297
zM302 -116q0 -45 45 -45q17 0 28.5 2.5t19.5 3.5v-56q-14 -4 -28 -6.5t-34 -2.5q-53 0 -78 25t-25 69q0 29 14.5 56t36 49t41.5 36l48 -15q-34 -32 -51 -58.5t-17 -57.5z" />
    <glyph glyph-name="uni01EE#0" unicode="&#x1ee;" horiz-adv-x="584" 
d="M499 714v-71l-245 -236q128 -4 201.5 -54t73.5 -149q0 -94 -71 -154t-217 -60q-58 0 -109.5 8.5t-96.5 30.5v82q47 -22 102 -34.5t105 -12.5q97 0 145 37t48 104t-56.5 98t-161.5 31h-67v73l235 227h-330v80h444zM229 784q-13 23 -35 49.5t-46 52.5t-42 45v13h60
q26 -17 54 -41t53 -51q27 27 55 51t54 41h62v-13q-19 -19 -43.5 -45t-47 -52.5t-34.5 -49.5h-90z" />
    <glyph glyph-name="uni01EF#0" unicode="&#x1ef;" horiz-adv-x="498" 
d="M437 536v-64l-219 -244q68 -4 124 -30.5t89 -75t33 -121.5q0 -71 -32.5 -125.5t-92 -85t-140.5 -30.5q-59 0 -106 9.5t-79 25.5v80q33 -16 82 -29t107 -13q77 0 125 44.5t48 121.5q0 84 -55.5 121.5t-146.5 37.5h-59v61l219 243h-306v74h409zM189 606q-13 23 -35 49.5
t-46 52.5t-42 45v13h60q26 -17 54 -41t53 -51q27 27 55 51t54 41h62v-13q-19 -19 -43.5 -45t-47 -52.5t-34.5 -49.5h-90z" />
    <glyph glyph-name="uni01F0#0" unicode="&#x1f0;" horiz-adv-x="258" 
d="M22 -240q-25 0 -44 3.5t-33 8.5v71q15 -4 31 -7t35 -3q32 0 53 17.5t21 66.5v619h88v-616q0 -75 -36 -117.5t-115 -42.5zM83 606q-13 23 -35 49.5t-46 52.5t-42 45v13h60q26 -17 54 -41t53 -51q27 27 55 51t54 41h62v-13q-19 -19 -43.5 -45t-47 -52.5t-34.5 -49.5h-90z
" />
    <glyph glyph-name="uni01F1#0" unicode="&#x1f1;" horiz-adv-x="1292" 
d="M669 364q0 -181 -98.5 -272.5t-274.5 -91.5h-199v714h220q108 0 187 -40t122 -117.5t43 -192.5zM574 361q0 143 -70.5 209.5t-199.5 66.5h-117v-560h97q290 0 290 284zM1253 0h-495v68l376 566h-364v80h473v-68l-376 -566h386v-80z" />
    <glyph glyph-name="uni01F2#0" unicode="&#x1f2;" horiz-adv-x="1200" 
d="M669 364q0 -181 -98.5 -272.5t-274.5 -91.5h-199v714h220q108 0 187 -40t122 -117.5t43 -192.5zM574 361q0 143 -70.5 209.5t-199.5 66.5h-117v-560h97q290 0 290 284zM1161 0h-392v58l288 410h-271v68h368v-66l-284 -402h291v-68z" />
    <glyph glyph-name="uni01F3#0" unicode="&#x1f3;" horiz-adv-x="1085" 
d="M275 -10q-100 0 -160 69.5t-60 207.5t60.5 208.5t160.5 70.5q62 0 101.5 -23t64.5 -56h6q-1 13 -3.5 38.5t-2.5 40.5v214h88v-760h-71l-13 72h-4q-24 -34 -64 -58t-103 -24zM289 63q85 0 119.5 46.5t34.5 140.5v16q0 100 -33 153.5t-122 53.5q-71 0 -106.5 -56.5
t-35.5 -151.5q0 -96 35.5 -149t107.5 -53zM1046 0h-392v58l288 410h-271v68h368v-66l-284 -402h291v-68z" />
    <glyph glyph-name="uni01F4#0" unicode="&#x1f4;" horiz-adv-x="728" 
d="M407 377h247v-350q-58 -19 -117 -28t-134 -9q-111 0 -187 44.5t-115.5 127t-39.5 195.5q0 112 44 194t126.5 127.5t199.5 45.5q60 0 113.5 -11t99.5 -31l-34 -78q-38 17 -85.5 29t-98.5 12q-128 0 -199.5 -77t-71.5 -211q0 -85 27.5 -150.5t86.5 -102t155 -36.5
q47 0 80 5t60 12v212h-157v80zM546 944v-10q-12 -18 -37 -46.5t-53.5 -57t-52.5 -46.5h-58v12q15 19 32.5 45t34.5 53.5t28 49.5h106z" />
    <glyph glyph-name="uni01F5#0" unicode="&#x1f5;" horiz-adv-x="615" 
d="M275 546q53 0 95.5 -20t72.5 -61h5l12 71h70v-545q0 -115 -58.5 -173t-181.5 -58q-118 0 -193 34v81q79 -42 198 -42q69 0 108.5 40.5t39.5 110.5v21q0 12 1 34.5t2 31.5h-4q-54 -81 -166 -81q-104 0 -162.5 73t-58.5 204q0 128 58.5 203.5t161.5 75.5zM287 472
q-67 0 -104 -53.5t-37 -152.5t36.5 -151.5t106.5 -52.5q81 0 118 43.5t37 140.5v21q0 110 -38 157.5t-119 47.5zM438 766v-10q-12 -18 -37 -46.5t-53.5 -57t-52.5 -46.5h-58v12q15 19 32.5 45t34.5 53.5t28 49.5h106z" />
    <glyph glyph-name="uni01F6#0" unicode="&#x1f6;" horiz-adv-x="938" 
d="M97 0v714h90v-302h296v302h90v-550q0 -45 23.5 -70t69.5 -25q48 0 70 27t22 69v371h90v-371q0 -74 -45 -124t-140 -50q-88 0 -134 48t-46 127v167h-296v-333h-90z" />
    <glyph glyph-name="uni01F7#0" unicode="&#x1f7;" horiz-adv-x="661" 
d="M389 725q63 0 112 -26t77 -80t28 -137q0 -67 -21 -133.5t-68.5 -130.5t-128.5 -121.5t-201 -106.5v-230h-90v955h71l15 -97h5q30 45 77.5 76t123.5 31zM373 647q-70 0 -110.5 -28.5t-58 -80t-17.5 -120.5v-344q168 71 248.5 176t80.5 231q0 83 -38 124.5t-105 41.5z" />
    <glyph glyph-name="uni01F8#0" unicode="&#x1f8;" horiz-adv-x="760" 
d="M663 0h-105l-382 593h-4q2 -35 5 -87t3 -107v-399h-83v714h104l381 -591h4q-1 16 -2.5 48t-3 70t-1.5 70v403h84v-714zM354 944q11 -22 27.5 -49.5t35 -53.5t33.5 -45v-12h-59q-23 18 -52 46.5t-53.5 57t-36.5 46.5v10h105z" />
    <glyph glyph-name="uni01F9#0" unicode="&#x1f9;" horiz-adv-x="618" 
d="M343 546q96 0 145 -46.5t49 -150.5v-349h-87v343q0 129 -120 129q-89 0 -123 -50t-34 -144v-278h-88v536h71l13 -73h5q26 42 72 62.5t97 20.5zM283 766q11 -22 27.5 -49.5t35 -53.5t33.5 -45v-12h-59q-23 18 -52 46.5t-53.5 57t-36.5 46.5v10h105z" />
    <glyph glyph-name="Aringacute#0" unicode="&#x1fa;" horiz-adv-x="640" 
d="M271 829v9q21 24 45 58t40 62h106v-8q-10 -14 -33 -37t-50 -46t-49 -38h-59zM0 0l258 608q-49 27 -49 90q0 50 30.5 78t78.5 28q47 0 79.5 -27.5t32.5 -77.5q0 -31 -13 -54t-35 -36l258 -609h-93l-82 192h-295l-78 -192h-92zM318 642q25 0 40.5 14.5t15.5 41.5
t-15.5 41.5t-40.5 14.5q-24 0 -40 -14.5t-16 -41.5q0 -26 14.5 -41t41.5 -15zM201 272h238l-84 207q-7 18 -17.5 46t-18.5 55q-8 -27 -18 -56.5t-17 -46.5z" />
    <glyph glyph-name="aringacute#0" unicode="&#x1fb;" horiz-adv-x="561" 
d="M446 958v-6q-10 -11 -38 -29.5t-60 -36.5t-55 -30h-63v8q21 19 45 45.5t40 48.5h131zM285 817q47 0 79 -27.5t32 -76.5q0 -51 -31.5 -79t-79.5 -28q-49 0 -79 28t-30 78t30 77.5t79 27.5zM285 768q-24 0 -40 -15t-16 -41t14.5 -41t41.5 -15q25 0 40.5 15t15.5 41t-16 41
t-40 15zM288 545q98 0 145 -43t47 -137v-365h-64l-17 76h-4q-35 -44 -73.5 -65t-106.5 -21q-73 0 -121 38.5t-48 120.5q0 80 63 123.5t194 47.5l91 3v32q0 67 -29 93t-82 26q-42 0 -80 -12.5t-71 -28.5l-27 66q35 19 83 32.5t100 13.5zM393 262l-79 -3q-100 -4 -138.5 -32
t-38.5 -79q0 -45 27.5 -66t70.5 -21q68 0 113 37.5t45 115.5v48z" />
    <glyph glyph-name="AEacute#0" unicode="&#x1fc;" horiz-adv-x="881" 
d="M821 0h-372v221h-250l-107 -221h-93l339 714h483v-79h-282v-223h263v-78h-263v-255h282v-79zM234 301h215v333h-58zM634 944v-10q-12 -18 -37 -46.5t-53.5 -57t-52.5 -46.5h-58v12q15 19 32.5 45t34.5 53.5t28 49.5h106z" />
    <glyph glyph-name="aeacute#0" unicode="&#x1fd;" horiz-adv-x="864" 
d="M603 546q65 0 112 -30t72.5 -84t25.5 -126v-54h-343q2 -96 41.5 -141.5t113.5 -45.5q50 0 88 9.5t76 27.5v-77q-40 -18 -78.5 -26.5t-88.5 -8.5q-141 0 -203 113q-34 -52 -80 -82.5t-123 -30.5q-73 0 -121.5 38.5t-48.5 120.5q0 80 60 123.5t184 47.5l90 3v34
q0 65 -30.5 91t-81.5 26q-40 0 -78.5 -12t-71.5 -29l-27 66q35 20 85 33t99 13q62 0 102.5 -20.5t61.5 -65.5q26 41 68 64t96 23zM602 474q-58 0 -91.5 -39.5t-38.5 -113.5h248q0 69 -28.5 111t-89.5 42zM378 262l-75 -3q-94 -4 -130 -32t-36 -79q0 -45 25.5 -66t67.5 -21
q63 0 105.5 37.5t42.5 115.5v48zM580 766v-10q-12 -18 -37 -46.5t-53.5 -57t-52.5 -46.5h-58v12q15 19 32.5 45t34.5 53.5t28 49.5h106z" />
    <glyph glyph-name="Oslashacute#0" unicode="&#x1fe;" horiz-adv-x="781" 
d="M720 358q0 -111 -37.5 -193.5t-110.5 -128.5t-181 -46q-112 0 -185 47l-48 -68l-61 40l52 74q-44 49 -66 119t-22 157q0 110 36 192t109.5 128t185.5 46q52 0 96.5 -12t81.5 -33l46 66l61 -41l-51 -71q94 -99 94 -276zM156 358q0 -61 11.5 -111t35.5 -87l319 451
q-52 35 -130 35q-121 0 -178.5 -76.5t-57.5 -211.5zM625 358q0 129 -51 202l-320 -454q26 -18 60.5 -28t76.5 -10q122 0 178 77.5t56 212.5zM533 944v-10q-12 -18 -37 -46.5t-53.5 -57t-52.5 -46.5h-58v12q15 19 32.5 45t34.5 53.5t28 49.5h106z" />
    <glyph glyph-name="oslashacute#0" unicode="&#x1ff;" horiz-adv-x="605" 
d="M551 269q0 -133 -67.5 -206t-182.5 -73q-73 0 -129 33l-40 -56l-58 39l45 62q-31 36 -47.5 86.5t-16.5 114.5q0 133 67 205t182 72q73 0 131 -36l39 56l59 -38l-45 -63q29 -35 46 -84.5t17 -111.5zM146 269q0 -38 5.5 -70.5t18.5 -57.5l220 306q-36 25 -88 25
q-82 0 -119 -54t-37 -149zM460 269q0 74 -23 123l-220 -306q34 -23 86 -23q81 0 119 55.5t38 150.5zM444 766v-10q-12 -18 -37 -46.5t-53.5 -57t-52.5 -46.5h-58v12q15 19 32.5 45t34.5 53.5t28 49.5h106z" />
    <glyph glyph-name="uni0200#0" unicode="&#x200;" horiz-adv-x="639" 
d="M545 0l-86 221h-283l-85 -221h-91l279 717h81l278 -717h-93zM432 301l-80 216q-3 8 -10 29t-13.5 43.5t-10.5 34.5q-7 -31 -16 -60.5t-15 -46.5l-81 -216h226zM367 944q16 -34 40.5 -76.5t45.5 -71.5v-12h-50q-22 18 -49 46.5t-50 57.5t-34 46v10h97zM191 944
q16 -34 40.5 -76.5t45.5 -71.5v-12h-50q-22 18 -49 46.5t-50 57.5t-34 46v10h97z" />
    <glyph glyph-name="uni0201#0" unicode="&#x201;" horiz-adv-x="561" 
d="M288 545q98 0 145 -43t47 -137v-365h-64l-17 76h-4q-35 -44 -73.5 -65t-106.5 -21q-73 0 -121 38.5t-48 120.5q0 80 63 123.5t194 47.5l91 3v32q0 67 -29 93t-82 26q-42 0 -80 -12.5t-71 -28.5l-27 66q35 19 83 32.5t100 13.5zM393 262l-79 -3q-100 -4 -138.5 -32
t-38.5 -79q0 -45 27.5 -66t70.5 -21q68 0 113 37.5t45 115.5v48zM330 766q16 -34 40.5 -76.5t45.5 -71.5v-12h-50q-22 18 -49 46.5t-50 57.5t-34 46v10h97zM154 766q16 -34 40.5 -76.5t45.5 -71.5v-12h-50q-22 18 -49 46.5t-50 57.5t-34 46v10h97z" />
    <glyph glyph-name="uni0202#0" unicode="&#x202;" horiz-adv-x="639" 
d="M545 0l-86 221h-283l-85 -221h-91l279 717h81l278 -717h-93zM432 301l-80 216q-3 8 -10 29t-13.5 43.5t-10.5 34.5q-7 -31 -16 -60.5t-15 -46.5l-81 -216h226zM320 918q74 0 111.5 -36t41.5 -98h-54q-4 41 -29.5 52t-71.5 11q-39 0 -67.5 -12t-33.5 -51h-55q5 60 45.5 97
t112.5 37z" />
    <glyph glyph-name="uni0203#0" unicode="&#x203;" horiz-adv-x="561" 
d="M288 545q98 0 145 -43t47 -137v-365h-64l-17 76h-4q-35 -44 -73.5 -65t-106.5 -21q-73 0 -121 38.5t-48 120.5q0 80 63 123.5t194 47.5l91 3v32q0 67 -29 93t-82 26q-42 0 -80 -12.5t-71 -28.5l-27 66q35 19 83 32.5t100 13.5zM393 262l-79 -3q-100 -4 -138.5 -32
t-38.5 -79q0 -45 27.5 -66t70.5 -21q68 0 113 37.5t45 115.5v48zM283 740q74 0 111.5 -36t41.5 -98h-54q-4 41 -29.5 52t-71.5 11q-39 0 -67.5 -12t-33.5 -51h-55q5 60 45.5 97t112.5 37z" />
    <glyph glyph-name="uni0204#0" unicode="&#x204;" horiz-adv-x="556" 
d="M496 0h-399v714h399v-79h-309v-223h291v-78h-291v-255h309v-79zM354 944q16 -34 40.5 -76.5t45.5 -71.5v-12h-50q-22 18 -49 46.5t-50 57.5t-34 46v10h97zM178 944q16 -34 40.5 -76.5t45.5 -71.5v-12h-50q-22 18 -49 46.5t-50 57.5t-34 46v10h97z" />
    <glyph glyph-name="uni0205#0" unicode="&#x205;" horiz-adv-x="564" 
d="M292 546q69 0 118.5 -30t76 -84.5t26.5 -127.5v-53h-367q2 -91 46.5 -138.5t124.5 -47.5q51 0 90.5 9.5t81.5 27.5v-77q-41 -18 -81 -26.5t-95 -8.5q-76 0 -134.5 31t-91 92.5t-32.5 150.5q0 88 29.5 151t83 97t124.5 34zM291 474q-63 0 -99.5 -40.5t-43.5 -112.5h273
q-1 68 -32 110.5t-98 42.5zM334 766q16 -34 40.5 -76.5t45.5 -71.5v-12h-50q-22 18 -49 46.5t-50 57.5t-34 46v10h97zM158 766q16 -34 40.5 -76.5t45.5 -71.5v-12h-50q-22 18 -49 46.5t-50 57.5t-34 46v10h97z" />
    <glyph glyph-name="uni0206#0" unicode="&#x206;" horiz-adv-x="556" 
d="M496 0h-399v714h399v-79h-309v-223h291v-78h-291v-255h309v-79zM307 918q74 0 111.5 -36t41.5 -98h-54q-4 41 -29.5 52t-71.5 11q-39 0 -67.5 -12t-33.5 -51h-55q5 60 45.5 97t112.5 37z" />
    <glyph glyph-name="uni0207#0" unicode="&#x207;" horiz-adv-x="564" 
d="M292 546q69 0 118.5 -30t76 -84.5t26.5 -127.5v-53h-367q2 -91 46.5 -138.5t124.5 -47.5q51 0 90.5 9.5t81.5 27.5v-77q-41 -18 -81 -26.5t-95 -8.5q-76 0 -134.5 31t-91 92.5t-32.5 150.5q0 88 29.5 151t83 97t124.5 34zM291 474q-63 0 -99.5 -40.5t-43.5 -112.5h273
q-1 68 -32 110.5t-98 42.5zM287 740q74 0 111.5 -36t41.5 -98h-54q-4 41 -29.5 52t-71.5 11q-39 0 -67.5 -12t-33.5 -51h-55q5 60 45.5 97t112.5 37z" />
    <glyph glyph-name="uni0208#0" unicode="&#x208;" horiz-adv-x="285" 
d="M97 0v714h90v-714h-90zM192 944q16 -34 40.5 -76.5t45.5 -71.5v-12h-50q-22 18 -49 46.5t-50 57.5t-34 46v10h97zM16 944q16 -34 40.5 -76.5t45.5 -71.5v-12h-50q-22 18 -49 46.5t-50 57.5t-34 46v10h97z" />
    <glyph glyph-name="uni0209#0" unicode="&#x209;" horiz-adv-x="258" 
d="M173 0h-88v536h88v-536zM178 766q16 -34 40.5 -76.5t45.5 -71.5v-12h-50q-22 18 -49 46.5t-50 57.5t-34 46v10h97zM2 766q16 -34 40.5 -76.5t45.5 -71.5v-12h-50q-22 18 -49 46.5t-50 57.5t-34 46v10h97z" />
    <glyph glyph-name="uni020A#0" unicode="&#x20a;" horiz-adv-x="285" 
d="M97 0v714h90v-714h-90zM145 918q74 0 111.5 -36t41.5 -98h-54q-4 41 -29.5 52t-71.5 11q-39 0 -67.5 -12t-33.5 -51h-55q5 60 45.5 97t112.5 37z" />
    <glyph glyph-name="uni020B#0" unicode="&#x20b;" horiz-adv-x="258" 
d="M173 0h-88v536h88v-536zM131 740q74 0 111.5 -36t41.5 -98h-54q-4 41 -29.5 52t-71.5 11q-39 0 -67.5 -12t-33.5 -51h-55q5 60 45.5 97t112.5 37z" />
    <glyph glyph-name="uni020C#0" unicode="&#x20c;" horiz-adv-x="781" 
d="M720 358q0 -111 -37.5 -193.5t-110.5 -128.5t-181 -46q-111 0 -184.5 46t-109.5 129t-36 194q0 110 36 192t109.5 128t185.5 46q107 0 180 -45.5t110.5 -128t37.5 -193.5zM156 358q0 -135 57 -212.5t178 -77.5q122 0 178 77.5t56 212.5t-56 211.5t-177 76.5t-178.5 -76.5
t-57.5 -211.5zM440 944q16 -34 40.5 -76.5t45.5 -71.5v-12h-50q-22 18 -49 46.5t-50 57.5t-34 46v10h97zM264 944q16 -34 40.5 -76.5t45.5 -71.5v-12h-50q-22 18 -49 46.5t-50 57.5t-34 46v10h97z" />
    <glyph glyph-name="uni020D#0" unicode="&#x20d;" horiz-adv-x="605" 
d="M551 269q0 -133 -67.5 -206t-182.5 -73q-71 0 -126.5 32.5t-87.5 95t-32 151.5q0 133 67 205t182 72q73 0 128.5 -32.5t87 -94t31.5 -150.5zM146 269q0 -95 37.5 -150.5t119.5 -55.5q81 0 119 55.5t38 150.5t-38 149t-120 54t-119 -54t-37 -149zM352 766
q16 -34 40.5 -76.5t45.5 -71.5v-12h-50q-22 18 -49 46.5t-50 57.5t-34 46v10h97zM176 766q16 -34 40.5 -76.5t45.5 -71.5v-12h-50q-22 18 -49 46.5t-50 57.5t-34 46v10h97z" />
    <glyph glyph-name="uni020E#0" unicode="&#x20e;" horiz-adv-x="781" 
d="M720 358q0 -111 -37.5 -193.5t-110.5 -128.5t-181 -46q-111 0 -184.5 46t-109.5 129t-36 194q0 110 36 192t109.5 128t185.5 46q107 0 180 -45.5t110.5 -128t37.5 -193.5zM156 358q0 -135 57 -212.5t178 -77.5q122 0 178 77.5t56 212.5t-56 211.5t-177 76.5t-178.5 -76.5
t-57.5 -211.5zM393 918q74 0 111.5 -36t41.5 -98h-54q-4 41 -29.5 52t-71.5 11q-39 0 -67.5 -12t-33.5 -51h-55q5 60 45.5 97t112.5 37z" />
    <glyph glyph-name="uni020F#0" unicode="&#x20f;" horiz-adv-x="605" 
d="M551 269q0 -133 -67.5 -206t-182.5 -73q-71 0 -126.5 32.5t-87.5 95t-32 151.5q0 133 67 205t182 72q73 0 128.5 -32.5t87 -94t31.5 -150.5zM146 269q0 -95 37.5 -150.5t119.5 -55.5q81 0 119 55.5t38 150.5t-38 149t-120 54t-119 -54t-37 -149zM305 740q74 0 111.5 -36
t41.5 -98h-54q-4 41 -29.5 52t-71.5 11q-39 0 -67.5 -12t-33.5 -51h-55q5 60 45.5 97t112.5 37z" />
    <glyph glyph-name="uni0210#0" unicode="&#x210;" horiz-adv-x="622" 
d="M294 714q133 0 196.5 -50.5t63.5 -152.5q0 -57 -21 -95t-53.5 -60.5t-68.5 -35.5l196 -320h-105l-173 295h-142v-295h-90v714h197zM289 636h-102v-265h107q87 0 127 34.5t40 101.5q0 70 -42 99.5t-130 29.5zM360 944q16 -34 40.5 -76.5t45.5 -71.5v-12h-50
q-22 18 -49 46.5t-50 57.5t-34 46v10h97zM184 944q16 -34 40.5 -76.5t45.5 -71.5v-12h-50q-22 18 -49 46.5t-50 57.5t-34 46v10h97z" />
    <glyph glyph-name="uni0211#0" unicode="&#x211;" horiz-adv-x="413" 
d="M335 546q15 0 32.5 -1.5t30.5 -4.5l-11 -81q-13 3 -28.5 5t-29.5 2q-41 0 -77 -22.5t-57.5 -63t-21.5 -94.5v-286h-88v536h72l10 -98h4q26 44 67 76t97 32zM289 766q16 -34 40.5 -76.5t45.5 -71.5v-12h-50q-22 18 -49 46.5t-50 57.5t-34 46v10h97zM113 766
q16 -34 40.5 -76.5t45.5 -71.5v-12h-50q-22 18 -49 46.5t-50 57.5t-34 46v10h97z" />
    <glyph glyph-name="uni0212#0" unicode="&#x212;" horiz-adv-x="622" 
d="M294 714q133 0 196.5 -50.5t63.5 -152.5q0 -57 -21 -95t-53.5 -60.5t-68.5 -35.5l196 -320h-105l-173 295h-142v-295h-90v714h197zM289 636h-102v-265h107q87 0 127 34.5t40 101.5q0 70 -42 99.5t-130 29.5zM313 918q74 0 111.5 -36t41.5 -98h-54q-4 41 -29.5 52
t-71.5 11q-39 0 -67.5 -12t-33.5 -51h-55q5 60 45.5 97t112.5 37z" />
    <glyph glyph-name="uni0213#0" unicode="&#x213;" horiz-adv-x="413" 
d="M335 546q15 0 32.5 -1.5t30.5 -4.5l-11 -81q-13 3 -28.5 5t-29.5 2q-41 0 -77 -22.5t-57.5 -63t-21.5 -94.5v-286h-88v536h72l10 -98h4q26 44 67 76t97 32zM242 740q74 0 111.5 -36t41.5 -98h-54q-4 41 -29.5 52t-71.5 11q-39 0 -67.5 -12t-33.5 -51h-55q5 60 45.5 97
t112.5 37z" />
    <glyph glyph-name="uni0214#0" unicode="&#x214;" horiz-adv-x="731" 
d="M640 714v-462q0 -74 -30 -133.5t-91.5 -94t-156.5 -34.5q-133 0 -202.5 72.5t-69.5 191.5v460h90v-463q0 -87 46.5 -135t140.5 -48q97 0 140.5 51.5t43.5 132.5v462h89zM415 944q16 -34 40.5 -76.5t45.5 -71.5v-12h-50q-22 18 -49 46.5t-50 57.5t-34 46v10h97zM239 944
q16 -34 40.5 -76.5t45.5 -71.5v-12h-50q-22 18 -49 46.5t-50 57.5t-34 46v10h97z" />
    <glyph glyph-name="uni0215#0" unicode="&#x215;" horiz-adv-x="618" 
d="M533 536v-536h-72l-13 71h-4q-26 -42 -72 -61.5t-98 -19.5q-97 0 -146 46.5t-49 148.5v351h89v-345q0 -128 119 -128q89 0 123.5 50t34.5 144v279h88zM358 766q16 -34 40.5 -76.5t45.5 -71.5v-12h-50q-22 18 -49 46.5t-50 57.5t-34 46v10h97zM182 766q16 -34 40.5 -76.5
t45.5 -71.5v-12h-50q-22 18 -49 46.5t-50 57.5t-34 46v10h97z" />
    <glyph glyph-name="uni0216#0" unicode="&#x216;" horiz-adv-x="731" 
d="M640 714v-462q0 -74 -30 -133.5t-91.5 -94t-156.5 -34.5q-133 0 -202.5 72.5t-69.5 191.5v460h90v-463q0 -87 46.5 -135t140.5 -48q97 0 140.5 51.5t43.5 132.5v462h89zM368 918q74 0 111.5 -36t41.5 -98h-54q-4 41 -29.5 52t-71.5 11q-39 0 -67.5 -12t-33.5 -51h-55
q5 60 45.5 97t112.5 37z" />
    <glyph glyph-name="uni0217#0" unicode="&#x217;" horiz-adv-x="618" 
d="M533 536v-536h-72l-13 71h-4q-26 -42 -72 -61.5t-98 -19.5q-97 0 -146 46.5t-49 148.5v351h89v-345q0 -128 119 -128q89 0 123.5 50t34.5 144v279h88zM311 740q74 0 111.5 -36t41.5 -98h-54q-4 41 -29.5 52t-71.5 11q-39 0 -67.5 -12t-33.5 -51h-55q5 60 45.5 97
t112.5 37z" />
    <glyph glyph-name="uni0218#0" unicode="&#x218;" horiz-adv-x="549" 
d="M502 191q0 -95 -69 -148t-186 -53q-60 0 -111 9t-85 25v86q36 -16 89.5 -29t110.5 -13q80 0 120.5 31t40.5 84q0 35 -15 59t-51.5 44.5t-101.5 43.5q-91 33 -137.5 81t-46.5 131q0 57 29 97.5t80.5 62.5t118.5 22q59 0 108 -11t89 -29l-28 -77q-37 16 -80.5 27t-90.5 11
q-67 0 -101 -28.5t-34 -75.5q0 -36 15 -60t49 -43t92 -41q63 -23 106.5 -49.5t66 -63.5t22.5 -93zM321 -61v-9q-4 -18 -16.5 -45.5t-29 -55.5t-34.5 -50h-48v12q8 17 16.5 43.5t15.5 55t9 49.5h87z" />
    <glyph glyph-name="uni0219#0" unicode="&#x219;" horiz-adv-x="479" 
d="M434 148q0 -78 -58 -118t-156 -40q-56 0 -96.5 9t-71.5 25v80q32 -16 77.5 -29.5t92.5 -13.5q67 0 97 21.5t30 57.5q0 20 -11 36t-39.5 32t-81.5 36q-52 20 -89 40t-57 48t-20 72q0 68 55.5 105t145.5 37q49 0 91.5 -9.5t79.5 -26.5l-30 -70q-34 14 -71 24t-76 10
q-54 0 -82.5 -17.5t-28.5 -47.5q0 -22 13 -37.5t43.5 -30t81.5 -34.5q51 -19 87 -39t55 -48.5t19 -71.5zM304 -61v-9q-4 -18 -16.5 -45.5t-29 -55.5t-34.5 -50h-48v12q8 17 16.5 43.5t15.5 55t9 49.5h87z" />
    <glyph glyph-name="uni021A#0" unicode="&#x21a;" horiz-adv-x="556" 
d="M323 0h-90v635h-223v79h535v-79h-222v-635zM342 -61v-9q-4 -18 -16.5 -45.5t-29 -55.5t-34.5 -50h-48v12q8 17 16.5 43.5t15.5 55t9 49.5h87z" />
    <glyph glyph-name="uni021B#0" unicode="&#x21b;" horiz-adv-x="361" 
d="M264 62q20 0 41 3.5t34 7.5v-67q-14 -7 -40 -11.5t-50 -4.5q-42 0 -77.5 14.5t-57.5 50.5t-22 101v312h-76v42l77 35l35 114h52v-123h155v-68h-155v-310q0 -49 23.5 -72.5t60.5 -23.5zM278 -61v-9q-4 -18 -16.5 -45.5t-29 -55.5t-34.5 -50h-48v12q8 17 16.5 43.5t15.5 55
t9 49.5h87z" />
    <glyph glyph-name="uni021C#0" unicode="&#x21c;" horiz-adv-x="575" 
d="M39 -180v86q113 29 188 59t118.5 63t62.5 71t19 83q0 60 -30.5 95t-83.5 61q-35 -13 -73 -23.5t-78 -20.5l-17 70q95 25 154 48t86.5 53.5t27.5 75.5q0 51 -35 80t-97 29q-59 0 -107 -15.5t-93 -45.5l-43 61q57 40 117.5 57t126.5 17q57 0 108 -17.5t83.5 -56.5
t32.5 -106q0 -58 -31.5 -99.5t-83.5 -70.5q34 -16 63.5 -41t48 -61.5t18.5 -89.5q0 -93 -49.5 -158.5t-156 -113.5t-276.5 -90z" />
    <glyph glyph-name="uni021D#0" unicode="&#x21d;" horiz-adv-x="496" 
d="M30 -240v79q161 34 243.5 88.5t82.5 139.5q0 51 -22.5 80.5t-62.5 49.5q-29 -12 -62.5 -22t-70.5 -19l-17 66q88 23 135.5 46.5t65.5 50.5t18 61q0 46 -28.5 70.5t-78.5 24.5q-44 0 -82.5 -10t-75.5 -30l-30 64q46 26 93 36.5t96 10.5q55 0 99 -16.5t70.5 -53t26.5 -96.5
q0 -47 -23.5 -83.5t-66.5 -63.5q44 -21 75.5 -59.5t31.5 -106.5q0 -87 -52 -146t-145.5 -97t-219.5 -64z" />
    <glyph glyph-name="uni021E#0" unicode="&#x21e;" horiz-adv-x="741" 
d="M643 0h-90v333h-366v-333h-90v714h90v-302h366v302h90v-714zM325 784q-13 23 -35 49.5t-46 52.5t-42 45v13h60q26 -17 54 -41t53 -51q27 27 55 51t54 41h62v-13q-19 -19 -43.5 -45t-47 -52.5t-34.5 -49.5h-90z" />
    <glyph glyph-name="uni021F#0" unicode="&#x21f;" horiz-adv-x="618" 
d="M173 760v-223q0 -40 -5 -75h6q26 41 70.5 62t96.5 21q98 0 147 -46.5t49 -149.5v-349h-87v343q0 129 -120 129q-90 0 -123.5 -50.5t-33.5 -144.5v-277h-88v760h88zM84 830q-13 23 -35 49.5t-46 52.5t-42 45v13h60q26 -17 54 -41t53 -51q27 27 55 51t54 41h62v-13
q-19 -19 -43.5 -45t-47 -52.5t-34.5 -49.5h-90z" />
    <glyph glyph-name="uni0220#0" unicode="&#x220;" horiz-adv-x="741" 
d="M403 725q116 0 181.5 -62.5t65.5 -201.5v-701h-90v701q0 93 -39 139.5t-129 46.5q-110 0 -157.5 -60t-47.5 -164v-423h-90v715h71l15 -92h5q23 31 58 54t76 35.5t81 12.5z" />
    <glyph glyph-name="uni0221#0" unicode="&#x221;" horiz-adv-x="863" 
d="M563 -105l-81 5q9 83 27 141q-17 14 -25.5 28t-12.5 24h-5q-27 -52 -68.5 -77.5t-121.5 -25.5q-100 0 -160.5 69.5t-60.5 207.5t60.5 208.5t160.5 70.5q62 0 101.5 -23t64.5 -56h6q-1 13 -3.5 38.5t-2.5 40.5v214h88v-554q0 -53 14 -82q36 62 84.5 85t98.5 22
q61 -1 93.5 -30.5t32.5 -74.5q0 -52 -45 -89t-149 -37q-24 0 -43.5 2t-36.5 6q-6 -25 -10 -53.5t-6 -59.5zM289 63q85 0 119.5 46.5t34.5 140.5v16q0 100 -33 153.5t-122 53.5q-71 0 -106.5 -56.5t-35.5 -151.5q0 -96 35.5 -149t107.5 -53zM667 69q56 0 79 14.5t23 38.5
q0 14 -13.5 26t-40.5 12q-39 0 -67 -22t-46 -61q14 -4 30 -6t35 -2z" />
    <glyph glyph-name="uni0222#0" unicode="&#x222;" horiz-adv-x="671" 
d="M333 -10q-78 0 -140 28.5t-98.5 82.5t-36.5 131q0 82 39.5 131.5t109.5 70.5q-58 24 -85.5 73.5t-27.5 118.5v88h90v-88q0 -68 36.5 -112t114.5 -44q79 0 115.5 44t36.5 112v88h90v-88q0 -70 -28 -119t-87 -74q68 -21 109.5 -70.5t41.5 -130.5q0 -77 -35 -131
t-97.5 -82.5t-147.5 -28.5zM335 68q95 0 139 43.5t44 120.5t-44.5 119t-139.5 42q-94 0 -137.5 -42t-43.5 -119t44 -120.5t138 -43.5z" />
    <glyph glyph-name="uni0223#0" unicode="&#x223;" horiz-adv-x="596" 
d="M296 -10q-71 0 -126.5 29t-87.5 85t-32 135q0 84 34 135.5t96 73.5q-48 17 -72 60t-24 123v129h88v-126q0 -79 30.5 -114t95.5 -35t95.5 35t30.5 114v126h88v-129q0 -81 -24.5 -124t-72.5 -60q60 -22 95.5 -73.5t35.5 -134.5q0 -119 -67.5 -184t-182.5 -65zM298 63
q81 0 119 47t38 129q0 81 -38 127t-120 46t-119 -46t-37 -127q0 -82 37.5 -129t119.5 -47z" />
    <glyph glyph-name="uni0224#0" unicode="&#x224;" horiz-adv-x="572" 
d="M533 0h-495v68l376 566h-364v80h473v-68l-376 -566h386v-80zM416 -198q-19 0 -34.5 4t-25.5 8v73q8 -3 21 -6t29 -3q48 0 48 52v70h-10v80h89v-145q0 -64 -28.5 -98.5t-88.5 -34.5z" />
    <glyph glyph-name="uni0225#0" unicode="&#x225;" horiz-adv-x="470" 
d="M424 536v-66l-284 -402h291v-133q0 -64 -28.5 -98.5t-88.5 -34.5q-19 0 -34.5 4t-25.5 8v73q8 -3 21 -6t29 -3q48 0 48 52v70h-313v58l288 410h-271v68h368z" />
    <glyph glyph-name="uni0226#0" unicode="&#x226;" horiz-adv-x="639" 
d="M545 0l-86 221h-283l-85 -221h-91l279 717h81l278 -717h-93zM432 301l-80 216q-3 8 -10 29t-13.5 43.5t-10.5 34.5q-7 -31 -16 -60.5t-15 -46.5l-81 -216h226zM321 915q20 0 35.5 -13.5t15.5 -42.5q0 -28 -15.5 -42t-35.5 -14q-22 0 -37 14t-15 42q0 29 15 42.5t37 13.5z
" />
    <glyph glyph-name="uni0227#0" unicode="&#x227;" horiz-adv-x="561" 
d="M288 545q98 0 145 -43t47 -137v-365h-64l-17 76h-4q-35 -44 -73.5 -65t-106.5 -21q-73 0 -121 38.5t-48 120.5q0 80 63 123.5t194 47.5l91 3v32q0 67 -29 93t-82 26q-42 0 -80 -12.5t-71 -28.5l-27 66q35 19 83 32.5t100 13.5zM393 262l-79 -3q-100 -4 -138.5 -32
t-38.5 -79q0 -45 27.5 -66t70.5 -21q68 0 113 37.5t45 115.5v48zM284 737q20 0 35.5 -13.5t15.5 -42.5q0 -28 -15.5 -42t-35.5 -14q-22 0 -37 14t-15 42q0 29 15 42.5t37 13.5z" />
    <glyph glyph-name="uni0228#0" unicode="&#x228;" horiz-adv-x="556" 
d="M496 0h-399v714h399v-79h-309v-223h291v-78h-291v-255h309v-79zM401 -139q0 -48 -37 -74.5t-111 -26.5q-32 0 -50 5v55q9 -2 24 -3.5t29 -1.5q36 0 55 9.5t19 34.5q0 26 -26.5 38t-64.5 17l43 86h58l-26 -53q36 -8 61.5 -28t25.5 -58z" />
    <glyph glyph-name="uni0229#0" unicode="&#x229;" horiz-adv-x="564" 
d="M292 546q69 0 118.5 -30t76 -84.5t26.5 -127.5v-53h-367q2 -91 46.5 -138.5t124.5 -47.5q51 0 90.5 9.5t81.5 27.5v-77q-41 -18 -81 -26.5t-95 -8.5q-76 0 -134.5 31t-91 92.5t-32.5 150.5q0 88 29.5 151t83 97t124.5 34zM291 474q-63 0 -99.5 -40.5t-43.5 -112.5h273
q-1 68 -32 110.5t-98 42.5zM402 -139q0 -48 -37 -74.5t-111 -26.5q-32 0 -50 5v55q9 -2 24 -3.5t29 -1.5q36 0 55 9.5t19 34.5q0 26 -26.5 38t-64.5 17l43 86h58l-26 -53q36 -8 61.5 -28t25.5 -58z" />
    <glyph glyph-name="uni022A#0" unicode="&#x22a;" horiz-adv-x="781" 
d="M720 358q0 -111 -37.5 -193.5t-110.5 -128.5t-181 -46q-111 0 -184.5 46t-109.5 129t-36 194q0 110 36 192t109.5 128t185.5 46q107 0 180 -45.5t110.5 -128t37.5 -193.5zM156 358q0 -135 57 -212.5t178 -77.5q122 0 178 77.5t56 212.5t-56 211.5t-177 76.5t-178.5 -76.5
t-57.5 -211.5zM539 1014v-71h-297v71h297zM297 878q19 0 32.5 -12t13.5 -38t-13.5 -37.5t-32.5 -11.5t-33 11.5t-14 37.5t14 38t33 12zM484 878q20 0 33.5 -12t13.5 -38t-13.5 -37.5t-33.5 -11.5q-19 0 -33 11.5t-14 37.5t14 38t33 12z" />
    <glyph glyph-name="uni022B#0" unicode="&#x22b;" horiz-adv-x="605" 
d="M551 269q0 -133 -67.5 -206t-182.5 -73q-71 0 -126.5 32.5t-87.5 95t-32 151.5q0 133 67 205t182 72q73 0 128.5 -32.5t87 -94t31.5 -150.5zM146 269q0 -95 37.5 -150.5t119.5 -55.5q81 0 119 55.5t38 150.5t-38 149t-120 54t-119 -54t-37 -149zM451 836v-71h-297v71h297
zM209 700q19 0 32.5 -12t13.5 -38t-13.5 -37.5t-32.5 -11.5t-33 11.5t-14 37.5t14 38t33 12zM396 700q20 0 33.5 -12t13.5 -38t-13.5 -37.5t-33.5 -11.5q-19 0 -33 11.5t-14 37.5t14 38t33 12z" />
    <glyph glyph-name="uni022C#0" unicode="&#x22c;" horiz-adv-x="781" 
d="M720 358q0 -111 -37.5 -193.5t-110.5 -128.5t-181 -46q-111 0 -184.5 46t-109.5 129t-36 194q0 110 36 192t109.5 128t185.5 46q107 0 180 -45.5t110.5 -128t37.5 -193.5zM156 358q0 -135 57 -212.5t178 -77.5q122 0 178 77.5t56 212.5t-56 211.5t-177 76.5t-178.5 -76.5
t-57.5 -211.5zM242 943v71h297v-71h-297zM223 783q5 53 29.5 83.5t67.5 30.5q28 0 53 -12t48 -24t42 -12q21 0 30 13.5t16 35.5h50q-5 -52 -29 -83t-68 -31q-25 0 -50 12t-48 24t-44 12q-22 0 -31 -13t-15 -36h-51z" />
    <glyph glyph-name="uni022D#0" unicode="&#x22d;" horiz-adv-x="605" 
d="M551 269q0 -133 -67.5 -206t-182.5 -73q-71 0 -126.5 32.5t-87.5 95t-32 151.5q0 133 67 205t182 72q73 0 128.5 -32.5t87 -94t31.5 -150.5zM146 269q0 -95 37.5 -150.5t119.5 -55.5q81 0 119 55.5t38 150.5t-38 149t-120 54t-119 -54t-37 -149zM154 765v71h297v-71h-297
zM135 605q5 53 29.5 83.5t67.5 30.5q28 0 53 -12t48 -24t42 -12q21 0 30 13.5t16 35.5h50q-5 -52 -29 -83t-68 -31q-25 0 -50 12t-48 24t-44 12q-22 0 -31 -13t-15 -36h-51z" />
    <glyph glyph-name="uni022E#0" unicode="&#x22e;" horiz-adv-x="781" 
d="M720 358q0 -111 -37.5 -193.5t-110.5 -128.5t-181 -46q-111 0 -184.5 46t-109.5 129t-36 194q0 110 36 192t109.5 128t185.5 46q107 0 180 -45.5t110.5 -128t37.5 -193.5zM156 358q0 -135 57 -212.5t178 -77.5q122 0 178 77.5t56 212.5t-56 211.5t-177 76.5t-178.5 -76.5
t-57.5 -211.5zM394 915q20 0 35.5 -13.5t15.5 -42.5q0 -28 -15.5 -42t-35.5 -14q-22 0 -37 14t-15 42q0 29 15 42.5t37 13.5z" />
    <glyph glyph-name="uni022F#0" unicode="&#x22f;" horiz-adv-x="605" 
d="M551 269q0 -133 -67.5 -206t-182.5 -73q-71 0 -126.5 32.5t-87.5 95t-32 151.5q0 133 67 205t182 72q73 0 128.5 -32.5t87 -94t31.5 -150.5zM146 269q0 -95 37.5 -150.5t119.5 -55.5q81 0 119 55.5t38 150.5t-38 149t-120 54t-119 -54t-37 -149zM306 737q20 0 35.5 -13.5
t15.5 -42.5q0 -28 -15.5 -42t-35.5 -14q-22 0 -37 14t-15 42q0 29 15 42.5t37 13.5z" />
    <glyph glyph-name="uni0230#0" unicode="&#x230;" horiz-adv-x="781" 
d="M720 358q0 -111 -37.5 -193.5t-110.5 -128.5t-181 -46q-111 0 -184.5 46t-109.5 129t-36 194q0 110 36 192t109.5 128t185.5 46q107 0 180 -45.5t110.5 -128t37.5 -193.5zM156 358q0 -135 57 -212.5t178 -77.5q122 0 178 77.5t56 212.5t-56 211.5t-177 76.5t-178.5 -76.5
t-57.5 -211.5zM539 1001v-71h-297v71h297zM392 882q20 0 35.5 -13.5t15.5 -42.5q0 -28 -15.5 -42t-35.5 -14q-22 0 -37 14t-15 42q0 29 15 42.5t37 13.5z" />
    <glyph glyph-name="uni0231#0" unicode="&#x231;" horiz-adv-x="605" 
d="M551 269q0 -133 -67.5 -206t-182.5 -73q-71 0 -126.5 32.5t-87.5 95t-32 151.5q0 133 67 205t182 72q73 0 128.5 -32.5t87 -94t31.5 -150.5zM146 269q0 -95 37.5 -150.5t119.5 -55.5q81 0 119 55.5t38 150.5t-38 149t-120 54t-119 -54t-37 -149zM451 837v-71h-297v71h297
zM302 718q20 0 35.5 -13.5t15.5 -42.5q0 -28 -15.5 -42t-35.5 -14q-22 0 -37 14t-15 42q0 29 15 42.5t37 13.5z" />
    <glyph glyph-name="uni0232#0" unicode="&#x232;" horiz-adv-x="566" 
d="M283 363l186 351h97l-238 -437v-277h-90v273l-238 441h98zM431 855v-71h-297v71h297z" />
    <glyph glyph-name="uni0233#0" unicode="&#x233;" horiz-adv-x="510" 
d="M1 536h94l116 -305q15 -40 27 -76.5t18 -69.5h4q6 25 19 65.5t27 81.5l109 304h95l-231 -610q-28 -76 -72.5 -121t-122.5 -45q-24 0 -42 2.5t-31 5.5v70q11 -2 26.5 -4t32.5 -2q46 0 74.5 26t44.5 69l28 71zM403 677v-71h-297v71h297z" />
    <glyph glyph-name="uni0234#0" unicode="&#x234;" horiz-adv-x="381" 
d="M74 -30l-67 30q36 97 78 151v609h88v-542q32 12 68 12q65 0 97.5 -32.5t32.5 -83.5q0 -52 -34 -88t-99 -36q-47 0 -79.5 18t-49.5 47q-9 -17 -18 -39t-17 -46zM237 58q27 0 40.5 15t13.5 37q0 26 -15.5 39t-41.5 13q-31 0 -61 -24q2 -36 16 -58t48 -22z" />
    <glyph glyph-name="uni0235#0" unicode="&#x235;" horiz-adv-x="745" 
d="M439 -30l-67 30q36 97 78 151v192q0 129 -120 129q-89 0 -123 -50t-34 -144v-278h-88v536h71l13 -73h5q26 42 72 62.5t97 20.5q96 0 145 -46.5t49 -150.5v-131q32 12 68 12q65 0 97.5 -35t32.5 -85q0 -55 -34 -87.5t-99 -32.5q-46 0 -78 17.5t-51 46.5
q-9 -17 -17.5 -38.5t-16.5 -45.5zM601 58q29 0 41.5 15t12.5 37q0 26 -15.5 39t-41.5 13q-31 0 -61 -24q2 -36 16 -58t48 -22z" />
    <glyph glyph-name="uni0236#0" unicode="&#x236;" horiz-adv-x="388" 
d="M81 -30l-67 30q36 97 78 151v317h-76v42l77 35l35 114h52v-123h155v-68h-155v-250q32 12 68 12q65 0 97.5 -35t32.5 -85q0 -55 -34 -87.5t-99 -32.5q-46 0 -78.5 17.5t-51.5 46.5q-9 -17 -17.5 -38.5t-16.5 -45.5zM244 58q29 0 41.5 15t12.5 37q0 26 -15.5 39t-41.5 13
q-31 0 -61 -24q2 -36 16 -58t48 -22z" />
    <glyph glyph-name="uni0237#0" unicode="&#x237;" horiz-adv-x="258" 
d="M22 -240q-25 0 -44 3.5t-33 8.5v71q15 -4 31 -7t35 -3q32 0 53 17.5t21 66.5v619h88v-616q0 -75 -36 -117.5t-115 -42.5z" />
    <glyph glyph-name="uni0238#0" unicode="&#x238;" horiz-adv-x="972" 
d="M292 -10q-112 0 -174.5 69.5t-62.5 207.5t60.5 208.5t160.5 70.5q62 0 101.5 -23t64.5 -56h6q-1 13 -3.5 42t-2.5 63v188h88v-185q0 -34 -1.5 -63.5t-3.5 -46.5h5q23 34 63 57t103 23q100 0 160.5 -69.5t60.5 -207.5t-63.5 -208t-175.5 -70q-137 0 -193 125
q-28 -64 -78 -94.5t-115 -30.5zM295 63q73 0 110.5 56.5t37.5 151.5q0 100 -33 151t-122 51q-71 0 -106.5 -56.5t-35.5 -151.5q0 -96 36.5 -149t112.5 -53zM679 63q76 0 111.5 53t35.5 153q0 203 -145 203q-85 0 -118 -49t-33 -152q0 -101 36.5 -154.5t112.5 -53.5z" />
    <glyph glyph-name="uni0239#0" unicode="&#x239;" horiz-adv-x="972" 
d="M680 546q113 0 175 -69.5t62 -207.5t-60.5 -208.5t-160.5 -70.5q-62 0 -101.5 23t-64.5 56h-6q2 -13 4 -41.5t2 -63.5v-204h-88v201q0 34 2 64t3 46h-5q-22 -34 -62.5 -57t-103.5 -23q-100 0 -160.5 69.5t-60.5 207.5t63.5 208t175.5 70q137 0 193 -125q29 65 79 95
t114 30zM293 473q-76 0 -111.5 -53t-35.5 -153q0 -203 145 -203q86 0 118.5 49t32.5 152q0 101 -36 154.5t-113 53.5zM677 473q-73 0 -110.5 -56.5t-37.5 -151.5q0 -100 33 -151t122 -51q71 0 106.5 56.5t35.5 151.5q0 96 -36 149t-113 53z" />
    <glyph glyph-name="uni023A#0" unicode="&#x23a;" horiz-adv-x="639" 
d="M499 760l-290 -835h-67l290 835h67zM545 0l-86 221h-283l-85 -221h-91l279 717h81l278 -717h-93zM432 301l-80 216q-3 8 -10 29t-13.5 43.5t-10.5 34.5q-7 -31 -16 -60.5t-15 -46.5l-81 -216h226z" />
    <glyph glyph-name="uni023B#0" unicode="&#x23b;" horiz-adv-x="632" 
d="M559 760l-290 -835h-67l290 835h67zM403 645q-115 0 -181 -77t-66 -211q0 -133 61.5 -210.5t184.5 -77.5q47 0 89 8t82 20v-78q-40 -15 -82.5 -22t-101.5 -7q-109 0 -182 45t-109.5 128t-36.5 195q0 108 39.5 190.5t116.5 129t187 46.5q113 0 197 -42l-36 -76
q-33 15 -73.5 27t-88.5 12z" />
    <glyph glyph-name="uni023C#0" unicode="&#x23c;" horiz-adv-x="480" 
d="M479 760l-345 -968h-67l345 968h67zM300 -10q-71 0 -126.5 29t-87 90t-31.5 156q0 99 33 161t89.5 91t128.5 29q41 0 79 -8.5t62 -20.5l-27 -73q-24 9 -56 17t-60 8q-158 0 -158 -203q0 -97 38.5 -148.5t114.5 -51.5q44 0 77.5 9t61.5 22v-78q-27 -14 -59.5 -21.5
t-78.5 -7.5z" />
    <glyph glyph-name="uni023D#0" unicode="&#x23d;" horiz-adv-x="524" 
d="M10 332v71h347v-71h-347zM97 0v714h90v-634h312v-80h-402z" />
    <glyph glyph-name="uni023E#0" unicode="&#x23e;" horiz-adv-x="556" 
d="M520 760l-388 -835h-70l388 835h70zM323 0h-90v635h-223v79h535v-79h-222v-635z" />
    <glyph glyph-name="uni023F#0" unicode="&#x23f;" horiz-adv-x="479" 
d="M360 -240q-82 0 -121.5 38t-59.5 119q-18 70 -76 86q-16 5 -27.5 9.5t-23.5 11.5v80q32 -16 77.5 -29.5t92.5 -13.5q67 0 97 21.5t30 57.5q0 20 -11 36t-39.5 32t-81.5 36q-52 20 -89 40t-57 48t-20 72q0 68 55.5 105t145.5 37q49 0 91.5 -9.5t79.5 -26.5l-30 -70
q-34 14 -71 24t-76 10q-54 0 -82.5 -17.5t-28.5 -47.5q0 -22 13 -37.5t43.5 -30t81.5 -34.5q51 -19 87 -39t55 -48.5t19 -71.5q0 -75 -53.5 -115t-148.5 -42q11 -16 18.5 -34.5t13.5 -39.5q13 -44 38.5 -64t66.5 -20q17 0 38 4t34 9v-72q-11 -5 -34.5 -9.5t-46.5 -4.5z" />
    <glyph glyph-name="uni0240#0" unicode="&#x240;" horiz-adv-x="470" 
d="M387 -240q-60 0 -98 17.5t-60.5 52.5t-36.5 87q-12 44 -36.5 63.5t-81.5 19.5h-35v58l288 410h-271v68h368v-66l-284 -402q59 -10 90 -48t47 -103q11 -44 39 -64t77 -20q20 0 35.5 3t30.5 8v-72q-13 -5 -29.5 -8.5t-42.5 -3.5z" />
    <glyph glyph-name="uni0241#0" unicode="&#x241;" horiz-adv-x="448" 
d="M191 724q103 0 162 -51t59 -140q0 -75 -47 -144t-151 -118v-271h-90v322q89 28 141 83t52 125q0 52 -31 83.5t-99 31.5q-34 0 -78 -13t-74 -36l-33 72q35 26 86 41t103 15z" />
    <glyph glyph-name="uni0242#0" unicode="&#x242;" horiz-adv-x="436" 
d="M191 546q103 0 156 -51t53 -140q0 -45 -18 -92t-59 -89.5t-111 -75.5v-98h-88v144q89 28 137.5 83t48.5 125q0 121 -123 121q-34 0 -73 -13t-69 -36l-33 66q35 26 81 41t98 15z" />
    <glyph glyph-name="uni0243#0" unicode="&#x243;" horiz-adv-x="650" 
d="M97 0v171h-82v78h82v465h204q134 0 202.5 -39.5t68.5 -137.5q0 -63 -35 -104.5t-101 -53.5v-5q45 -7 81.5 -26t57.5 -54t21 -91q0 -97 -66.5 -150t-181.5 -53h-251zM187 410h132q92 0 126 29.5t34 87.5q0 59 -41.5 84.5t-132.5 25.5h-118v-227zM187 76h144q95 0 132 37
t37 97q0 56 -38.5 90.5t-137.5 34.5h-137v-86h148v-78h-148v-95z" />
    <glyph glyph-name="uni0244#0" unicode="&#x244;" horiz-adv-x="731" 
d="M10 354v78h711v-78h-711zM640 714v-462q0 -74 -30 -133.5t-91.5 -94t-156.5 -34.5q-133 0 -202.5 72.5t-69.5 191.5v460h90v-463q0 -87 46.5 -135t140.5 -48q97 0 140.5 51.5t43.5 132.5v462h89z" />
    <glyph glyph-name="uni0245#0" unicode="&#x245;" horiz-adv-x="608" 
d="M350 714l257 -714h-95l-158 450q-16 47 -29.5 88.5t-22.5 77.5q-7 -36 -20.5 -78t-29.5 -87l-157 -451h-95l256 714h94z" />
    <glyph glyph-name="uni0246#0" unicode="&#x246;" horiz-adv-x="556" 
d="M459 760l-212 -835h-65l212 835h65zM496 0h-399v714h399v-79h-309v-223h291v-78h-291v-255h309v-79z" />
    <glyph glyph-name="uni0247#0" unicode="&#x247;" horiz-adv-x="564" 
d="M479 760l-335 -968h-67l335 968h67zM292 546q69 0 118.5 -30t76 -84.5t26.5 -127.5v-53h-367q2 -91 46.5 -138.5t124.5 -47.5q51 0 90.5 9.5t81.5 27.5v-77q-41 -18 -81 -26.5t-95 -8.5q-76 0 -134.5 31t-91 92.5t-32.5 150.5q0 88 29.5 151t83 97t124.5 34zM291 474
q-63 0 -99.5 -40.5t-43.5 -112.5h273q-1 68 -32 110.5t-98 42.5z" />
    <glyph glyph-name="uni0248#0" unicode="&#x248;" horiz-adv-x="273" 
d="M-4 -190q-24 0 -42 3.5t-32 9.5v76q16 -4 34 -7t38 -3q25 0 47.5 10t36.5 35t14 70v310h-82v78h82v322h90v-322h81v-78h-81v-303q0 -103 -51 -152t-135 -49z" />
    <glyph glyph-name="uni0249#0" unicode="&#x249;" horiz-adv-x="258" 
d="M78 681q0 29 15 42.5t37 13.5q20 0 35.5 -13.5t15.5 -42.5q0 -28 -15.5 -42t-35.5 -14q-22 0 -37 14t-15 42zM22 -240q-25 0 -44 3.5t-33 8.5v71q15 -4 31 -7t35 -3q32 0 53 17.5t21 66.5v331h-75v71h75v217h88v-217h75v-71h-75v-328q0 -75 -36 -117.5t-115 -42.5z" />
    <glyph glyph-name="uni024A#0" unicode="&#x24a;" horiz-adv-x="767" 
d="M363 724q73 0 130 -27.5t85 -74.5h5l15 92h71v-793q0 -47 16 -64.5t47 -17.5q13 0 24 3t21 7v-76q-10 -6 -24 -9.5t-32 -3.5q-67 0 -104.5 37.5t-37.5 119.5v103q0 19 1.5 37t2.5 35h-5q-28 -46 -84 -74t-136 -28q-95 0 -161.5 46t-101 128.5t-34.5 193.5t34.5 193
t102 127.5t165.5 45.5zM361 646q-98 0 -152 -77t-54 -212t54 -212t153 -77q88 0 134.5 27t64.5 74.5t18 110.5v154q0 63 -18 111t-65 74.5t-135 26.5z" />
    <glyph glyph-name="uni024B#0" unicode="&#x24b;" horiz-adv-x="615" 
d="M276 546q63 0 103 -24t64 -59h4l13 73h70v-608q0 -59 12 -77.5t37 -18.5q17 0 30 3.5t20 7.5v-67q-9 -7 -27 -11.5t-43 -4.5q-31 0 -58 14.5t-43 51t-16 101.5v62q0 18 1 42t4 41h-6q-23 -34 -63.5 -58t-104.5 -24q-97 0 -157.5 69.5t-60.5 207.5t61.5 208.5t159.5 70.5z
M288 473q-72 0 -107 -56.5t-35 -151.5t35.5 -148.5t108.5 -53.5q83 0 117.5 45.5t35.5 139.5v18q0 102 -34 154.5t-121 52.5z" />
    <glyph glyph-name="uni024C#0" unicode="&#x24c;" horiz-adv-x="622" 
d="M127 295h-117v76h117v-76zM294 714q133 0 196.5 -50.5t63.5 -152.5q0 -57 -21 -95t-53.5 -60.5t-68.5 -35.5l196 -320h-105l-173 295h-142v-295h-90v714h197zM289 636h-102v-265h107q87 0 127 34.5t40 101.5q0 70 -42 99.5t-130 29.5z" />
    <glyph glyph-name="uni024D#0" unicode="&#x24d;" horiz-adv-x="413" 
d="M299 319v-71h-289v71h289zM335 546q15 0 32.5 -1.5t30.5 -4.5l-11 -81q-13 3 -28.5 5t-29.5 2q-41 0 -77 -22.5t-57.5 -63t-21.5 -94.5v-286h-88v536h72l10 -98h4q26 44 67 76t97 32z" />
    <glyph glyph-name="uni024E#0" unicode="&#x24e;" horiz-adv-x="566" 
d="M556 586v-78h-546v78h546zM283 363l186 351h97l-238 -437v-277h-90v273l-238 441h98z" />
    <glyph glyph-name="uni024F#0" unicode="&#x24f;" horiz-adv-x="510" 
d="M500 359v-71h-490v71h490zM1 536h94l116 -305q15 -40 27 -76.5t18 -69.5h4q6 25 19 65.5t27 81.5l109 304h95l-231 -610q-28 -76 -72.5 -121t-122.5 -45q-24 0 -42 2.5t-31 5.5v70q11 -2 26.5 -4t32.5 -2q46 0 74.5 26t44.5 69l28 71z" />
    <glyph glyph-name="uni0253#0" unicode="&#x253;" horiz-adv-x="615" 
d="M206 765q19 0 37.5 -4t28.5 -9v-73q-7 3 -21 6.5t-31 3.5q-22 0 -34.5 -13t-12.5 -45v-56q0 -34 -1.5 -63.5t-3.5 -46.5h5q23 34 63 57t103 23q100 0 160.5 -69.5t60.5 -207.5t-61 -208t-160 -70q-63 0 -103 23t-63 55h-7l-18 -68h-63v625q0 140 121 140zM324 472
q-85 0 -118 -49t-33 -152q0 -102 32.5 -155t120.5 -53q72 0 107.5 53t35.5 153q0 203 -145 203z" />
    <glyph glyph-name="uni0254#0" unicode="&#x254;" horiz-adv-x="480" 
d="M188 546q71 0 124 -27.5t83 -86.5t30 -154q0 -99 -33.5 -163t-90 -94.5t-127.5 -30.5q-43 0 -75.5 7.5t-59.5 21.5v78q28 -13 61 -22t75 -9q80 0 119.5 54t39.5 154t-37.5 148t-117.5 48q-28 0 -61.5 -7t-57.5 -19l-27 73q24 12 66.5 20.5t88.5 8.5z" />
    <glyph glyph-name="uni0256#0" unicode="&#x256;" horiz-adv-x="615" 
d="M568 -240q-34 0 -62.5 14.5t-46 51t-17.5 101.5v63q0 15 2.5 40.5t3.5 38.5h-6q-25 -33 -64.5 -56t-101.5 -23q-100 0 -160.5 69.5t-60.5 207.5t60.5 208.5t160.5 70.5q62 0 101.5 -23t64.5 -56h6q-1 13 -3.5 38.5t-2.5 40.5v214h88v-832q0 -59 14.5 -77.5t42.5 -18.5
q19 0 34.5 3.5t22.5 7.5v-67q-10 -7 -29.5 -11.5t-46.5 -4.5zM289 63q85 0 119.5 46.5t34.5 140.5v16q0 100 -33 153.5t-122 53.5q-71 0 -106.5 -56.5t-35.5 -151.5q0 -96 35.5 -149t107.5 -53z" />
    <glyph glyph-name="uni0257#0" unicode="&#x257;" horiz-adv-x="615" 
d="M275 -10q-100 0 -160 69.5t-60 207.5t60.5 208.5t160.5 70.5q62 0 101.5 -23t64.5 -56h6q-1 13 -3.5 38.5t-2.5 40.5v79q0 140 121 140q19 0 37.5 -4t28.5 -9v-73q-7 3 -21 6.5t-31 3.5q-22 0 -34.5 -13t-12.5 -45v-631h-71l-13 72h-4q-24 -34 -64 -58t-103 -24zM289 63
q85 0 119.5 46.5t34.5 140.5v16q0 100 -33 153.5t-122 53.5q-71 0 -106.5 -56.5t-35.5 -151.5q0 -96 35.5 -149t107.5 -53z" />
    <glyph glyph-name="uni0259#0" unicode="&#x259;" horiz-adv-x="564" 
d="M251 546q77 0 135 -31t90.5 -92t32.5 -151q0 -88 -29.5 -151t-83 -97t-124.5 -34q-68 0 -118 30t-76.5 84.5t-26.5 127.5v53h367q-2 91 -46.5 138.5t-124.5 47.5q-51 0 -90.5 -9.5t-81.5 -27.5v77q41 18 81 26.5t95 8.5zM416 215h-273q1 -68 32 -110.5t98 -42.5
q63 0 99.5 40.5t43.5 112.5z" />
    <glyph glyph-name="uni025B#0" unicode="&#x25b;" horiz-adv-x="483" 
d="M355 315v-72h-73q-151 0 -151 -92q0 -49 41 -69t101 -20q56 0 98.5 13t75.5 29v-77q-31 -16 -74 -26.5t-105 -10.5q-115 0 -170 44.5t-55 111.5q0 40 16.5 65.5t43.5 41t59 24.5v5q-45 14 -72.5 43.5t-27.5 78.5q0 68 57.5 105t148.5 37q58 0 99.5 -10t81.5 -28l-33 -70
q-33 15 -67.5 25t-81.5 10q-121 0 -121 -76q0 -44 41.5 -63t111.5 -19h56z" />
    <glyph glyph-name="uni0260#0" unicode="&#x260;" horiz-adv-x="615" 
d="M564 765q19 0 37 -4t28 -9v-73q-7 3 -21 6.5t-31 3.5q-22 0 -35 -13t-13 -45v-640q0 -115 -58.5 -173t-181.5 -58q-118 0 -193 34v81q79 -42 198 -42q69 0 108.5 40.5t39.5 110.5v21q0 8 1 23.5t1.5 28.5t0.5 14h-4q-54 -81 -166 -81q-104 0 -162.5 73t-58.5 204
q0 128 58.5 203.5t161.5 75.5q53 0 95.5 -20t72.5 -61h6q-1 17 -3.5 43t-2.5 45v72q0 140 122 140zM286 472q-67 0 -104 -53.5t-37 -152.5t36.5 -151.5t106.5 -52.5q81 0 118 43.5t37 140.5v21q0 110 -38 157.5t-119 47.5z" />
    <glyph glyph-name="uni0263#0" unicode="&#x263;" horiz-adv-x="508" 
d="M253 -238q-52 0 -83.5 35.5t-31.5 88.5q0 50 19 96t46 97l-203 457h94l102 -241q14 -32 31 -74.5t24 -74.5h4q6 20 16 47t21 54t20 48l102 241h94l-205 -457q31 -59 48 -105t17 -88q0 -52 -31.5 -88t-83.5 -36zM253 -165q15 0 26 12.5t11 40.5q0 20 -9 53t-28 64
q-19 -31 -28 -63.5t-9 -52.5q0 -28 11 -41t26 -13z" />
    <glyph glyph-name="uni0268#0" unicode="&#x268;" horiz-adv-x="258" 
d="M248 319v-71h-238v71h238zM130 737q20 0 35.5 -13.5t15.5 -42.5q0 -28 -15.5 -42t-35.5 -14q-22 0 -37 14t-15 42q0 29 15 42.5t37 13.5zM173 536v-536h-88v536h88z" />
    <glyph glyph-name="iotaLatin#0" unicode="&#x269;" horiz-adv-x="346" 
d="M169 536v-378q0 -48 18.5 -72t58.5 -24q22 0 45.5 3.5t36.5 7.5v-67q-14 -7 -41 -11.5t-53 -4.5q-44 0 -78.5 14.5t-54 51t-19.5 101.5v379h87z" />
    <glyph glyph-name="uni026F#0" unicode="&#x26f;" horiz-adv-x="935" 
d="M262 -10q-91 0 -136 46.5t-45 150.5v349h87v-345q0 -127 109 -127q78 0 111.5 45t33.5 131v296h87v-345q0 -127 110 -127q81 0 112 50t31 144v278h88v-536h-71l-13 73h-5q-25 -42 -67.5 -62.5t-90.5 -20.5q-126 0 -164 90h-5q-27 -46 -73.5 -68t-98.5 -22z" />
    <glyph glyph-name="uni0272#0" unicode="&#x272;" horiz-adv-x="618" 
d="M343 546q96 0 145 -46.5t49 -150.5v-349h-87v343q0 129 -120 129q-89 0 -123 -50t-34 -144v-351q0 -65 -18 -101.5t-48 -51t-66 -14.5q-22 0 -40.5 4.5t-29.5 11.5v67q8 -4 23.5 -7.5t28.5 -3.5q31 0 46.5 18.5t15.5 77.5v608h71l13 -73h5q26 42 72 62.5t97 20.5z" />
    <glyph glyph-name="uni0275#0" unicode="&#x275;" horiz-adv-x="605" 
d="M551 269q0 -133 -67.5 -206t-182.5 -73q-71 0 -126.5 32.5t-87.5 95t-32 151.5q0 133 67 205t182 72q73 0 128.5 -32.5t87 -94t31.5 -150.5zM302 472q-74 0 -111 -40.5t-44 -119.5h312q-7 79 -45.5 119.5t-111.5 40.5zM303 63q77 0 114 45t42 131h-313q5 -86 43 -131
t114 -45z" />
    <glyph glyph-name="uni0280#0" unicode="&#x280;" horiz-adv-x="559" 
d="M85 0v536h240q86 0 138 -40.5t52 -117.5q0 -47 -18 -78.5t-46.5 -49t-60.5 -25.5l153 -225h-102l-138 213h-130v-213h-88zM173 286h126q62 0 96.5 22.5t34.5 68.5q0 38 -26 62t-88 24h-143v-177z" />
    <glyph glyph-name="uni0283#0" unicode="&#x283;" horiz-adv-x="258" 
d="M217 765q22 0 41 -4.5t29 -11.5v-67q-8 4 -23 7.5t-29 3.5q-31 0 -46.5 -18.5t-15.5 -77.5v-670q0 -65 -18 -101.5t-48 -51t-66 -14.5q-22 0 -40.5 4.5t-29.5 11.5v67q8 -4 23.5 -7.5t28.5 -3.5q31 0 46.5 18.5t15.5 77.5v670q0 66 18 102t48.5 50.5t65.5 14.5z" />
    <glyph glyph-name="uni0288#0" unicode="&#x288;" horiz-adv-x="361" 
d="M264 -168q20 0 41 3.5t34 7.5v-67q-14 -7 -40 -11.5t-50 -4.5q-42 0 -77.5 14.5t-57.5 50.5t-22 101v542h-76v42l77 35l35 114h52v-123h155v-68h-155v-540q0 -49 23.5 -72.5t60.5 -23.5z" />
    <glyph glyph-name="uni0289#0" unicode="&#x289;" horiz-adv-x="618" 
d="M10 253v71h598v-71h-598zM533 536v-536h-72l-13 71h-4q-26 -42 -72 -61.5t-98 -19.5q-97 0 -146 46.5t-49 148.5v351h89v-345q0 -128 119 -128q89 0 123.5 50t34.5 144v279h88z" />
    <glyph glyph-name="uni028A#0" unicode="&#x28a;" horiz-adv-x="605" 
d="M301 -10q-71 0 -126.5 30.5t-87.5 87t-32 134.5q0 74 27 128t78 93h-130v73h236v-69q-48 -22 -84 -80.5t-36 -144.5q0 -79 37.5 -129t119.5 -50q81 0 119 50t38 130q0 51 -17 97t-44.5 80t-59.5 47v69h236v-73h-130q106 -85 106 -220q0 -118 -67.5 -185.5t-182.5 -67.5z
" />
    <glyph glyph-name="uni028B#0" unicode="&#x28b;" horiz-adv-x="613" 
d="M384 546q47 0 80.5 -14t52 -49.5t18.5 -101.5v-149q0 -121 -55.5 -181.5t-171.5 -60.5q-118 0 -172.5 58.5t-54.5 183.5v304h88v-301q0 -97 33.5 -134.5t105.5 -37.5t105.5 38.5t33.5 133.5v143q0 55 -15.5 73.5t-53.5 18.5q-30 0 -57 -9v75q14 5 32.5 7.5t30.5 2.5z" />
    <glyph glyph-name="uni028C#0" unicode="&#x28c;" horiz-adv-x="508" 
d="M305 536l203 -536h-94l-114 316q-8 22 -17 49t-16 51.5t-10 41.5h-4q-4 -17 -11.5 -42t-17 -52t-16.5 -48l-114 -316h-94l204 536h101z" />
    <glyph glyph-name="uni0292#0" unicode="&#x292;" horiz-adv-x="498" 
d="M437 536v-64l-219 -244q68 -4 124 -30.5t89 -75t33 -121.5q0 -71 -32.5 -125.5t-92 -85t-140.5 -30.5q-59 0 -106 9.5t-79 25.5v80q33 -16 82 -29t107 -13q77 0 125 44.5t48 121.5q0 84 -55.5 121.5t-146.5 37.5h-59v61l219 243h-306v74h409z" />
    <glyph glyph-name="uni02B9#0" unicode="&#x2b9;" horiz-adv-x="175" 
d="M156 714l7 -11q-13 -52 -37.5 -116.5t-48.5 -117.5h-65q10 38 19.5 81.5t17.5 86t13 77.5h94z" />
    <glyph glyph-name="uni02BA#0" unicode="&#x2ba;" horiz-adv-x="359" 
d="M340 714l7 -11q-13 -53 -37.5 -117t-48.5 -117h-66q10 38 19.5 81.5t18 86t13.5 77.5h94zM155 714l7 -11q-13 -53 -37.5 -117t-48.5 -117h-64q10 38 19 81.5t17 86t13 77.5h94z" />
    <glyph glyph-name="uni02BC#0" unicode="&#x2bc;" horiz-adv-x="175" 
d="M156 714l7 -11q-13 -52 -37.5 -116.5t-48.5 -117.5h-65q10 38 19.5 81.5t17.5 86t13 77.5h94z" />
    <glyph glyph-name="circumflex#0" unicode="&#x2c6;" horiz-adv-x="418" 
d="M253 766q12 -22 34.5 -49.5t47 -54t43.5 -45.5v-11h-62q-26 16 -54 39.5t-55 50.5q-27 -27 -54 -50t-53 -40h-60v11q19 20 42.5 46t45.5 53.5t35 49.5h90z" />
    <glyph glyph-name="caron#0" unicode="&#x2c7;" horiz-adv-x="418" 
d="M163 606q-13 23 -35 49.5t-46 52.5t-42 45v13h60q26 -17 54 -41t53 -51q27 27 55 51t54 41h62v-13q-19 -19 -43.5 -45t-47 -52.5t-34.5 -49.5h-90z" />
    <glyph glyph-name="macron#0" unicode="&#x2c9;" horiz-adv-x="377" 
d="M337 677v-71h-297v71h297z" />
    <glyph glyph-name="breve#0" unicode="&#x2d8;" horiz-adv-x="391" 
d="M351 740q-5 -60 -45.5 -97t-112.5 -37q-74 0 -111.5 36.5t-41.5 97.5h54q5 -41 30 -52t71 -11q39 0 67.5 12t33.5 51h55z" />
    <glyph glyph-name="dotaccent#0" unicode="&#x2d9;" horiz-adv-x="183" 
d="M92 737q20 0 35.5 -13.5t15.5 -42.5q0 -28 -15.5 -42t-35.5 -14q-22 0 -37 14t-15 42q0 29 15 42.5t37 13.5z" />
    <glyph glyph-name="ring#0" unicode="&#x2da;" horiz-adv-x="300" 
d="M149 606q-49 0 -79 28t-30 78t30 77.5t79 27.5q47 0 79 -27.5t32 -76.5q0 -51 -31.5 -79t-79.5 -28zM149 656q25 0 40.5 15t15.5 41t-16 41t-40 15t-40 -15t-16 -41t14.5 -41t41.5 -15z" />
    <glyph glyph-name="ogonek#0" unicode="&#x2db;" horiz-adv-x="245" 
d="M112 -116q0 -45 45 -45q17 0 28.5 2.5t19.5 3.5v-56q-14 -4 -28 -6.5t-34 -2.5q-53 0 -78 25t-25 69q0 29 14.5 56t36 49t41.5 36l48 -15q-34 -32 -51 -58.5t-17 -57.5z" />
    <glyph glyph-name="tilde#0" unicode="&#x2dc;" horiz-adv-x="447" 
d="M40 606q6 59 34.5 93.5t75.5 34.5q30 0 56.5 -14.5t50.5 -28.5t45 -14q23 0 35.5 14.5t19.5 43.5h50q-6 -58 -34 -93t-75 -35q-28 0 -54.5 14t-51 28.5t-46.5 14.5q-24 0 -36 -14.5t-19 -43.5h-51z" />
    <glyph glyph-name="hungarumlaut#0" unicode="&#x2dd;" horiz-adv-x="439" 
d="M399 766v-10q-10 -17 -33 -46t-50 -57.5t-50 -46.5h-50v12q14 19 30 45t31.5 53.5t25.5 49.5h96zM223 766v-10q-10 -17 -33 -46t-50 -57.5t-50 -46.5h-50v12q21 29 46 71.5t41 76.5h96z" />
    <glyph glyph-name="gravecomb#0" unicode="&#x300;" 
d="M-388 766q11 -22 27.5 -49.5t35 -53.5t33.5 -45v-12h-59q-23 18 -52 46.5t-53.5 57t-36.5 46.5v10h105z" />
    <glyph glyph-name="acutecomb#0" unicode="&#x301;" 
d="M-124 766v-10q-12 -18 -37 -46.5t-53.5 -57t-52.5 -46.5h-58v12q15 19 32.5 45t34.5 53.5t28 49.5h106z" />
    <glyph glyph-name="uni0302#0" unicode="&#x302;" 
d="M46 766q12 -22 34.5 -49.5t47 -54t43.5 -45.5v-11h-62q-26 16 -54 39.5t-55 50.5q-27 -27 -54 -50t-53 -40h-60v11q19 20 42.5 46t45.5 53.5t35 49.5h90z" />
    <glyph glyph-name="tildecomb#0" unicode="&#x303;" 
d="M-491 606q6 59 34.5 93.5t75.5 34.5q30 0 56.5 -14.5t50.5 -28.5t45 -14q23 0 35.5 14.5t19.5 43.5h50q-6 -58 -34 -93t-75 -35q-28 0 -54.5 14t-51 28.5t-46.5 14.5q-24 0 -36 -14.5t-19 -43.5h-51z" />
    <glyph glyph-name="uni0304#0" unicode="&#x304;" 
d="M149 677v-71h-297v71h297z" />
    <glyph glyph-name="uni0305#0" unicode="&#x305;" 
d="M-208 842h417v-71h-417v71z" />
    <glyph glyph-name="uni0306#0" unicode="&#x306;" 
d="M156 740q-5 -60 -45.5 -97t-112.5 -37q-74 0 -111.5 36.5t-41.5 97.5h54q5 -41 30 -52t71 -11q39 0 67.5 12t33.5 51h55z" />
    <glyph glyph-name="uni0307#0" unicode="&#x307;" 
d="M1 737q20 0 35.5 -13.5t15.5 -42.5q0 -28 -15.5 -42t-35.5 -14q-22 0 -37 14t-15 42q0 29 15 42.5t37 13.5z" />
    <glyph glyph-name="uni0308#0" unicode="&#x308;" 
d="M-141 681q0 26 14 37.5t33 11.5t33 -11.5t14 -37.5q0 -25 -14 -37.5t-33 -12.5t-33 12.5t-14 37.5zM47 681q0 26 13.5 37.5t32.5 11.5t33 -11.5t14 -37.5q0 -25 -14 -37.5t-33 -12.5t-32.5 12.5t-13.5 37.5z" />
    <glyph glyph-name="hookabovecomb#0" unicode="&#x309;" 
d="M-192 730q0 -38 -23 -58.5t-58 -28.5l-5 -53h-54l-7 85q36 6 57.5 17.5t21.5 34.5q0 24 -18.5 32t-46.5 8q-13 0 -26.5 -1t-21.5 -3v52q18 6 55 6q60 0 93 -22t33 -69z" />
    <glyph glyph-name="uni030A#0" unicode="&#x30a;" 
d="M1 606q-49 0 -79 28t-30 78t30 77.5t79 27.5q47 0 79 -27.5t32 -76.5q0 -51 -31.5 -79t-79.5 -28zM1 656q25 0 40.5 15t15.5 41t-16 41t-40 15t-40 -15t-16 -41t14.5 -41t41.5 -15z" />
    <glyph glyph-name="uni030B#0" unicode="&#x30b;" 
d="M233 766v-10q-10 -17 -33 -46t-50 -57.5t-50 -46.5h-50v12q14 19 30 45t31.5 53.5t25.5 49.5h96zM57 766v-10q-10 -17 -33 -46t-50 -57.5t-50 -46.5h-50v12q21 29 46 71.5t41 76.5h96z" />
    <glyph glyph-name="uni030C#0" unicode="&#x30c;" 
d="M-46 606q-13 23 -35 49.5t-46 52.5t-42 45v13h60q26 -17 54 -41t53 -51q27 27 55 51t54 41h62v-13q-19 -19 -43.5 -45t-47 -52.5t-34.5 -49.5h-90z" />
    <glyph glyph-name="uni030D#0" unicode="&#x30d;" 
d="M40 760v-164h-80v164h80z" />
    <glyph glyph-name="uni030E#0" unicode="&#x30e;" 
d="M-40 760v-164h-80v164h80zM120 760v-164h-80v164h80z" />
    <glyph glyph-name="uni030F#0" unicode="&#x30f;" 
d="M-245 766q16 -34 40.5 -76.5t45.5 -71.5v-12h-50q-22 18 -49 46.5t-50 57.5t-34 46v10h97zM-421 766q16 -34 40.5 -76.5t45.5 -71.5v-12h-50q-22 18 -49 46.5t-50 57.5t-34 46v10h97z" />
    <glyph glyph-name="uni0310#0" unicode="&#x310;" 
d="M1 844q20 0 35.5 -13.5t15.5 -42.5q0 -28 -15.5 -42t-35.5 -14q-22 0 -37 14t-15 42q0 29 15 42.5t37 13.5zM155 740q-5 -60 -45.5 -97t-112.5 -37q-74 0 -111.5 36.5t-41.5 97.5h54q5 -41 30 -52t71 -11q39 0 67.5 12t33.5 51h55z" />
    <glyph glyph-name="uni0311#0" unicode="&#x311;" 
d="M2 740q74 0 111.5 -36t41.5 -98h-54q-4 41 -29.5 52t-71.5 11q-39 0 -67.5 -12t-33.5 -51h-55q5 60 45.5 97t112.5 37z" />
    <glyph glyph-name="uni0312#0" unicode="&#x312;" 
d="M-73 469l-6 11q14 53 38 117t48 117h65q-9 -38 -19 -81.5t-18 -86t-13 -77.5h-95z" />
    <glyph glyph-name="uni0313#0" unicode="&#x313;" 
d="M68 714l7 -11q-13 -52 -37.5 -116.5t-48.5 -117.5h-65q10 38 19.5 81.5t17.5 86t13 77.5h94z" />
    <glyph glyph-name="uni0314#0" unicode="&#x314;" 
d="M23 714q5 -35 13 -77.5t18 -86t19 -81.5h-65q-25 53 -49 117.5t-38 116.5l7 11h95z" />
    <glyph glyph-name="uni0315#0" unicode="&#x315;" 
d="M70 714l7 -11q-13 -52 -37.5 -116.5t-48.5 -117.5h-65q10 38 19.5 81.5t17.5 86t13 77.5h94z" />
    <glyph glyph-name="uni0316#0" unicode="&#x316;" 
d="M5 -44q11 -22 27.5 -49.5t35 -53.5t33.5 -45v-12h-59q-23 18 -52 46.5t-53.5 57t-36.5 46.5v10h105z" />
    <glyph glyph-name="uni0317#0" unicode="&#x317;" 
d="M101 -44v-10q-12 -18 -37 -46.5t-53.5 -57t-52.5 -46.5h-58v12q15 19 32.5 45t34.5 53.5t28 49.5h106z" />
    <glyph glyph-name="uni0318#0" unicode="&#x318;" 
d="M-88 -93h110v65h66v-190h-66v65h-110v60z" />
    <glyph glyph-name="uni0319#0" unicode="&#x319;" 
d="M88 -153h-110v-65h-66v190h66v-65h110v-60z" />
    <glyph glyph-name="uni031A#0" unicode="&#x31a;" 
d="M-78 942h256v-240h-66v180h-190v60z" />
    <glyph glyph-name="uni031B#0" unicode="&#x31b;" 
d="M-103 617q51 8 81 42t30 101h93l7 -11q-14 -80 -60.5 -131t-150.5 -63v62z" />
    <glyph glyph-name="uni031C#0" unicode="&#x31c;" 
d="M56 -225q-49 0 -79 28t-30 78t30 77.5t79 27.5v-50q-24 0 -40 -14.5t-16 -40.5q0 -55 56 -55v-51z" />
    <glyph glyph-name="uni031D#0" unicode="&#x31d;" 
d="M33 -48v-100h72v-60h-210v60h72v100h66z" />
    <glyph glyph-name="uni031E#0" unicode="&#x31e;" 
d="M-33 -208v100h-72v60h210v-60h-72v-100h-66z" />
    <glyph glyph-name="uni031F#0" unicode="&#x31f;" 
d="M-105 -158v60h72v70h66v-70h72v-60h-72v-70h-66v70h-72z" />
    <glyph glyph-name="uni0320#0" unicode="&#x320;" 
d="M114 -158h-228v60h228v-60z" />
    <glyph glyph-name="hookpalatalizedbelowcomb#0" unicode="&#x321;" 
d="M-117 -238q-19 0 -34.5 4t-25.5 8v73q8 -3 21 -6t29 -3q48 0 48 52v152h79v-147q0 -64 -28.5 -98.5t-88.5 -34.5z" />
    <glyph glyph-name="hookretroflexbelowcomb#0" unicode="&#x322;" 
d="M117 -238q-60 0 -88.5 34.5t-28.5 98.5v147h79v-152q0 -52 48 -52q16 0 29 3t21 6v-73q-10 -4 -25.5 -8t-34.5 -4z" />
    <glyph glyph-name="dotbelowcomb#0" unicode="&#x323;" 
d="M-299 -176q-21 0 -36.5 14t-15.5 42q0 29 15.5 42.5t36.5 13.5t36.5 -13.5t15.5 -42.5q0 -28 -15.5 -42t-36.5 -14z" />
    <glyph glyph-name="uni0324#0" unicode="&#x324;" 
d="M-141 -125q0 26 14 37.5t33 11.5t33 -11.5t14 -37.5q0 -25 -14 -37.5t-33 -12.5t-33 12.5t-14 37.5zM47 -125q0 26 13.5 37.5t32.5 11.5t33 -11.5t14 -37.5q0 -25 -14 -37.5t-33 -12.5t-32.5 12.5t-13.5 37.5z" />
    <glyph glyph-name="uni0325#0" unicode="&#x325;" 
d="M1 -227q-49 0 -79 28t-30 78t30 77.5t79 27.5q47 0 79 -27.5t32 -76.5q0 -51 -31.5 -79t-79.5 -28zM1 -177q25 0 40.5 15t15.5 41t-16 41t-40 15t-40 -15t-16 -41t14.5 -41t41.5 -15z" />
    <glyph glyph-name="uni0326#0" unicode="&#x326;" 
d="M64 -61v-9q-4 -18 -16.5 -45.5t-29 -55.5t-34.5 -50h-48v12q8 17 16.5 43.5t15.5 55t9 49.5h87z" />
    <glyph glyph-name="uni0327#0" unicode="&#x327;" 
d="M100 -139q0 -48 -37 -74.5t-111 -26.5q-32 0 -50 5v55q9 -2 24 -3.5t29 -1.5q36 0 55 9.5t19 34.5q0 26 -26.5 38t-64.5 17l43 86h58l-26 -53q36 -8 61.5 -28t25.5 -58z" />
    <glyph glyph-name="uni0328#0" unicode="&#x328;" 
d="M-10 -116q0 -45 45 -45q17 0 28.5 2.5t19.5 3.5v-56q-14 -4 -28 -6.5t-34 -2.5q-53 0 -78 25t-25 69q0 29 14.5 56t36 49t41.5 36l48 -15q-34 -32 -51 -58.5t-17 -57.5z" />
    <glyph glyph-name="uni0329#0" unicode="&#x329;" 
d="M40 -40v-164h-80v164h80z" />
    <glyph glyph-name="uni032A#0" unicode="&#x32a;" 
d="M-178 -48h356v-170h-66v110h-224v-110h-66v170z" />
    <glyph glyph-name="uni032B#0" unicode="&#x32b;" 
d="M190 -61q0 -58 -31 -87t-79 -29q-54 0 -80 35q-26 -35 -80 -35q-49 0 -79 29t-30 87h54q0 -66 55 -66q25 0 40.5 16t15.5 50h48q0 -66 56 -66q25 0 40.5 16t15.5 50h54z" />
    <glyph glyph-name="uni032C#0" unicode="&#x32c;" 
d="M-45 -199q-13 23 -35 49.5t-46 52.5t-42 45v13h60q26 -17 54 -41t53 -51q27 27 55 51t54 41h62v-13q-19 -19 -43.5 -45t-47 -52.5t-34.5 -49.5h-90z" />
    <glyph glyph-name="uni032D#0" unicode="&#x32d;" 
d="M44 -40q12 -22 34.5 -49.5t47 -54t43.5 -45.5v-11h-62q-26 16 -54 39.5t-55 50.5q-27 -27 -54 -50t-53 -40h-60v11q19 20 42.5 46t45.5 53.5t35 49.5h90z" />
    <glyph glyph-name="uni032E#0" unicode="&#x32e;" 
d="M155 -51q-5 -60 -45.5 -97t-112.5 -37q-74 0 -111.5 36.5t-41.5 97.5h54q5 -41 30 -52t71 -11q39 0 67.5 12t33.5 51h55z" />
    <glyph glyph-name="uni032F#0" unicode="&#x32f;" 
d="M2 -52q74 0 111.5 -36t41.5 -98h-54q-4 41 -29.5 52t-71.5 11q-39 0 -67.5 -12t-33.5 -51h-55q5 60 45.5 97t112.5 37z" />
    <glyph glyph-name="uni0330#0" unicode="&#x330;" 
d="M-184 -184q6 59 34.5 93.5t75.5 34.5q30 0 56.5 -14.5t50.5 -28.5t45 -14q23 0 35.5 14.5t19.5 43.5h50q-6 -58 -34 -93t-75 -35q-28 0 -54.5 14t-51 28.5t-46.5 14.5q-24 0 -36 -14.5t-19 -43.5h-51z" />
    <glyph glyph-name="uni0331#0" unicode="&#x331;" 
d="M149 -76v-71h-297v71h297z" />
    <glyph glyph-name="uni0332#0" unicode="&#x332;" 
d="M224 -154h-448v64h448v-64z" />
    <glyph glyph-name="uni0333#0" unicode="&#x333;" 
d="M208 -90h-415v64h415v-64zM208 -222h-415v64h415v-64z" />
    <glyph glyph-name="uni0334#0" unicode="&#x334;" 
d="M-178 207q6 59 34.5 93.5t75.5 34.5q30 0 56.5 -14.5t50.5 -28.5t45 -14q23 0 35.5 14.5t19.5 43.5h50q-6 -58 -34 -93t-75 -35q-28 0 -54.5 14t-51 28.5t-46.5 14.5q-24 0 -36 -14.5t-19 -43.5h-51z" />
    <glyph glyph-name="strokeshortoverlaycomb#0" unicode="&#x335;" 
d="M-208 329h417v-71h-417v71z" />
    </font>
</defs>
</svg>
